<svg width="24" height="24" viewBox="0 0 24 24" fill="none" xmlns="http://www.w3.org/2000/svg">
<path d="M18.4051 11.9998C18.4019 10.9913 18.2938 9.98591 18.0826 8.9998H20.7826C20.6435 8.58846 20.4756 8.18746 20.2801 7.79978H17.7676C17.2953 6.22181 16.5627 4.73382 15.6001 3.39724C14.9851 3.13864 14.3438 2.94752 13.6876 2.82724C15.0063 4.24418 16.0017 5.93053 16.6051 7.76978H12.5626V2.69973H11.4376V7.77728H7.39507C7.99962 5.9347 8.99769 4.24565 10.3201 2.82724C9.66665 2.94551 9.02793 3.13411 8.41507 3.38974C7.44866 4.72072 6.71104 6.20358 6.23257 7.77728H3.70507C3.50599 8.17204 3.33555 8.5806 3.19507 8.9998H5.91757C5.70628 9.98591 5.5982 10.9913 5.59507 11.9998C5.59714 13.1029 5.72293 14.2023 5.97007 15.2774H3.31507C3.47023 15.6978 3.65572 16.1063 3.87007 16.4999H6.29257C6.75172 17.9367 7.43242 19.2931 8.31007 20.5199C8.93855 20.7895 9.59509 20.9882 10.2676 21.1124C9.04351 19.7772 8.10214 18.2083 7.50007 16.4999H11.4451V21.2549H12.5701V16.4999H16.5001C15.896 18.209 14.952 19.778 13.7251 21.1124C14.4007 20.9839 15.0598 20.7801 15.6901 20.5049C16.5663 19.2827 17.247 17.9315 17.7076 16.4999H20.1076C20.3209 16.1136 20.5064 15.7126 20.6626 15.2999H18.0001C18.259 14.2186 18.3948 13.1116 18.4051 11.9998ZM11.4376 15.2774H7.13257C6.60455 13.2132 6.58139 11.0523 7.06507 8.9773H11.4376V15.2774ZM16.8676 15.2774H12.5626V8.9998H16.9351C17.1505 9.98511 17.2562 10.9913 17.2501 11.9998C17.2562 13.1038 17.1277 14.2044 16.8676 15.2774Z" fill="#705E78"/>
<path d="M12 0C9.62663 0 7.30655 0.703795 5.33316 2.02238C3.35977 3.34097 1.8217 5.21514 0.913451 7.40787C0.00519937 9.60061 -0.232441 12.0134 0.230582 14.3412C0.693605 16.669 1.83649 18.8072 3.51472 20.4855C5.19295 22.1637 7.33115 23.3066 9.65892 23.7697C11.9867 24.2327 14.3995 23.995 16.5922 23.0868C18.7849 22.1785 20.6591 20.6404 21.9776 18.667C23.2962 16.6936 24 14.3735 24 12.0001C24 8.81749 22.7357 5.76521 20.4853 3.51475C18.2348 1.26429 15.1826 0 12 0ZM12 22.5002C9.9233 22.5002 7.89323 21.8844 6.16652 20.7306C4.4398 19.5769 3.09399 17.937 2.29927 16.0183C1.50455 14.0997 1.29662 11.9885 1.70176 9.95165C2.1069 7.91483 3.10693 6.04389 4.57538 4.57542C6.04383 3.10696 7.91476 2.10692 9.95156 1.70177C11.9884 1.29662 14.0996 1.50456 16.0182 2.29929C17.9368 3.09402 19.5767 4.43984 20.7304 6.16657C21.8842 7.89331 22.5 9.9234 22.5 12.0001C22.5 14.7849 21.3938 17.4557 19.4246 19.4248C17.4555 21.394 14.7848 22.5002 12 22.5002Z" fill="#705E78"/>
</svg>
