<svg width="24" height="24" viewBox="0 0 24 24" fill="none" xmlns="http://www.w3.org/2000/svg">
<path d="M16.5391 11.7379L16.5276 11.7682C16.5312 11.759 16.5341 11.7497 16.5377 11.7406L16.5391 11.7379Z" fill="black"/>
<path d="M12.0005 0C8.04576 0 4.8 3.2352 4.8 7.18128C4.8 8.71056 5.2896 10.1357 6.1152 11.303L6.08568 11.257L10.6951 19.2245L10.7184 19.255C10.9042 19.4974 11.088 19.6927 11.3105 19.8398C11.533 19.987 11.8178 20.0798 12.0977 20.0518C12.6569 19.9956 12.9818 19.6092 13.2821 19.2022L13.3008 19.177L18.3826 10.5288L18.3866 10.5216C18.5083 10.302 18.5964 10.0805 18.6718 9.86592C19.0203 9.01376 19.1997 8.10195 19.2 7.18128C19.2 3.2352 15.9552 0 12.0005 0ZM12.0005 1.2C15.3014 1.2 18 3.89232 18 7.18128C18.0002 7.94949 17.8502 8.71033 17.5584 9.42096L17.5524 9.43584L17.5471 9.45144C17.484 9.63312 17.4154 9.798 17.3362 9.94104L12.306 18.5009C12.0835 18.7939 11.928 18.8633 11.9779 18.858C12.0036 18.8556 12.0274 18.8758 11.9724 18.8393C11.9198 18.8045 11.8126 18.7025 11.6854 18.5402L7.1112 10.632L7.09512 10.6097C6.4056 9.63528 6 8.4552 6 7.18128C6 3.89256 8.69952 1.2 12.0005 1.2ZM12.0005 3.084C9.7296 3.084 7.89288 4.91424 7.89288 7.18128C7.89288 9.44832 9.72984 11.2786 12.0005 11.2786C14.2711 11.2786 16.1071 9.44808 16.1071 7.18128C16.1071 4.91424 14.2711 3.084 12.0005 3.084ZM12.0005 4.284C13.6366 4.284 14.9071 5.5524 14.9071 7.18128C14.9071 8.81016 13.6368 10.0786 12.0005 10.0786C10.3642 10.0786 9.09288 8.80992 9.09288 7.18128C9.09288 5.5524 10.3644 4.284 12.0005 4.284Z" fill="#F3FEB0"/>
<path d="M8.16143 16.5737C4.77119 17.0527 2.39999 18.1987 2.39999 19.8857C2.39999 22.158 6.36191 24 12 24C17.6381 24 21.6 22.158 21.6 19.8857C21.6 18.1987 19.229 17.0527 15.839 16.5737L15.3694 17.3734C17.9244 17.7278 19.68 18.4728 19.68 19.3373C19.68 20.5493 16.2415 21.5316 12 21.5316C7.75847 21.5316 4.31999 20.5493 4.31999 19.3373C4.31975 18.4757 6.06383 17.7314 8.62679 17.3755C8.47199 17.1082 8.31623 16.8413 8.16119 16.5737H8.16143Z" fill="#F3FEB0"/>
</svg>
