<svg width="24" height="24" viewBox="0 0 24 24" fill="none" xmlns="http://www.w3.org/2000/svg">
<path fill-rule="evenodd" clip-rule="evenodd" d="M7.05273 0.0720007C8.33236 0.013091 8.74036 0 12 0C15.2596 0 15.6676 0.0141819 16.9462 0.0720007C18.2247 0.129819 19.0975 0.333822 19.8611 0.629461C20.6607 0.931646 21.3862 1.40401 21.9862 2.01493C22.5971 2.61384 23.0684 3.33822 23.3695 4.13895C23.6662 4.9026 23.8691 5.77533 23.928 7.05171C23.9869 8.33354 24 8.74154 24 12.0001C24 15.2598 23.9858 15.6678 23.928 16.9474C23.8702 18.2238 23.6662 19.0966 23.3695 19.8602C23.0684 20.661 22.5963 21.3866 21.9862 21.9864C21.3862 22.5973 20.6607 23.0686 19.8611 23.3697C19.0975 23.6664 18.2247 23.8693 16.9484 23.9282C15.6676 23.9872 15.2596 24.0002 12 24.0002C8.74036 24.0002 8.33236 23.9861 7.05273 23.9282C5.77636 23.8704 4.90364 23.6664 4.14 23.3697C3.33919 23.0686 2.61362 22.5965 2.01382 21.9864C1.40332 21.3871 0.930889 20.6619 0.629455 19.8613C0.333818 19.0976 0.130909 18.2249 0.072 16.9485C0.0130909 15.6667 0 15.2587 0 12.0001C0 8.74045 0.0141818 8.33245 0.072 7.05389C0.129818 5.77533 0.333818 4.9026 0.629455 4.13895C0.931334 3.3383 1.40413 2.6131 2.01491 2.01384C2.61386 1.40347 3.3387 0.931039 4.13891 0.629461C4.90255 0.333822 5.77527 0.13091 7.05164 0.0720007H7.05273ZM16.8491 2.23202C15.5836 2.1742 15.204 2.1622 12 2.1622C8.796 2.1622 8.41636 2.1742 7.15091 2.23202C5.98036 2.28548 5.34545 2.48075 4.92218 2.64548C4.36255 2.86367 3.96218 3.12221 3.54218 3.54222C3.14405 3.92955 2.83765 4.40108 2.64545 4.92223C2.48073 5.34551 2.28545 5.98042 2.232 7.15098C2.17418 8.41645 2.16218 8.79609 2.16218 12.0001C2.16218 15.2042 2.17418 15.5838 2.232 16.8493C2.28545 18.0198 2.48073 18.6547 2.64545 19.078C2.83745 19.5984 3.144 20.0708 3.54218 20.458C3.92945 20.8562 4.40182 21.1628 4.92218 21.3548C5.34545 21.5195 5.98036 21.7148 7.15091 21.7682C8.41636 21.826 8.79491 21.838 12 21.838C15.2051 21.838 15.5836 21.826 16.8491 21.7682C18.0196 21.7148 18.6545 21.5195 19.0778 21.3548C19.6375 21.1366 20.0378 20.878 20.4578 20.458C20.856 20.0708 21.1625 19.5984 21.3545 19.078C21.5193 18.6547 21.7145 18.0198 21.768 16.8493C21.8258 15.5838 21.8378 15.2042 21.8378 12.0001C21.8378 8.79609 21.8258 8.41645 21.768 7.15098C21.7145 5.98042 21.5193 5.34551 21.3545 4.92223C21.1364 4.36259 20.8778 3.96222 20.4578 3.54222C20.0705 3.14411 19.599 2.83771 19.0778 2.64548C18.6545 2.48075 18.0196 2.28548 16.8491 2.23202V2.23202ZM10.4673 15.6994C11.3233 16.0558 12.2764 16.1039 13.1639 15.8355C14.0514 15.5671 14.8182 14.999 15.3334 14.228C15.8485 13.4571 16.0801 12.5313 15.9884 11.6086C15.8968 10.6859 15.4876 9.82371 14.8309 9.16918C14.4123 8.75079 13.9061 8.43043 13.3487 8.23115C12.7914 8.03188 12.1968 7.95866 11.6078 8.01675C11.0188 8.07485 10.45 8.26282 9.94233 8.56714C9.43468 8.87145 9.00081 9.28454 8.67197 9.77666C8.34312 10.2688 8.12748 10.8277 8.04056 11.4132C7.95365 11.9986 7.99762 12.5961 8.16932 13.1625C8.34101 13.7289 8.63616 14.2503 9.03351 14.6889C9.43087 15.1276 9.92054 15.4727 10.4673 15.6994ZM7.63855 7.63862C8.2113 7.06586 8.89126 6.61153 9.6396 6.30155C10.3879 5.99157 11.19 5.83203 12 5.83203C12.81 5.83203 13.6121 5.99157 14.3604 6.30155C15.1087 6.61152 15.7887 7.06586 16.3615 7.63862C16.9342 8.21138 17.3885 8.89135 17.6985 9.6397C18.0085 10.388 18.168 11.1901 18.168 12.0001C18.168 12.8101 18.0085 13.6122 17.6985 14.3605C17.3885 15.1089 16.9342 15.7889 16.3615 16.3616C15.2047 17.5184 13.6359 18.1682 12 18.1682C10.3641 18.1682 8.79528 17.5184 7.63855 16.3616C6.48182 15.2049 5.83197 13.636 5.83197 12.0001C5.83197 10.3642 6.48182 8.79536 7.63855 7.63862V7.63862ZM19.536 6.75061C19.6779 6.61672 19.7916 6.45572 19.8702 6.27713C19.9487 6.09854 19.9907 5.90599 19.9935 5.71089C19.9964 5.51579 19.9601 5.32211 19.8867 5.1413C19.8134 4.96049 19.7045 4.79624 19.5665 4.65827C19.4285 4.5203 19.2643 4.41142 19.0835 4.33806C18.9027 4.26471 18.709 4.22838 18.5139 4.23122C18.3188 4.23407 18.1263 4.27603 17.9477 4.35462C17.7691 4.43322 17.6081 4.54684 17.4742 4.68878C17.2138 4.96481 17.0712 5.33146 17.0768 5.71089C17.0823 6.09032 17.2355 6.45266 17.5038 6.72099C17.7721 6.98932 18.1345 7.1425 18.5139 7.14804C18.8933 7.15357 19.26 7.01101 19.536 6.75061V6.75061Z" fill="#705E78"/>
</svg>
