<svg width="32" height="33" viewBox="0 0 32 33" fill="none" xmlns="http://www.w3.org/2000/svg">
<path fill-rule="evenodd" clip-rule="evenodd" d="M9.40364 0.582816C11.1098 0.504271 11.6538 0.486816 16 0.486816C20.3462 0.486816 20.8902 0.505725 22.5949 0.582816C24.2996 0.659907 25.4633 0.931907 26.4815 1.32609C27.5476 1.729 28.5149 2.35882 29.3149 3.17336C30.1295 3.97191 30.7578 4.93773 31.1593 6.00536C31.5549 7.02354 31.8255 8.18718 31.904 9.889C31.9825 11.5981 32 12.1421 32 16.4868C32 20.833 31.9811 21.377 31.904 23.0832C31.8269 24.785 31.5549 25.9486 31.1593 26.9668C30.7578 28.0346 30.1284 29.002 29.3149 29.8017C28.5149 30.6163 27.5476 31.2446 26.4815 31.6461C25.4633 32.0417 24.2996 32.3123 22.5978 32.3908C20.8902 32.4694 20.3462 32.4868 16 32.4868C11.6538 32.4868 11.1098 32.4679 9.40364 32.3908C7.70182 32.3137 6.53818 32.0417 5.52 31.6461C4.45225 31.2446 3.48483 30.6152 2.68509 29.8017C1.8711 29.0027 1.24119 28.0357 0.839273 26.9683C0.445091 25.9501 0.174545 24.7865 0.096 23.0846C0.0174545 21.3755 0 20.8315 0 16.4868C0 12.1406 0.0189091 11.5966 0.096 9.89191C0.173091 8.18718 0.445091 7.02354 0.839273 6.00536C1.24178 4.93784 1.87217 3.97091 2.68655 3.17191C3.48515 2.35809 4.4516 1.72819 5.51855 1.32609C6.53673 0.931907 7.70036 0.661362 9.40218 0.582816H9.40364ZM22.4655 3.46282C20.7782 3.38573 20.272 3.36973 16 3.36973C11.728 3.36973 11.2218 3.38573 9.53455 3.46282C7.97382 3.53409 7.12727 3.79445 6.56291 4.01409C5.81673 4.305 5.28291 4.64973 4.72291 5.20973C4.19207 5.72616 3.78354 6.35486 3.52727 7.04973C3.30764 7.61409 3.04727 8.46063 2.976 10.0214C2.89891 11.7086 2.88291 12.2148 2.88291 16.4868C2.88291 20.7588 2.89891 21.265 2.976 22.9523C3.04727 24.513 3.30764 25.3595 3.52727 25.9239C3.78327 26.6177 4.192 27.2475 4.72291 27.7639C5.23927 28.2948 5.86909 28.7035 6.56291 28.9595C7.12727 29.1792 7.97382 29.4395 9.53455 29.5108C11.2218 29.5879 11.7265 29.6039 16 29.6039C20.2735 29.6039 20.7782 29.5879 22.4655 29.5108C24.0262 29.4395 24.8727 29.1792 25.4371 28.9595C26.1833 28.6686 26.7171 28.3239 27.2771 27.7639C27.808 27.2475 28.2167 26.6177 28.4727 25.9239C28.6924 25.3595 28.9527 24.513 29.024 22.9523C29.1011 21.265 29.1171 20.7588 29.1171 16.4868C29.1171 12.2148 29.1011 11.7086 29.024 10.0214C28.9527 8.46063 28.6924 7.61409 28.4727 7.04973C28.1818 6.30354 27.8371 5.76973 27.2771 5.20973C26.7606 4.67892 26.1319 4.2704 25.4371 4.01409C24.8727 3.79445 24.0262 3.53409 22.4655 3.46282ZM13.9564 21.4192C15.0977 21.8943 16.3686 21.9584 17.5519 21.6006C18.7352 21.2428 19.7577 20.4852 20.4445 19.4574C21.1314 18.4295 21.4401 17.195 21.3179 15.9648C21.1957 14.7346 20.6502 13.585 19.7745 12.7123C19.2163 12.1544 18.5414 11.7273 17.7983 11.4616C17.0552 11.1959 16.2624 11.0982 15.4771 11.1757C14.6917 11.2532 13.9333 11.5038 13.2564 11.9096C12.5796 12.3153 12.0011 12.8661 11.5626 13.5222C11.1242 14.1784 10.8366 14.9236 10.7208 15.7042C10.6049 16.4848 10.6635 17.2814 10.8924 18.0367C11.1214 18.7919 11.5149 19.487 12.0447 20.0719C12.5745 20.6568 13.2274 21.1169 13.9564 21.4192ZM10.1847 10.6715C10.9484 9.90787 11.855 9.30209 12.8528 8.8888C13.8506 8.4755 14.92 8.26278 16 8.26278C17.08 8.26278 18.1494 8.4755 19.1472 8.8888C20.145 9.30209 21.0516 9.90787 21.8153 10.6715C22.5789 11.4352 23.1847 12.3418 23.598 13.3396C24.0113 14.3374 24.224 15.4068 24.224 16.4868C24.224 17.5668 24.0113 18.6362 23.598 19.634C23.1847 20.6318 22.5789 21.5384 21.8153 22.3021C20.273 23.8444 18.1812 24.7109 16 24.7109C13.8188 24.7109 11.727 23.8444 10.1847 22.3021C8.64242 20.7598 7.77596 18.668 7.77596 16.4868C7.77596 14.3057 8.64242 12.2139 10.1847 10.6715ZM26.048 9.48754C26.2372 9.30903 26.3887 9.09435 26.4935 8.85623C26.5983 8.61811 26.6543 8.36139 26.6581 8.10126C26.6619 7.84113 26.6134 7.58289 26.5156 7.34181C26.4178 7.10074 26.2726 6.88174 26.0887 6.69778C25.9047 6.51382 25.6857 6.36865 25.4446 6.27084C25.2036 6.17304 24.9453 6.1246 24.6852 6.12839C24.4251 6.13218 24.1683 6.18813 23.9302 6.29292C23.6921 6.39771 23.4774 6.54921 23.2989 6.73845C22.9517 7.1065 22.7616 7.59536 22.769 8.10126C22.7764 8.60716 22.9806 9.09028 23.3384 9.44804C23.6962 9.80581 24.1793 10.0101 24.6852 10.0174C25.1911 10.0248 25.68 9.83473 26.048 9.48754Z" fill="#705E78"/>
</svg>
