<svg width="24" height="24" viewBox="0 0 24 24" fill="none" xmlns="http://www.w3.org/2000/svg">
<path d="M3.9 1.04625e-08H20.1C21.0962 -8.15209e-05 22.0546 0.476336 22.7787 1.33152C23.5028 2.18671 23.9376 3.35582 23.994 4.59905L24 4.87505V19.1252C24.0001 20.3704 23.6189 21.5685 22.9348 22.4736C22.2507 23.3787 21.3154 23.9222 20.3208 23.9927L20.1 24.0002H3.9C2.90383 24.0003 1.94541 23.5239 1.22132 22.6687C0.49724 21.8135 0.0623984 20.6444 0.00600015 19.4012L8.37019e-09 19.1252V4.87505C-6.52161e-05 3.62983 0.381065 2.43178 1.06521 1.52667C1.74935 0.621557 2.68463 0.0779988 3.6792 0.00750026L3.9 1.04625e-08ZM22.2 8.05958L12.42 14.4946C12.3096 14.5676 12.1882 14.611 12.0636 14.6221C11.9391 14.6332 11.814 14.6117 11.6964 14.5591L11.5812 14.4961L1.8 8.06108V19.1252C1.80002 19.784 1.99821 20.4187 2.35522 20.9033C2.71223 21.3879 3.20196 21.687 3.7272 21.7412L3.9 21.7502H20.1C20.6272 21.7502 21.1351 21.5022 21.5229 21.0556C21.9106 20.6091 22.1497 19.9965 22.1928 19.3397L22.2 19.1252V8.05958ZM20.1 2.25002H3.9C3.37297 2.25005 2.86522 2.49778 2.47753 2.94405C2.08984 3.39032 1.85057 4.00249 1.8072 4.65905L1.8 4.87505V5.51856L12 12.2281L22.2 5.51706V4.87505C22.2 4.21602 22.0016 3.58112 21.6443 3.09647C21.2871 2.61182 20.7971 2.31288 20.2716 2.25902L20.1 2.25002Z" fill="#705E78"/>
</svg>
