<svg width="24" height="24" viewBox="0 0 24 24" fill="none" xmlns="http://www.w3.org/2000/svg">
<rect width="24" height="24" rx="3" fill="#FEA443"/>
<path d="M14.1501 8.312C14.1968 8.23733 14.2621 8.2 14.3461 8.2H15.9841C16.0308 8.2 16.0681 8.21867 16.0961 8.256C16.1334 8.284 16.1521 8.32133 16.1521 8.368V17.832C16.1521 17.8787 16.1334 17.9207 16.0961 17.958C16.0681 17.986 16.0308 18 15.9841 18H14.3461C14.2994 18 14.2574 17.986 14.2201 17.958C14.1921 17.9207 14.1781 17.8787 14.1781 17.832V11.658C14.1781 11.6207 14.1688 11.602 14.1501 11.602C14.1314 11.602 14.1128 11.616 14.0941 11.644L12.6101 13.968C12.5634 14.0427 12.4981 14.08 12.4141 14.08H11.5881C11.5041 14.08 11.4388 14.0427 11.3921 13.968L9.90809 11.644C9.88943 11.616 9.87076 11.6067 9.85209 11.616C9.83343 11.616 9.82409 11.6347 9.82409 11.672V17.832C9.82409 17.8787 9.80543 17.9207 9.76809 17.958C9.74009 17.986 9.70276 18 9.65609 18H8.01809C7.97143 18 7.92943 17.986 7.89209 17.958C7.86409 17.9207 7.85009 17.8787 7.85009 17.832V8.368C7.85009 8.32133 7.86409 8.284 7.89209 8.256C7.92943 8.21867 7.97143 8.2 8.01809 8.2H9.65609C9.74009 8.2 9.80543 8.23733 9.85209 8.312L11.9521 11.574C11.9801 11.63 12.0081 11.63 12.0361 11.574L14.1501 8.312Z" fill="#F3FEB0"/>
</svg>
