<svg width="235" height="51" viewBox="0 0 235 51" fill="none" xmlns="http://www.w3.org/2000/svg">
<rect x="23" y="1" width="211" height="49" fill="#705E78" stroke="#F3FEB0" stroke-width="2"/>
<path d="M57.15 16.26C57.11 16.26 57.08 16.25 57.06 16.23C57.04 16.2033 57.0367 16.1667 57.05 16.12L57.77 14.1C57.79 14.0333 57.8333 14 57.9 14H58.74C58.8333 14 58.87 14.0433 58.85 14.13L58.39 16.15C58.37 16.2233 58.3267 16.26 58.26 16.26H57.15ZM58.92 16.26C58.88 16.26 58.85 16.25 58.83 16.23C58.81 16.2033 58.8067 16.1667 58.82 16.12L59.53 14.1C59.55 14.0333 59.5933 14 59.66 14H60.5C60.5867 14 60.62 14.0433 60.6 14.13L60.16 16.15C60.1467 16.2233 60.1033 16.26 60.03 16.26H58.92ZM64.9628 14.12C64.9628 14.0867 64.9728 14.06 64.9928 14.04C65.0195 14.0133 65.0495 14 65.0828 14H66.2528C66.2861 14 66.3128 14.0133 66.3328 14.04C66.3595 14.06 66.3728 14.0867 66.3728 14.12V20.88C66.3728 20.9133 66.3595 20.9433 66.3328 20.97C66.3128 20.99 66.2861 21 66.2528 21H65.0828C65.0495 21 65.0195 20.99 64.9928 20.97C64.9728 20.9433 64.9628 20.9133 64.9628 20.88V18.12C64.9628 18.0867 64.9461 18.07 64.9128 18.07H62.7028C62.6695 18.07 62.6528 18.0867 62.6528 18.12V20.88C62.6528 20.9133 62.6395 20.9433 62.6128 20.97C62.5928 20.99 62.5661 21 62.5328 21H61.3628C61.3295 21 61.2995 20.99 61.2728 20.97C61.2528 20.9433 61.2428 20.9133 61.2428 20.88V14.12C61.2428 14.0867 61.2528 14.06 61.2728 14.04C61.2995 14.0133 61.3295 14 61.3628 14H62.5328C62.5661 14 62.5928 14.0133 62.6128 14.04C62.6395 14.06 62.6528 14.0867 62.6528 14.12V16.81C62.6528 16.8433 62.6695 16.86 62.7028 16.86H64.9128C64.9461 16.86 64.9628 16.8433 64.9628 16.81V14.12ZM69.4821 15.78C69.9154 15.78 70.3021 15.8567 70.6421 16.01C70.9821 16.1567 71.2454 16.36 71.4321 16.62C71.6254 16.88 71.7221 17.17 71.7221 17.49V20.88C71.7221 20.9133 71.7088 20.9433 71.6821 20.97C71.6621 20.99 71.6354 21 71.6021 21H70.4321C70.3988 21 70.3688 20.99 70.3421 20.97C70.3221 20.9433 70.3121 20.9133 70.3121 20.88V20.55C70.3121 20.53 70.3054 20.5167 70.2921 20.51C70.2788 20.5033 70.2654 20.51 70.2521 20.53C69.9721 20.8967 69.5221 21.08 68.9021 21.08C68.3821 21.08 67.9621 20.9533 67.6421 20.7C67.3221 20.4467 67.1621 20.0733 67.1621 19.58C67.1621 19.0667 67.3421 18.67 67.7021 18.39C68.0621 18.1033 68.5754 17.96 69.2421 17.96H70.2621C70.2954 17.96 70.3121 17.9433 70.3121 17.91V17.69C70.3121 17.47 70.2454 17.3 70.1121 17.18C69.9788 17.0533 69.7788 16.99 69.5121 16.99C69.3054 16.99 69.1321 17.0267 68.9921 17.1C68.8588 17.1733 68.7721 17.2767 68.7321 17.41C68.7121 17.4833 68.6688 17.5167 68.6021 17.51L67.3921 17.35C67.3121 17.3367 67.2754 17.3067 67.2821 17.26C67.3088 16.98 67.4188 16.7267 67.6121 16.5C67.8121 16.2733 68.0721 16.0967 68.3921 15.97C68.7188 15.8433 69.0821 15.78 69.4821 15.78ZM69.2821 20.03C69.5688 20.03 69.8121 19.9533 70.0121 19.8C70.2121 19.6467 70.3121 19.45 70.3121 19.21V18.85C70.3121 18.8167 70.2954 18.8 70.2621 18.8H69.5421C69.2421 18.8 69.0054 18.8567 68.8321 18.97C68.6654 19.0833 68.5821 19.2433 68.5821 19.45C68.5821 19.63 68.6454 19.7733 68.7721 19.88C68.8988 19.98 69.0688 20.03 69.2821 20.03ZM75.2753 15.79C75.5153 15.79 75.7053 15.8367 75.8453 15.93C75.8986 15.9567 75.9186 16.0067 75.9053 16.08L75.6953 17.22C75.6886 17.3 75.642 17.3233 75.5553 17.29C75.4553 17.2567 75.3386 17.24 75.2053 17.24C75.152 17.24 75.0786 17.2467 74.9853 17.26C74.7453 17.28 74.542 17.37 74.3753 17.53C74.2086 17.6833 74.1253 17.89 74.1253 18.15V20.88C74.1253 20.9133 74.112 20.9433 74.0853 20.97C74.0653 20.99 74.0386 21 74.0053 21H72.8353C72.802 21 72.772 20.99 72.7453 20.97C72.7253 20.9433 72.7153 20.9133 72.7153 20.88V15.98C72.7153 15.9467 72.7253 15.92 72.7453 15.9C72.772 15.8733 72.802 15.86 72.8353 15.86H74.0053C74.0386 15.86 74.0653 15.8733 74.0853 15.9C74.112 15.92 74.1253 15.9467 74.1253 15.98V16.36C74.1253 16.38 74.132 16.3933 74.1453 16.4C74.1586 16.4067 74.1686 16.4033 74.1753 16.39C74.4486 15.99 74.8153 15.79 75.2753 15.79ZM79.4491 15.98C79.4491 15.9467 79.4591 15.92 79.4791 15.9C79.5057 15.8733 79.5357 15.86 79.5691 15.86H80.7391C80.7724 15.86 80.7991 15.8733 80.8191 15.9C80.8457 15.92 80.8591 15.9467 80.8591 15.98V20.54C80.8591 21.4133 80.6057 22.0367 80.0991 22.41C79.5991 22.7833 78.9524 22.97 78.1591 22.97C77.9257 22.97 77.6657 22.9533 77.3791 22.92C77.3124 22.9133 77.2791 22.87 77.2791 22.79L77.3191 21.76C77.3191 21.6733 77.3657 21.6367 77.4591 21.65C77.6991 21.69 77.9191 21.71 78.1191 21.71C78.5457 21.71 78.8724 21.6167 79.0991 21.43C79.3324 21.2433 79.4491 20.9433 79.4491 20.53C79.4491 20.51 79.4424 20.5 79.4291 20.5C79.4157 20.4933 79.4024 20.4967 79.3891 20.51C79.1357 20.7833 78.7657 20.92 78.2791 20.92C77.8457 20.92 77.4457 20.8167 77.0791 20.61C76.7191 20.3967 76.4624 20.0567 76.3091 19.59C76.2091 19.2833 76.1591 18.8867 76.1591 18.4C76.1591 17.88 76.2191 17.4567 76.3391 17.13C76.4791 16.7233 76.7157 16.3967 77.0491 16.15C77.3824 15.9033 77.7691 15.78 78.2091 15.78C78.7224 15.78 79.1157 15.9333 79.3891 16.24C79.4024 16.2533 79.4157 16.26 79.4291 16.26C79.4424 16.2533 79.4491 16.24 79.4491 16.22V15.98ZM79.3691 19.21C79.4224 19.01 79.4491 18.7367 79.4491 18.39C79.4491 18.1833 79.4424 18.0233 79.4291 17.91C79.4157 17.7967 79.3924 17.69 79.3591 17.59C79.2991 17.41 79.1991 17.2667 79.0591 17.16C78.9191 17.0467 78.7457 16.99 78.5391 16.99C78.3391 16.99 78.1691 17.0467 78.0291 17.16C77.8891 17.2667 77.7857 17.41 77.7191 17.59C77.6257 17.79 77.5791 18.06 77.5791 18.4C77.5791 18.7733 77.6191 19.04 77.6991 19.2C77.7591 19.38 77.8624 19.5267 78.0091 19.64C78.1624 19.7467 78.3424 19.8 78.5491 19.8C78.7624 19.8 78.9391 19.7467 79.0791 19.64C79.2191 19.5267 79.3157 19.3833 79.3691 19.21ZM83.9157 15.78C84.349 15.78 84.7357 15.8567 85.0757 16.01C85.4157 16.1567 85.679 16.36 85.8657 16.62C86.059 16.88 86.1557 17.17 86.1557 17.49V20.88C86.1557 20.9133 86.1424 20.9433 86.1157 20.97C86.0957 20.99 86.069 21 86.0357 21H84.8657C84.8324 21 84.8024 20.99 84.7757 20.97C84.7557 20.9433 84.7457 20.9133 84.7457 20.88V20.55C84.7457 20.53 84.739 20.5167 84.7257 20.51C84.7124 20.5033 84.699 20.51 84.6857 20.53C84.4057 20.8967 83.9557 21.08 83.3357 21.08C82.8157 21.08 82.3957 20.9533 82.0757 20.7C81.7557 20.4467 81.5957 20.0733 81.5957 19.58C81.5957 19.0667 81.7757 18.67 82.1357 18.39C82.4957 18.1033 83.009 17.96 83.6757 17.96H84.6957C84.729 17.96 84.7457 17.9433 84.7457 17.91V17.69C84.7457 17.47 84.679 17.3 84.5457 17.18C84.4124 17.0533 84.2124 16.99 83.9457 16.99C83.739 16.99 83.5657 17.0267 83.4257 17.1C83.2924 17.1733 83.2057 17.2767 83.1657 17.41C83.1457 17.4833 83.1024 17.5167 83.0357 17.51L81.8257 17.35C81.7457 17.3367 81.709 17.3067 81.7157 17.26C81.7424 16.98 81.8524 16.7267 82.0457 16.5C82.2457 16.2733 82.5057 16.0967 82.8257 15.97C83.1524 15.8433 83.5157 15.78 83.9157 15.78ZM83.7157 20.03C84.0024 20.03 84.2457 19.9533 84.4457 19.8C84.6457 19.6467 84.7457 19.45 84.7457 19.21V18.85C84.7457 18.8167 84.729 18.8 84.6957 18.8H83.9757C83.6757 18.8 83.439 18.8567 83.2657 18.97C83.099 19.0833 83.0157 19.2433 83.0157 19.45C83.0157 19.63 83.079 19.7733 83.2057 19.88C83.3324 19.98 83.5024 20.03 83.7157 20.03ZM89.8289 15.78C90.3622 15.78 90.7922 15.9433 91.1189 16.27C91.4456 16.5967 91.6089 17.04 91.6089 17.6V20.88C91.6089 20.9133 91.5956 20.9433 91.5689 20.97C91.5489 20.99 91.5222 21 91.4889 21H90.3189C90.2856 21 90.2556 20.99 90.2289 20.97C90.2089 20.9433 90.1989 20.9133 90.1989 20.88V17.89C90.1989 17.6233 90.1222 17.4067 89.9689 17.24C89.8222 17.0733 89.6256 16.99 89.3789 16.99C89.1322 16.99 88.9322 17.0733 88.7789 17.24C88.6322 17.4067 88.5589 17.6233 88.5589 17.89V20.88C88.5589 20.9133 88.5456 20.9433 88.5189 20.97C88.4989 20.99 88.4722 21 88.4389 21H87.2689C87.2356 21 87.2056 20.99 87.1789 20.97C87.1589 20.9433 87.1489 20.9133 87.1489 20.88V15.98C87.1489 15.9467 87.1589 15.92 87.1789 15.9C87.2056 15.8733 87.2356 15.86 87.2689 15.86H88.4389C88.4722 15.86 88.4989 15.8733 88.5189 15.9C88.5456 15.92 88.5589 15.9467 88.5589 15.98V16.33C88.5589 16.35 88.5656 16.3633 88.5789 16.37C88.5922 16.3767 88.6022 16.3733 88.6089 16.36C88.8822 15.9733 89.2889 15.78 89.8289 15.78ZM92.363 22.99C92.343 22.99 92.3264 22.9767 92.313 22.95C92.2997 22.93 92.293 22.9033 92.293 22.87V21.95C92.293 21.9167 92.303 21.8867 92.323 21.86C92.3497 21.84 92.3797 21.83 92.413 21.83C92.693 21.8233 92.913 21.8 93.073 21.76C93.2397 21.72 93.3697 21.6433 93.463 21.53C93.563 21.4167 93.6397 21.25 93.693 21.03C93.6997 21.0167 93.6997 20.9967 93.693 20.97L92.053 15.99C92.0464 15.9767 92.043 15.96 92.043 15.94C92.043 15.88 92.0797 15.85 92.153 15.85H93.403C93.4764 15.85 93.523 15.8833 93.543 15.95L94.383 19.19C94.3897 19.21 94.3997 19.22 94.413 19.22C94.4264 19.22 94.4364 19.21 94.443 19.19L95.283 15.95C95.303 15.8833 95.3497 15.85 95.423 15.85H96.643C96.683 15.85 96.7097 15.8633 96.723 15.89C96.743 15.91 96.7464 15.9433 96.733 15.99L95.003 21.19C94.8364 21.6767 94.6664 22.04 94.493 22.28C94.3197 22.5267 94.0764 22.7067 93.763 22.82C93.4497 22.9333 93.0064 22.99 92.433 22.99H92.363ZM99.2087 15.78C99.642 15.78 100.029 15.8567 100.369 16.01C100.709 16.1567 100.972 16.36 101.159 16.62C101.352 16.88 101.449 17.17 101.449 17.49V20.88C101.449 20.9133 101.435 20.9433 101.409 20.97C101.389 20.99 101.362 21 101.329 21H100.159C100.125 21 100.095 20.99 100.069 20.97C100.049 20.9433 100.039 20.9133 100.039 20.88V20.55C100.039 20.53 100.032 20.5167 100.019 20.51C100.005 20.5033 99.992 20.51 99.9787 20.53C99.6987 20.8967 99.2487 21.08 98.6287 21.08C98.1087 21.08 97.6887 20.9533 97.3687 20.7C97.0487 20.4467 96.8887 20.0733 96.8887 19.58C96.8887 19.0667 97.0687 18.67 97.4287 18.39C97.7887 18.1033 98.302 17.96 98.9687 17.96H99.9887C100.022 17.96 100.039 17.9433 100.039 17.91V17.69C100.039 17.47 99.972 17.3 99.8387 17.18C99.7053 17.0533 99.5053 16.99 99.2387 16.99C99.032 16.99 98.8587 17.0267 98.7187 17.1C98.5853 17.1733 98.4987 17.2767 98.4587 17.41C98.4387 17.4833 98.3953 17.5167 98.3287 17.51L97.1187 17.35C97.0387 17.3367 97.002 17.3067 97.0087 17.26C97.0353 16.98 97.1453 16.7267 97.3387 16.5C97.5387 16.2733 97.7987 16.0967 98.1187 15.97C98.4453 15.8433 98.8087 15.78 99.2087 15.78ZM99.0087 20.03C99.2953 20.03 99.5387 19.9533 99.7387 19.8C99.9387 19.6467 100.039 19.45 100.039 19.21V18.85C100.039 18.8167 100.022 18.8 99.9887 18.8H99.2687C98.9687 18.8 98.732 18.8567 98.5587 18.97C98.392 19.0833 98.3087 19.2433 98.3087 19.45C98.3087 19.63 98.372 19.7733 98.4987 19.88C98.6253 19.98 98.7953 20.03 99.0087 20.03ZM110.144 15.78C110.664 15.78 111.07 15.9367 111.364 16.25C111.657 16.5633 111.804 17.0033 111.804 17.57V20.88C111.804 20.9133 111.79 20.9433 111.764 20.97C111.744 20.99 111.717 21 111.684 21H110.514C110.48 21 110.45 20.99 110.424 20.97C110.404 20.9433 110.394 20.9133 110.394 20.88V17.88C110.394 17.6067 110.324 17.39 110.184 17.23C110.044 17.07 109.857 16.99 109.624 16.99C109.39 16.99 109.2 17.07 109.054 17.23C108.907 17.39 108.834 17.6033 108.834 17.87V20.88C108.834 20.9133 108.82 20.9433 108.794 20.97C108.774 20.99 108.747 21 108.714 21H107.554C107.52 21 107.49 20.99 107.464 20.97C107.444 20.9433 107.434 20.9133 107.434 20.88V17.88C107.434 17.6133 107.36 17.4 107.214 17.24C107.067 17.0733 106.877 16.99 106.644 16.99C106.43 16.99 106.25 17.0533 106.104 17.18C105.964 17.3067 105.88 17.4833 105.854 17.71V20.88C105.854 20.9133 105.84 20.9433 105.814 20.97C105.794 20.99 105.767 21 105.734 21H104.564C104.53 21 104.5 20.99 104.474 20.97C104.454 20.9433 104.444 20.9133 104.444 20.88V15.98C104.444 15.9467 104.454 15.92 104.474 15.9C104.5 15.8733 104.53 15.86 104.564 15.86H105.734C105.767 15.86 105.794 15.8733 105.814 15.9C105.84 15.92 105.854 15.9467 105.854 15.98V16.37C105.854 16.39 105.86 16.4033 105.874 16.41C105.887 16.4167 105.9 16.41 105.914 16.39C106.187 15.9833 106.61 15.78 107.184 15.78C107.517 15.78 107.807 15.85 108.054 15.99C108.307 16.13 108.5 16.33 108.634 16.59C108.654 16.63 108.677 16.63 108.704 16.59C108.85 16.3167 109.047 16.1133 109.294 15.98C109.547 15.8467 109.83 15.78 110.144 15.78ZM115.793 15.98C115.793 15.9467 115.803 15.92 115.823 15.9C115.85 15.8733 115.88 15.86 115.913 15.86H117.083C117.117 15.86 117.143 15.8733 117.163 15.9C117.19 15.92 117.203 15.9467 117.203 15.98V20.88C117.203 20.9133 117.19 20.9433 117.163 20.97C117.143 20.99 117.117 21 117.083 21H115.913C115.88 21 115.85 20.99 115.823 20.97C115.803 20.9433 115.793 20.9133 115.793 20.88V20.54C115.793 20.52 115.787 20.51 115.773 20.51C115.76 20.5033 115.747 20.51 115.733 20.53C115.467 20.89 115.053 21.07 114.493 21.07C113.987 21.07 113.57 20.9167 113.243 20.61C112.917 20.3033 112.753 19.8733 112.753 19.32V15.98C112.753 15.9467 112.763 15.92 112.783 15.9C112.81 15.8733 112.84 15.86 112.873 15.86H114.033C114.067 15.86 114.093 15.8733 114.113 15.9C114.14 15.92 114.153 15.9467 114.153 15.98V18.97C114.153 19.2367 114.223 19.4533 114.363 19.62C114.51 19.7867 114.71 19.87 114.963 19.87C115.19 19.87 115.377 19.8033 115.523 19.67C115.67 19.53 115.76 19.35 115.793 19.13V15.98ZM120.803 15.79C121.043 15.79 121.233 15.8367 121.373 15.93C121.426 15.9567 121.446 16.0067 121.433 16.08L121.223 17.22C121.216 17.3 121.169 17.3233 121.083 17.29C120.983 17.2567 120.866 17.24 120.733 17.24C120.679 17.24 120.606 17.2467 120.513 17.26C120.273 17.28 120.069 17.37 119.903 17.53C119.736 17.6833 119.653 17.89 119.653 18.15V20.88C119.653 20.9133 119.639 20.9433 119.613 20.97C119.593 20.99 119.566 21 119.533 21H118.363C118.329 21 118.299 20.99 118.273 20.97C118.253 20.9433 118.243 20.9133 118.243 20.88V15.98C118.243 15.9467 118.253 15.92 118.273 15.9C118.299 15.8733 118.329 15.86 118.363 15.86H119.533C119.566 15.86 119.593 15.8733 119.613 15.9C119.639 15.92 119.653 15.9467 119.653 15.98V16.36C119.653 16.38 119.659 16.3933 119.673 16.4C119.686 16.4067 119.696 16.4033 119.703 16.39C119.976 15.99 120.343 15.79 120.803 15.79ZM124.062 15.78C124.496 15.78 124.882 15.8567 125.222 16.01C125.562 16.1567 125.826 16.36 126.012 16.62C126.206 16.88 126.302 17.17 126.302 17.49V20.88C126.302 20.9133 126.289 20.9433 126.262 20.97C126.242 20.99 126.216 21 126.182 21H125.012C124.979 21 124.949 20.99 124.922 20.97C124.902 20.9433 124.892 20.9133 124.892 20.88V20.55C124.892 20.53 124.886 20.5167 124.872 20.51C124.859 20.5033 124.846 20.51 124.832 20.53C124.552 20.8967 124.102 21.08 123.482 21.08C122.962 21.08 122.542 20.9533 122.222 20.7C121.902 20.4467 121.742 20.0733 121.742 19.58C121.742 19.0667 121.922 18.67 122.282 18.39C122.642 18.1033 123.156 17.96 123.822 17.96H124.842C124.876 17.96 124.892 17.9433 124.892 17.91V17.69C124.892 17.47 124.826 17.3 124.692 17.18C124.559 17.0533 124.359 16.99 124.092 16.99C123.886 16.99 123.712 17.0267 123.572 17.1C123.439 17.1733 123.352 17.2767 123.312 17.41C123.292 17.4833 123.249 17.5167 123.182 17.51L121.972 17.35C121.892 17.3367 121.856 17.3067 121.862 17.26C121.889 16.98 121.999 16.7267 122.192 16.5C122.392 16.2733 122.652 16.0967 122.972 15.97C123.299 15.8433 123.662 15.78 124.062 15.78ZM123.862 20.03C124.149 20.03 124.392 19.9533 124.592 19.8C124.792 19.6467 124.892 19.45 124.892 19.21V18.85C124.892 18.8167 124.876 18.8 124.842 18.8H124.122C123.822 18.8 123.586 18.8567 123.412 18.97C123.246 19.0833 123.162 19.2433 123.162 19.45C123.162 19.63 123.226 19.7733 123.352 19.88C123.479 19.98 123.649 20.03 123.862 20.03ZM129.975 15.78C130.509 15.78 130.939 15.9433 131.265 16.27C131.592 16.5967 131.755 17.04 131.755 17.6V20.88C131.755 20.9133 131.742 20.9433 131.715 20.97C131.695 20.99 131.669 21 131.635 21H130.465C130.432 21 130.402 20.99 130.375 20.97C130.355 20.9433 130.345 20.9133 130.345 20.88V17.89C130.345 17.6233 130.269 17.4067 130.115 17.24C129.969 17.0733 129.772 16.99 129.525 16.99C129.279 16.99 129.079 17.0733 128.925 17.24C128.779 17.4067 128.705 17.6233 128.705 17.89V20.88C128.705 20.9133 128.692 20.9433 128.665 20.97C128.645 20.99 128.619 21 128.585 21H127.415C127.382 21 127.352 20.99 127.325 20.97C127.305 20.9433 127.295 20.9133 127.295 20.88V14.12C127.295 14.0867 127.305 14.06 127.325 14.04C127.352 14.0133 127.382 14 127.415 14H128.585C128.619 14 128.645 14.0133 128.665 14.04C128.692 14.06 128.705 14.0867 128.705 14.12V16.33C128.705 16.35 128.712 16.3633 128.725 16.37C128.739 16.3767 128.749 16.3733 128.755 16.36C129.029 15.9733 129.435 15.78 129.975 15.78ZM139.316 17.17C139.443 17.5167 139.506 17.93 139.506 18.41C139.506 18.87 139.449 19.2733 139.336 19.62C139.183 20.0733 138.936 20.43 138.596 20.69C138.263 20.95 137.866 21.08 137.406 21.08C136.919 21.08 136.536 20.8967 136.256 20.53C136.243 20.5167 136.229 20.5133 136.216 20.52C136.203 20.52 136.196 20.53 136.196 20.55V20.88C136.196 20.9133 136.183 20.9433 136.156 20.97C136.136 20.99 136.109 21 136.076 21H134.906C134.873 21 134.843 20.99 134.816 20.97C134.796 20.9433 134.786 20.9133 134.786 20.88V14.12C134.786 14.0867 134.796 14.06 134.816 14.04C134.843 14.0133 134.873 14 134.906 14H136.076C136.109 14 136.136 14.0133 136.156 14.04C136.183 14.06 136.196 14.0867 136.196 14.12V16.26C136.196 16.28 136.203 16.2933 136.216 16.3C136.229 16.3067 136.243 16.3 136.256 16.28C136.516 15.9467 136.886 15.78 137.366 15.78C137.853 15.78 138.259 15.9067 138.586 16.16C138.919 16.4067 139.163 16.7433 139.316 17.17ZM137.836 19.44C137.976 19.1867 138.046 18.8533 138.046 18.44C138.046 17.98 137.966 17.6267 137.806 17.38C137.646 17.12 137.409 16.99 137.096 16.99C136.803 16.99 136.579 17.12 136.426 17.38C136.279 17.6333 136.206 17.9833 136.206 18.43C136.206 18.8767 136.273 19.2133 136.406 19.44C136.566 19.7267 136.799 19.87 137.106 19.87C137.433 19.87 137.676 19.7267 137.836 19.44ZM142.48 15.78C142.913 15.78 143.3 15.8567 143.64 16.01C143.98 16.1567 144.243 16.36 144.43 16.62C144.623 16.88 144.72 17.17 144.72 17.49V20.88C144.72 20.9133 144.707 20.9433 144.68 20.97C144.66 20.99 144.633 21 144.6 21H143.43C143.397 21 143.367 20.99 143.34 20.97C143.32 20.9433 143.31 20.9133 143.31 20.88V20.55C143.31 20.53 143.303 20.5167 143.29 20.51C143.277 20.5033 143.263 20.51 143.25 20.53C142.97 20.8967 142.52 21.08 141.9 21.08C141.38 21.08 140.96 20.9533 140.64 20.7C140.32 20.4467 140.16 20.0733 140.16 19.58C140.16 19.0667 140.34 18.67 140.7 18.39C141.06 18.1033 141.573 17.96 142.24 17.96H143.26C143.293 17.96 143.31 17.9433 143.31 17.91V17.69C143.31 17.47 143.243 17.3 143.11 17.18C142.977 17.0533 142.777 16.99 142.51 16.99C142.303 16.99 142.13 17.0267 141.99 17.1C141.857 17.1733 141.77 17.2767 141.73 17.41C141.71 17.4833 141.667 17.5167 141.6 17.51L140.39 17.35C140.31 17.3367 140.273 17.3067 140.28 17.26C140.307 16.98 140.417 16.7267 140.61 16.5C140.81 16.2733 141.07 16.0967 141.39 15.97C141.717 15.8433 142.08 15.78 142.48 15.78ZM142.28 20.03C142.567 20.03 142.81 19.9533 143.01 19.8C143.21 19.6467 143.31 19.45 143.31 19.21V18.85C143.31 18.8167 143.293 18.8 143.26 18.8H142.54C142.24 18.8 142.003 18.8567 141.83 18.97C141.663 19.0833 141.58 19.2433 141.58 19.45C141.58 19.63 141.643 19.7733 141.77 19.88C141.897 19.98 142.067 20.03 142.28 20.03ZM148.393 15.78C148.927 15.78 149.357 15.9433 149.683 16.27C150.01 16.5967 150.173 17.04 150.173 17.6V20.88C150.173 20.9133 150.16 20.9433 150.133 20.97C150.113 20.99 150.087 21 150.053 21H148.883C148.85 21 148.82 20.99 148.793 20.97C148.773 20.9433 148.763 20.9133 148.763 20.88V17.89C148.763 17.6233 148.687 17.4067 148.533 17.24C148.387 17.0733 148.19 16.99 147.943 16.99C147.697 16.99 147.497 17.0733 147.343 17.24C147.197 17.4067 147.123 17.6233 147.123 17.89V20.88C147.123 20.9133 147.11 20.9433 147.083 20.97C147.063 20.99 147.037 21 147.003 21H145.833C145.8 21 145.77 20.99 145.743 20.97C145.723 20.9433 145.713 20.9133 145.713 20.88V15.98C145.713 15.9467 145.723 15.92 145.743 15.9C145.77 15.8733 145.8 15.86 145.833 15.86H147.003C147.037 15.86 147.063 15.8733 147.083 15.9C147.11 15.92 147.123 15.9467 147.123 15.98V16.33C147.123 16.35 147.13 16.3633 147.143 16.37C147.157 16.3767 147.167 16.3733 147.173 16.36C147.447 15.9733 147.853 15.78 148.393 15.78ZM154.322 15.98C154.322 15.9467 154.332 15.92 154.352 15.9C154.379 15.8733 154.409 15.86 154.442 15.86H155.612C155.645 15.86 155.672 15.8733 155.692 15.9C155.719 15.92 155.732 15.9467 155.732 15.98V20.54C155.732 21.4133 155.479 22.0367 154.972 22.41C154.472 22.7833 153.825 22.97 153.032 22.97C152.799 22.97 152.539 22.9533 152.252 22.92C152.185 22.9133 152.152 22.87 152.152 22.79L152.192 21.76C152.192 21.6733 152.239 21.6367 152.332 21.65C152.572 21.69 152.792 21.71 152.992 21.71C153.419 21.71 153.745 21.6167 153.972 21.43C154.205 21.2433 154.322 20.9433 154.322 20.53C154.322 20.51 154.315 20.5 154.302 20.5C154.289 20.4933 154.275 20.4967 154.262 20.51C154.009 20.7833 153.639 20.92 153.152 20.92C152.719 20.92 152.319 20.8167 151.952 20.61C151.592 20.3967 151.335 20.0567 151.182 19.59C151.082 19.2833 151.032 18.8867 151.032 18.4C151.032 17.88 151.092 17.4567 151.212 17.13C151.352 16.7233 151.589 16.3967 151.922 16.15C152.255 15.9033 152.642 15.78 153.082 15.78C153.595 15.78 153.989 15.9333 154.262 16.24C154.275 16.2533 154.289 16.26 154.302 16.26C154.315 16.2533 154.322 16.24 154.322 16.22V15.98ZM154.242 19.21C154.295 19.01 154.322 18.7367 154.322 18.39C154.322 18.1833 154.315 18.0233 154.302 17.91C154.289 17.7967 154.265 17.69 154.232 17.59C154.172 17.41 154.072 17.2667 153.932 17.16C153.792 17.0467 153.619 16.99 153.412 16.99C153.212 16.99 153.042 17.0467 152.902 17.16C152.762 17.2667 152.659 17.41 152.592 17.59C152.499 17.79 152.452 18.06 152.452 18.4C152.452 18.7733 152.492 19.04 152.572 19.2C152.632 19.38 152.735 19.5267 152.882 19.64C153.035 19.7467 153.215 19.8 153.422 19.8C153.635 19.8 153.812 19.7467 153.952 19.64C154.092 19.5267 154.189 19.3833 154.242 19.21ZM161.289 17.9C161.329 18.1533 161.342 18.4367 161.329 18.75C161.322 18.83 161.279 18.87 161.199 18.87H158.109C158.069 18.87 158.055 18.8867 158.069 18.92C158.089 19.0533 158.125 19.1867 158.179 19.32C158.352 19.6933 158.705 19.88 159.239 19.88C159.665 19.8733 160.002 19.7 160.249 19.36C160.275 19.32 160.305 19.3 160.339 19.3C160.359 19.3 160.382 19.3133 160.409 19.34L161.129 20.05C161.162 20.0833 161.179 20.1133 161.179 20.14C161.179 20.1533 161.165 20.18 161.139 20.22C160.919 20.4933 160.635 20.7067 160.289 20.86C159.942 21.0067 159.562 21.08 159.149 21.08C158.575 21.08 158.089 20.95 157.689 20.69C157.295 20.43 157.012 20.0667 156.839 19.6C156.699 19.2667 156.629 18.83 156.629 18.29C156.629 17.9233 156.679 17.6 156.779 17.32C156.932 16.8467 157.199 16.47 157.579 16.19C157.965 15.91 158.422 15.77 158.949 15.77C159.615 15.77 160.149 15.9633 160.549 16.35C160.955 16.7367 161.202 17.2533 161.289 17.9ZM158.959 16.99C158.539 16.99 158.262 17.1867 158.129 17.58C158.102 17.6667 158.079 17.7733 158.059 17.9C158.059 17.9333 158.075 17.95 158.109 17.95H159.839C159.879 17.95 159.892 17.9333 159.879 17.9C159.845 17.7067 159.829 17.6133 159.829 17.62C159.769 17.42 159.662 17.2667 159.509 17.16C159.362 17.0467 159.179 16.99 158.959 16.99ZM165.031 16.87C165.031 16.9033 165.017 16.9333 164.991 16.96C164.971 16.98 164.944 16.99 164.911 16.99H163.951C163.917 16.99 163.901 17.0067 163.901 17.04V19.16C163.901 19.38 163.944 19.5433 164.031 19.65C164.124 19.7567 164.271 19.81 164.471 19.81H164.801C164.834 19.81 164.861 19.8233 164.881 19.85C164.907 19.87 164.921 19.8967 164.921 19.93V20.88C164.921 20.9533 164.881 20.9967 164.801 21.01C164.521 21.0233 164.321 21.03 164.201 21.03C163.647 21.03 163.234 20.94 162.961 20.76C162.687 20.5733 162.547 20.2267 162.541 19.72V17.04C162.541 17.0067 162.524 16.99 162.491 16.99H161.921C161.887 16.99 161.857 16.98 161.831 16.96C161.811 16.9333 161.801 16.9033 161.801 16.87V15.98C161.801 15.9467 161.811 15.92 161.831 15.9C161.857 15.8733 161.887 15.86 161.921 15.86H162.491C162.524 15.86 162.541 15.8433 162.541 15.81V14.62C162.541 14.5867 162.551 14.56 162.571 14.54C162.597 14.5133 162.627 14.5 162.661 14.5H163.781C163.814 14.5 163.841 14.5133 163.861 14.54C163.887 14.56 163.901 14.5867 163.901 14.62V15.81C163.901 15.8433 163.917 15.86 163.951 15.86H164.911C164.944 15.86 164.971 15.8733 164.991 15.9C165.017 15.92 165.031 15.9467 165.031 15.98V16.87ZM168.641 18.6C168.608 18.6 168.578 18.59 168.551 18.57C168.531 18.5433 168.521 18.5133 168.521 18.48L168.391 14.12C168.391 14.0867 168.401 14.06 168.421 14.04C168.448 14.0133 168.478 14 168.511 14H169.681C169.715 14 169.741 14.0133 169.761 14.04C169.788 14.06 169.801 14.0867 169.801 14.12L169.651 18.48C169.651 18.5133 169.638 18.5433 169.611 18.57C169.591 18.59 169.565 18.6 169.531 18.6H168.641ZM169.031 20.99C168.805 20.99 168.615 20.9167 168.461 20.77C168.315 20.6167 168.241 20.4267 168.241 20.2C168.241 19.9667 168.315 19.7767 168.461 19.63C168.608 19.4833 168.798 19.41 169.031 19.41C169.265 19.41 169.451 19.4833 169.591 19.63C169.738 19.7767 169.811 19.9667 169.811 20.2C169.811 20.4267 169.738 20.6167 169.591 20.77C169.445 20.9167 169.258 20.99 169.031 20.99ZM172.079 18.6C172.045 18.6 172.015 18.59 171.989 18.57C171.969 18.5433 171.959 18.5133 171.959 18.48L171.829 14.12C171.829 14.0867 171.839 14.06 171.859 14.04C171.885 14.0133 171.915 14 171.949 14H173.119C173.152 14 173.179 14.0133 173.199 14.04C173.225 14.06 173.239 14.0867 173.239 14.12L173.089 18.48C173.089 18.5133 173.075 18.5433 173.049 18.57C173.029 18.59 173.002 18.6 172.969 18.6H172.079ZM172.469 20.99C172.242 20.99 172.052 20.9167 171.899 20.77C171.752 20.6167 171.679 20.4267 171.679 20.2C171.679 19.9667 171.752 19.7767 171.899 19.63C172.045 19.4833 172.235 19.41 172.469 19.41C172.702 19.41 172.889 19.4833 173.029 19.63C173.175 19.7767 173.249 19.9667 173.249 20.2C173.249 20.4267 173.175 20.6167 173.029 20.77C172.882 20.9167 172.695 20.99 172.469 20.99ZM175.516 18.6C175.483 18.6 175.453 18.59 175.426 18.57C175.406 18.5433 175.396 18.5133 175.396 18.48L175.266 14.12C175.266 14.0867 175.276 14.06 175.296 14.04C175.323 14.0133 175.353 14 175.386 14H176.556C176.59 14 176.616 14.0133 176.636 14.04C176.663 14.06 176.676 14.0867 176.676 14.12L176.526 18.48C176.526 18.5133 176.513 18.5433 176.486 18.57C176.466 18.59 176.44 18.6 176.406 18.6H175.516ZM175.906 20.99C175.68 20.99 175.49 20.9167 175.336 20.77C175.19 20.6167 175.116 20.4267 175.116 20.2C175.116 19.9667 175.19 19.7767 175.336 19.63C175.483 19.4833 175.673 19.41 175.906 19.41C176.14 19.41 176.326 19.4833 176.466 19.63C176.613 19.7767 176.686 19.9667 176.686 20.2C176.686 20.4267 176.613 20.6167 176.466 20.77C176.32 20.9167 176.133 20.99 175.906 20.99ZM178.194 21.98C178.114 21.98 178.077 21.9367 178.084 21.85L178.414 19.53C178.42 19.4567 178.464 19.42 178.544 19.42H179.564C179.65 19.42 179.684 19.4633 179.664 19.55L179.044 21.88C179.024 21.9467 178.977 21.98 178.904 21.98H178.194ZM187.432 14.08C187.466 14.0267 187.512 14 187.572 14H188.742C188.776 14 188.802 14.0133 188.822 14.04C188.849 14.06 188.862 14.0867 188.862 14.12V20.88C188.862 20.9133 188.849 20.9433 188.822 20.97C188.802 20.99 188.776 21 188.742 21H187.572C187.539 21 187.509 20.99 187.482 20.97C187.462 20.9433 187.452 20.9133 187.452 20.88V16.47C187.452 16.4433 187.446 16.43 187.432 16.43C187.419 16.43 187.406 16.44 187.392 16.46L186.332 18.12C186.299 18.1733 186.252 18.2 186.192 18.2H185.602C185.542 18.2 185.496 18.1733 185.462 18.12L184.402 16.46C184.389 16.44 184.376 16.4333 184.362 16.44C184.349 16.44 184.342 16.4533 184.342 16.48V20.88C184.342 20.9133 184.329 20.9433 184.302 20.97C184.282 20.99 184.256 21 184.222 21H183.052C183.019 21 182.989 20.99 182.962 20.97C182.942 20.9433 182.932 20.9133 182.932 20.88V14.12C182.932 14.0867 182.942 14.06 182.962 14.04C182.989 14.0133 183.019 14 183.052 14H184.222C184.282 14 184.329 14.0267 184.362 14.08L185.862 16.41C185.882 16.45 185.902 16.45 185.922 16.41L187.432 14.08ZM192.991 15.98C192.991 15.9467 193.001 15.92 193.021 15.9C193.047 15.8733 193.077 15.86 193.111 15.86H194.281C194.314 15.86 194.341 15.8733 194.361 15.9C194.387 15.92 194.401 15.9467 194.401 15.98V20.88C194.401 20.9133 194.387 20.9433 194.361 20.97C194.341 20.99 194.314 21 194.281 21H193.111C193.077 21 193.047 20.99 193.021 20.97C193.001 20.9433 192.991 20.9133 192.991 20.88V20.54C192.991 20.52 192.984 20.51 192.971 20.51C192.957 20.5033 192.944 20.51 192.931 20.53C192.664 20.89 192.251 21.07 191.691 21.07C191.184 21.07 190.767 20.9167 190.441 20.61C190.114 20.3033 189.951 19.8733 189.951 19.32V15.98C189.951 15.9467 189.961 15.92 189.981 15.9C190.007 15.8733 190.037 15.86 190.071 15.86H191.231C191.264 15.86 191.291 15.8733 191.311 15.9C191.337 15.92 191.351 15.9467 191.351 15.98V18.97C191.351 19.2367 191.421 19.4533 191.561 19.62C191.707 19.7867 191.907 19.87 192.161 19.87C192.387 19.87 192.574 19.8033 192.721 19.67C192.867 19.53 192.957 19.35 192.991 19.13V15.98ZM195.56 21C195.527 21 195.497 20.99 195.47 20.97C195.45 20.9433 195.44 20.9133 195.44 20.88V14.12C195.44 14.0867 195.45 14.06 195.47 14.04C195.497 14.0133 195.527 14 195.56 14H196.73C196.763 14 196.79 14.0133 196.81 14.04C196.837 14.06 196.85 14.0867 196.85 14.12V20.88C196.85 20.9133 196.837 20.9433 196.81 20.97C196.79 20.99 196.763 21 196.73 21H195.56ZM199.931 15.78C200.365 15.78 200.751 15.8567 201.091 16.01C201.431 16.1567 201.695 16.36 201.881 16.62C202.075 16.88 202.171 17.17 202.171 17.49V20.88C202.171 20.9133 202.158 20.9433 202.131 20.97C202.111 20.99 202.085 21 202.051 21H200.881C200.848 21 200.818 20.99 200.791 20.97C200.771 20.9433 200.761 20.9133 200.761 20.88V20.55C200.761 20.53 200.755 20.5167 200.741 20.51C200.728 20.5033 200.715 20.51 200.701 20.53C200.421 20.8967 199.971 21.08 199.351 21.08C198.831 21.08 198.411 20.9533 198.091 20.7C197.771 20.4467 197.611 20.0733 197.611 19.58C197.611 19.0667 197.791 18.67 198.151 18.39C198.511 18.1033 199.025 17.96 199.691 17.96H200.711C200.745 17.96 200.761 17.9433 200.761 17.91V17.69C200.761 17.47 200.695 17.3 200.561 17.18C200.428 17.0533 200.228 16.99 199.961 16.99C199.755 16.99 199.581 17.0267 199.441 17.1C199.308 17.1733 199.221 17.2767 199.181 17.41C199.161 17.4833 199.118 17.5167 199.051 17.51L197.841 17.35C197.761 17.3367 197.725 17.3067 197.731 17.26C197.758 16.98 197.868 16.7267 198.061 16.5C198.261 16.2733 198.521 16.0967 198.841 15.97C199.168 15.8433 199.531 15.78 199.931 15.78ZM199.731 20.03C200.018 20.03 200.261 19.9533 200.461 19.8C200.661 19.6467 200.761 19.45 200.761 19.21V18.85C200.761 18.8167 200.745 18.8 200.711 18.8H199.991C199.691 18.8 199.455 18.8567 199.281 18.97C199.115 19.0833 199.031 19.2433 199.031 19.45C199.031 19.63 199.095 19.7733 199.221 19.88C199.348 19.98 199.518 20.03 199.731 20.03ZM203.925 15.28C203.698 15.28 203.508 15.2067 203.355 15.06C203.208 14.9067 203.135 14.7167 203.135 14.49C203.135 14.2567 203.208 14.0667 203.355 13.92C203.501 13.7733 203.691 13.7 203.925 13.7C204.158 13.7 204.348 13.7733 204.495 13.92C204.641 14.0667 204.715 14.2567 204.715 14.49C204.715 14.7167 204.638 14.9067 204.485 15.06C204.338 15.2067 204.151 15.28 203.925 15.28ZM203.325 21C203.291 21 203.261 20.99 203.235 20.97C203.215 20.9433 203.205 20.9133 203.205 20.88V15.97C203.205 15.9367 203.215 15.91 203.235 15.89C203.261 15.8633 203.291 15.85 203.325 15.85H204.495C204.528 15.85 204.555 15.8633 204.575 15.89C204.601 15.91 204.615 15.9367 204.615 15.97V20.88C204.615 20.9133 204.601 20.9433 204.575 20.97C204.555 20.99 204.528 21 204.495 21H203.325ZM60.71 29.12C60.71 29.0867 60.72 29.06 60.74 29.04C60.7667 29.0133 60.7967 29 60.83 29H62C62.0333 29 62.06 29.0133 62.08 29.04C62.1067 29.06 62.12 29.0867 62.12 29.12V35.88C62.12 35.9133 62.1067 35.9433 62.08 35.97C62.06 35.99 62.0333 36 62 36H60.83C60.7967 36 60.7667 35.99 60.74 35.97C60.72 35.9433 60.71 35.9133 60.71 35.88V35.55C60.71 35.53 60.7033 35.52 60.69 35.52C60.6767 35.5133 60.6633 35.5167 60.65 35.53C60.37 35.8967 59.9867 36.08 59.5 36.08C59.0333 36.08 58.63 35.95 58.29 35.69C57.9567 35.43 57.7167 35.0733 57.57 34.62C57.4567 34.2733 57.4 33.87 57.4 33.41C57.4 32.9367 57.46 32.5233 57.58 32.17C57.7333 31.7433 57.9733 31.4067 58.3 31.16C58.6333 30.9067 59.0433 30.78 59.53 30.78C60.01 30.78 60.3833 30.9467 60.65 31.28C60.6633 31.3 60.6767 31.3067 60.69 31.3C60.7033 31.2933 60.71 31.28 60.71 31.26V29.12ZM60.5 34.44C60.6333 34.1933 60.7 33.8567 60.7 33.43C60.7 32.9833 60.6267 32.6333 60.48 32.38C60.3267 32.12 60.1033 31.99 59.81 31.99C59.4967 31.99 59.26 32.12 59.1 32.38C58.9333 32.64 58.85 32.9933 58.85 33.44C58.85 33.84 58.92 34.1733 59.06 34.44C59.2267 34.7267 59.4733 34.87 59.8 34.87C60.1 34.87 60.3333 34.7267 60.5 34.44ZM65.2341 30.78C65.6674 30.78 66.0541 30.8567 66.3941 31.01C66.7341 31.1567 66.9974 31.36 67.1841 31.62C67.3774 31.88 67.4741 32.17 67.4741 32.49V35.88C67.4741 35.9133 67.4607 35.9433 67.4341 35.97C67.4141 35.99 67.3874 36 67.3541 36H66.1841C66.1507 36 66.1207 35.99 66.0941 35.97C66.0741 35.9433 66.0641 35.9133 66.0641 35.88V35.55C66.0641 35.53 66.0574 35.5167 66.0441 35.51C66.0307 35.5033 66.0174 35.51 66.0041 35.53C65.7241 35.8967 65.2741 36.08 64.6541 36.08C64.1341 36.08 63.7141 35.9533 63.3941 35.7C63.0741 35.4467 62.9141 35.0733 62.9141 34.58C62.9141 34.0667 63.0941 33.67 63.4541 33.39C63.8141 33.1033 64.3274 32.96 64.9941 32.96H66.0141C66.0474 32.96 66.0641 32.9433 66.0641 32.91V32.69C66.0641 32.47 65.9974 32.3 65.8641 32.18C65.7307 32.0533 65.5307 31.99 65.2641 31.99C65.0574 31.99 64.8841 32.0267 64.7441 32.1C64.6107 32.1733 64.5241 32.2767 64.4841 32.41C64.4641 32.4833 64.4207 32.5167 64.3541 32.51L63.1441 32.35C63.0641 32.3367 63.0274 32.3067 63.0341 32.26C63.0607 31.98 63.1707 31.7267 63.3641 31.5C63.5641 31.2733 63.8241 31.0967 64.1441 30.97C64.4707 30.8433 64.8341 30.78 65.2341 30.78ZM65.0341 35.03C65.3207 35.03 65.5641 34.9533 65.7641 34.8C65.9641 34.6467 66.0641 34.45 66.0641 34.21V33.85C66.0641 33.8167 66.0474 33.8 66.0141 33.8H65.2941C64.9941 33.8 64.7574 33.8567 64.5841 33.97C64.4174 34.0833 64.3341 34.2433 64.3341 34.45C64.3341 34.63 64.3974 34.7733 64.5241 34.88C64.6507 34.98 64.8207 35.03 65.0341 35.03ZM71.0273 30.79C71.2673 30.79 71.4573 30.8367 71.5973 30.93C71.6506 30.9567 71.6706 31.0067 71.6573 31.08L71.4473 32.22C71.4406 32.3 71.3939 32.3233 71.3073 32.29C71.2073 32.2567 71.0906 32.24 70.9573 32.24C70.9039 32.24 70.8306 32.2467 70.7373 32.26C70.4973 32.28 70.2939 32.37 70.1273 32.53C69.9606 32.6833 69.8773 32.89 69.8773 33.15V35.88C69.8773 35.9133 69.8639 35.9433 69.8373 35.97C69.8173 35.99 69.7906 36 69.7573 36H68.5873C68.5539 36 68.5239 35.99 68.4973 35.97C68.4773 35.9433 68.4673 35.9133 68.4673 35.88V30.98C68.4673 30.9467 68.4773 30.92 68.4973 30.9C68.5239 30.8733 68.5539 30.86 68.5873 30.86H69.7573C69.7906 30.86 69.8173 30.8733 69.8373 30.9C69.8639 30.92 69.8773 30.9467 69.8773 30.98V31.36C69.8773 31.38 69.8839 31.3933 69.8973 31.4C69.9106 31.4067 69.9206 31.4033 69.9273 31.39C70.2006 30.99 70.5673 30.79 71.0273 30.79ZM73.0554 30.28C72.8287 30.28 72.6387 30.2067 72.4854 30.06C72.3387 29.9067 72.2654 29.7167 72.2654 29.49C72.2654 29.2567 72.3387 29.0667 72.4854 28.92C72.6321 28.7733 72.8221 28.7 73.0554 28.7C73.2887 28.7 73.4787 28.7733 73.6254 28.92C73.7721 29.0667 73.8454 29.2567 73.8454 29.49C73.8454 29.7167 73.7687 29.9067 73.6154 30.06C73.4687 30.2067 73.2821 30.28 73.0554 30.28ZM72.4554 36C72.4221 36 72.3921 35.99 72.3654 35.97C72.3454 35.9433 72.3354 35.9133 72.3354 35.88V30.97C72.3354 30.9367 72.3454 30.91 72.3654 30.89C72.3921 30.8633 72.4221 30.85 72.4554 30.85H73.6254C73.6587 30.85 73.6854 30.8633 73.7054 30.89C73.7321 30.91 73.7454 30.9367 73.7454 30.97V35.88C73.7454 35.9133 73.7321 35.9433 73.7054 35.97C73.6854 35.99 73.6587 36 73.6254 36H72.4554ZM77.8262 29.03C77.8595 29.01 77.9095 29 77.9762 29H79.1862C79.2195 29 79.2462 29.0133 79.2662 29.04C79.2928 29.06 79.3062 29.0867 79.3062 29.12V35.88C79.3062 35.9133 79.2928 35.9433 79.2662 35.97C79.2462 35.99 79.2195 36 79.1862 36H78.0162C77.9828 36 77.9528 35.99 77.9262 35.97C77.9062 35.9433 77.8962 35.9133 77.8962 35.88V30.4C77.8962 30.3867 77.8895 30.3733 77.8762 30.36C77.8628 30.3467 77.8495 30.3433 77.8362 30.35L76.8462 30.62L76.8062 30.63C76.7462 30.63 76.7162 30.5933 76.7162 30.52L76.6862 29.66C76.6862 29.5933 76.7162 29.5467 76.7762 29.52L77.8262 29.03ZM82.7013 36.11C81.968 36.11 81.388 35.9067 80.9613 35.5C80.5347 35.0867 80.3213 34.5267 80.3213 33.82V31.18C80.3213 30.4867 80.5347 29.9367 80.9613 29.53C81.388 29.1233 81.968 28.92 82.7013 28.92C83.4347 28.92 84.0147 29.1233 84.4413 29.53C84.8747 29.9367 85.0913 30.4867 85.0913 31.18V33.82C85.0913 34.5267 84.8747 35.0867 84.4413 35.5C84.0147 35.9067 83.4347 36.11 82.7013 36.11ZM82.7013 34.9C83.0013 34.9 83.238 34.81 83.4113 34.63C83.5913 34.4433 83.6813 34.1967 83.6813 33.89V31.14C83.6813 30.8333 83.5913 30.59 83.4113 30.41C83.238 30.2233 83.0013 30.13 82.7013 30.13C82.408 30.13 82.1713 30.2233 81.9913 30.41C81.818 30.59 81.7313 30.8333 81.7313 31.14V33.89C81.7313 34.1967 81.818 34.4433 81.9913 34.63C82.1713 34.81 82.408 34.9 82.7013 34.9ZM88.6445 30.79C88.8845 30.79 89.0745 30.8367 89.2145 30.93C89.2678 30.9567 89.2878 31.0067 89.2745 31.08L89.0645 32.22C89.0578 32.3 89.0111 32.3233 88.9245 32.29C88.8245 32.2567 88.7078 32.24 88.5745 32.24C88.5211 32.24 88.4478 32.2467 88.3545 32.26C88.1145 32.28 87.9111 32.37 87.7445 32.53C87.5778 32.6833 87.4945 32.89 87.4945 33.15V35.88C87.4945 35.9133 87.4811 35.9433 87.4545 35.97C87.4345 35.99 87.4078 36 87.3745 36H86.2045C86.1711 36 86.1411 35.99 86.1145 35.97C86.0945 35.9433 86.0845 35.9133 86.0845 35.88V30.98C86.0845 30.9467 86.0945 30.92 86.1145 30.9C86.1411 30.8733 86.1711 30.86 86.2045 30.86H87.3745C87.4078 30.86 87.4345 30.8733 87.4545 30.9C87.4811 30.92 87.4945 30.9467 87.4945 30.98V31.36C87.4945 31.38 87.5011 31.3933 87.5145 31.4C87.5278 31.4067 87.5378 31.4033 87.5445 31.39C87.8178 30.99 88.1845 30.79 88.6445 30.79ZM94.4626 32.17C94.5892 32.5167 94.6526 32.93 94.6526 33.41C94.6526 33.87 94.5959 34.2733 94.4826 34.62C94.3292 35.0733 94.0826 35.43 93.7426 35.69C93.4092 35.95 93.0126 36.08 92.5526 36.08C92.0659 36.08 91.6826 35.8967 91.4026 35.53C91.3892 35.5167 91.3759 35.5133 91.3626 35.52C91.3492 35.52 91.3426 35.53 91.3426 35.55V35.88C91.3426 35.9133 91.3292 35.9433 91.3026 35.97C91.2826 35.99 91.2559 36 91.2226 36H90.0526C90.0192 36 89.9892 35.99 89.9626 35.97C89.9426 35.9433 89.9326 35.9133 89.9326 35.88V29.12C89.9326 29.0867 89.9426 29.06 89.9626 29.04C89.9892 29.0133 90.0192 29 90.0526 29H91.2226C91.2559 29 91.2826 29.0133 91.3026 29.04C91.3292 29.06 91.3426 29.0867 91.3426 29.12V31.26C91.3426 31.28 91.3492 31.2933 91.3626 31.3C91.3759 31.3067 91.3892 31.3 91.4026 31.28C91.6626 30.9467 92.0326 30.78 92.5126 30.78C92.9992 30.78 93.4059 30.9067 93.7326 31.16C94.0659 31.4067 94.3092 31.7433 94.4626 32.17ZM92.9826 34.44C93.1226 34.1867 93.1926 33.8533 93.1926 33.44C93.1926 32.98 93.1126 32.6267 92.9526 32.38C92.7926 32.12 92.5559 31.99 92.2426 31.99C91.9492 31.99 91.7259 32.12 91.5726 32.38C91.4259 32.6333 91.3526 32.9833 91.3526 33.43C91.3526 33.8767 91.4192 34.2133 91.5526 34.44C91.7126 34.7267 91.9459 34.87 92.2526 34.87C92.5792 34.87 92.8226 34.7267 92.9826 34.44ZM100.769 29.12C100.769 29.0867 100.779 29.06 100.799 29.04C100.825 29.0133 100.855 29 100.889 29H102.059C102.092 29 102.119 29.0133 102.139 29.04C102.165 29.06 102.179 29.0867 102.179 29.12V35.88C102.179 35.9133 102.165 35.9433 102.139 35.97C102.119 35.99 102.092 36 102.059 36H100.889C100.855 36 100.825 35.99 100.799 35.97C100.779 35.9433 100.769 35.9133 100.769 35.88V35.55C100.769 35.53 100.762 35.52 100.749 35.52C100.735 35.5133 100.722 35.5167 100.709 35.53C100.429 35.8967 100.045 36.08 99.5586 36.08C99.0919 36.08 98.6886 35.95 98.3486 35.69C98.0153 35.43 97.7753 35.0733 97.6286 34.62C97.5153 34.2733 97.4586 33.87 97.4586 33.41C97.4586 32.9367 97.5186 32.5233 97.6386 32.17C97.7919 31.7433 98.0319 31.4067 98.3586 31.16C98.6919 30.9067 99.1019 30.78 99.5886 30.78C100.069 30.78 100.442 30.9467 100.709 31.28C100.722 31.3 100.735 31.3067 100.749 31.3C100.762 31.2933 100.769 31.28 100.769 31.26V29.12ZM100.559 34.44C100.692 34.1933 100.759 33.8567 100.759 33.43C100.759 32.9833 100.685 32.6333 100.539 32.38C100.385 32.12 100.162 31.99 99.8686 31.99C99.5553 31.99 99.3186 32.12 99.1586 32.38C98.9919 32.64 98.9086 32.9933 98.9086 33.44C98.9086 33.84 98.9786 34.1733 99.1186 34.44C99.2853 34.7267 99.5319 34.87 99.8586 34.87C100.159 34.87 100.392 34.7267 100.559 34.44ZM105.293 30.78C105.726 30.78 106.113 30.8567 106.453 31.01C106.793 31.1567 107.056 31.36 107.243 31.62C107.436 31.88 107.533 32.17 107.533 32.49V35.88C107.533 35.9133 107.519 35.9433 107.493 35.97C107.473 35.99 107.446 36 107.413 36H106.243C106.209 36 106.179 35.99 106.153 35.97C106.133 35.9433 106.123 35.9133 106.123 35.88V35.55C106.123 35.53 106.116 35.5167 106.103 35.51C106.089 35.5033 106.076 35.51 106.063 35.53C105.783 35.8967 105.333 36.08 104.713 36.08C104.193 36.08 103.773 35.9533 103.453 35.7C103.133 35.4467 102.973 35.0733 102.973 34.58C102.973 34.0667 103.153 33.67 103.513 33.39C103.873 33.1033 104.386 32.96 105.053 32.96H106.073C106.106 32.96 106.123 32.9433 106.123 32.91V32.69C106.123 32.47 106.056 32.3 105.923 32.18C105.789 32.0533 105.589 31.99 105.323 31.99C105.116 31.99 104.943 32.0267 104.803 32.1C104.669 32.1733 104.583 32.2767 104.543 32.41C104.523 32.4833 104.479 32.5167 104.413 32.51L103.203 32.35C103.123 32.3367 103.086 32.3067 103.093 32.26C103.119 31.98 103.229 31.7267 103.423 31.5C103.623 31.2733 103.883 31.0967 104.203 30.97C104.529 30.8433 104.893 30.78 105.293 30.78ZM105.093 35.03C105.379 35.03 105.623 34.9533 105.823 34.8C106.023 34.6467 106.123 34.45 106.123 34.21V33.85C106.123 33.8167 106.106 33.8 106.073 33.8H105.353C105.053 33.8 104.816 33.8567 104.643 33.97C104.476 34.0833 104.393 34.2433 104.393 34.45C104.393 34.63 104.456 34.7733 104.583 34.88C104.709 34.98 104.879 35.03 105.093 35.03ZM111.206 30.78C111.739 30.78 112.169 30.9433 112.496 31.27C112.823 31.5967 112.986 32.04 112.986 32.6V35.88C112.986 35.9133 112.973 35.9433 112.946 35.97C112.926 35.99 112.899 36 112.866 36H111.696C111.663 36 111.633 35.99 111.606 35.97C111.586 35.9433 111.576 35.9133 111.576 35.88V32.89C111.576 32.6233 111.499 32.4067 111.346 32.24C111.199 32.0733 111.003 31.99 110.756 31.99C110.509 31.99 110.309 32.0733 110.156 32.24C110.009 32.4067 109.936 32.6233 109.936 32.89V35.88C109.936 35.9133 109.923 35.9433 109.896 35.97C109.876 35.99 109.849 36 109.816 36H108.646C108.613 36 108.583 35.99 108.556 35.97C108.536 35.9433 108.526 35.9133 108.526 35.88V30.98C108.526 30.9467 108.536 30.92 108.556 30.9C108.583 30.8733 108.613 30.86 108.646 30.86H109.816C109.849 30.86 109.876 30.8733 109.896 30.9C109.923 30.92 109.936 30.9467 109.936 30.98V31.33C109.936 31.35 109.943 31.3633 109.956 31.37C109.969 31.3767 109.979 31.3733 109.986 31.36C110.259 30.9733 110.666 30.78 111.206 30.78ZM118.557 30.79C118.797 30.79 118.987 30.8367 119.127 30.93C119.18 30.9567 119.2 31.0067 119.187 31.08L118.977 32.22C118.97 32.3 118.923 32.3233 118.837 32.29C118.737 32.2567 118.62 32.24 118.487 32.24C118.433 32.24 118.36 32.2467 118.267 32.26C118.027 32.28 117.823 32.37 117.657 32.53C117.49 32.6833 117.407 32.89 117.407 33.15V35.88C117.407 35.9133 117.393 35.9433 117.367 35.97C117.347 35.99 117.32 36 117.287 36H116.117C116.083 36 116.053 35.99 116.027 35.97C116.007 35.9433 115.997 35.9133 115.997 35.88V30.98C115.997 30.9467 116.007 30.92 116.027 30.9C116.053 30.8733 116.083 30.86 116.117 30.86H117.287C117.32 30.86 117.347 30.8733 117.367 30.9C117.393 30.92 117.407 30.9467 117.407 30.98V31.36C117.407 31.38 117.413 31.3933 117.427 31.4C117.44 31.4067 117.45 31.4033 117.457 31.39C117.73 30.99 118.097 30.79 118.557 30.79ZM121.816 30.78C122.249 30.78 122.636 30.8567 122.976 31.01C123.316 31.1567 123.579 31.36 123.766 31.62C123.959 31.88 124.056 32.17 124.056 32.49V35.88C124.056 35.9133 124.043 35.9433 124.016 35.97C123.996 35.99 123.969 36 123.936 36H122.766C122.733 36 122.703 35.99 122.676 35.97C122.656 35.9433 122.646 35.9133 122.646 35.88V35.55C122.646 35.53 122.639 35.5167 122.626 35.51C122.613 35.5033 122.599 35.51 122.586 35.53C122.306 35.8967 121.856 36.08 121.236 36.08C120.716 36.08 120.296 35.9533 119.976 35.7C119.656 35.4467 119.496 35.0733 119.496 34.58C119.496 34.0667 119.676 33.67 120.036 33.39C120.396 33.1033 120.909 32.96 121.576 32.96H122.596C122.629 32.96 122.646 32.9433 122.646 32.91V32.69C122.646 32.47 122.579 32.3 122.446 32.18C122.313 32.0533 122.113 31.99 121.846 31.99C121.639 31.99 121.466 32.0267 121.326 32.1C121.193 32.1733 121.106 32.2767 121.066 32.41C121.046 32.4833 121.003 32.5167 120.936 32.51L119.726 32.35C119.646 32.3367 119.609 32.3067 119.616 32.26C119.643 31.98 119.753 31.7267 119.946 31.5C120.146 31.2733 120.406 31.0967 120.726 30.97C121.053 30.8433 121.416 30.78 121.816 30.78ZM121.616 35.03C121.903 35.03 122.146 34.9533 122.346 34.8C122.546 34.6467 122.646 34.45 122.646 34.21V33.85C122.646 33.8167 122.629 33.8 122.596 33.8H121.876C121.576 33.8 121.339 33.8567 121.166 33.97C120.999 34.0833 120.916 34.2433 120.916 34.45C120.916 34.63 120.979 34.7733 121.106 34.88C121.233 34.98 121.403 35.03 121.616 35.03ZM127.099 36.07C126.653 36.07 126.263 36.0067 125.929 35.88C125.596 35.7533 125.336 35.5767 125.149 35.35C124.969 35.1233 124.879 34.8667 124.879 34.58V34.48C124.879 34.4467 124.889 34.42 124.909 34.4C124.936 34.3733 124.966 34.36 124.999 34.36H126.109C126.143 34.36 126.169 34.3733 126.189 34.4C126.216 34.42 126.229 34.4467 126.229 34.48V34.49C126.229 34.6367 126.309 34.7633 126.469 34.87C126.636 34.97 126.843 35.02 127.089 35.02C127.316 35.02 127.499 34.9767 127.639 34.89C127.779 34.7967 127.849 34.6833 127.849 34.55C127.849 34.43 127.789 34.34 127.669 34.28C127.549 34.22 127.353 34.1567 127.079 34.09C126.766 34.01 126.519 33.9333 126.339 33.86C125.913 33.7133 125.573 33.5333 125.319 33.32C125.066 33.1067 124.939 32.8 124.939 32.4C124.939 31.9067 125.129 31.5167 125.509 31.23C125.896 30.9367 126.406 30.79 127.039 30.79C127.466 30.79 127.839 30.86 128.159 31C128.479 31.1333 128.726 31.3233 128.899 31.57C129.079 31.8167 129.169 32.0967 129.169 32.41C129.169 32.4433 129.156 32.4733 129.129 32.5C129.109 32.52 129.083 32.53 129.049 32.53H127.979C127.946 32.53 127.916 32.52 127.889 32.5C127.869 32.4733 127.859 32.4433 127.859 32.41C127.859 32.2633 127.783 32.14 127.629 32.04C127.483 31.94 127.286 31.89 127.039 31.89C126.819 31.89 126.639 31.93 126.499 32.01C126.359 32.09 126.289 32.2 126.289 32.34C126.289 32.4733 126.356 32.5733 126.489 32.64C126.629 32.7067 126.859 32.7767 127.179 32.85C127.253 32.87 127.336 32.8933 127.429 32.92C127.523 32.94 127.623 32.9667 127.729 33C128.203 33.14 128.576 33.32 128.849 33.54C129.123 33.76 129.259 34.08 129.259 34.5C129.259 34.9933 129.063 35.38 128.669 35.66C128.283 35.9333 127.759 36.07 127.099 36.07ZM132.119 30.78C132.552 30.78 132.939 30.8567 133.279 31.01C133.619 31.1567 133.882 31.36 134.069 31.62C134.262 31.88 134.359 32.17 134.359 32.49V35.88C134.359 35.9133 134.345 35.9433 134.319 35.97C134.299 35.99 134.272 36 134.239 36H133.069C133.035 36 133.005 35.99 132.979 35.97C132.959 35.9433 132.949 35.9133 132.949 35.88V35.55C132.949 35.53 132.942 35.5167 132.929 35.51C132.915 35.5033 132.902 35.51 132.889 35.53C132.609 35.8967 132.159 36.08 131.539 36.08C131.019 36.08 130.599 35.9533 130.279 35.7C129.959 35.4467 129.799 35.0733 129.799 34.58C129.799 34.0667 129.979 33.67 130.339 33.39C130.699 33.1033 131.212 32.96 131.879 32.96H132.899C132.932 32.96 132.949 32.9433 132.949 32.91V32.69C132.949 32.47 132.882 32.3 132.749 32.18C132.615 32.0533 132.415 31.99 132.149 31.99C131.942 31.99 131.769 32.0267 131.629 32.1C131.495 32.1733 131.409 32.2767 131.369 32.41C131.349 32.4833 131.305 32.5167 131.239 32.51L130.029 32.35C129.949 32.3367 129.912 32.3067 129.919 32.26C129.945 31.98 130.055 31.7267 130.249 31.5C130.449 31.2733 130.709 31.0967 131.029 30.97C131.355 30.8433 131.719 30.78 132.119 30.78ZM131.919 35.03C132.205 35.03 132.449 34.9533 132.649 34.8C132.849 34.6467 132.949 34.45 132.949 34.21V33.85C132.949 33.8167 132.932 33.8 132.899 33.8H132.179C131.879 33.8 131.642 33.8567 131.469 33.97C131.302 34.0833 131.219 34.2433 131.219 34.45C131.219 34.63 131.282 34.7733 131.409 34.88C131.535 34.98 131.705 35.03 131.919 35.03ZM138.032 30.78C138.565 30.78 138.995 30.9433 139.322 31.27C139.649 31.5967 139.812 32.04 139.812 32.6V35.88C139.812 35.9133 139.799 35.9433 139.772 35.97C139.752 35.99 139.725 36 139.692 36H138.522C138.489 36 138.459 35.99 138.432 35.97C138.412 35.9433 138.402 35.9133 138.402 35.88V32.89C138.402 32.6233 138.325 32.4067 138.172 32.24C138.025 32.0733 137.829 31.99 137.582 31.99C137.335 31.99 137.135 32.0733 136.982 32.24C136.835 32.4067 136.762 32.6233 136.762 32.89V35.88C136.762 35.9133 136.749 35.9433 136.722 35.97C136.702 35.99 136.675 36 136.642 36H135.472C135.439 36 135.409 35.99 135.382 35.97C135.362 35.9433 135.352 35.9133 135.352 35.88V30.98C135.352 30.9467 135.362 30.92 135.382 30.9C135.409 30.8733 135.439 30.86 135.472 30.86H136.642C136.675 30.86 136.702 30.8733 136.722 30.9C136.749 30.92 136.762 30.9467 136.762 30.98V31.33C136.762 31.35 136.769 31.3633 136.782 31.37C136.795 31.3767 136.805 31.3733 136.812 31.36C137.085 30.9733 137.492 30.78 138.032 30.78ZM140.566 37.99C140.546 37.99 140.53 37.9767 140.516 37.95C140.503 37.93 140.496 37.9033 140.496 37.87V36.95C140.496 36.9167 140.506 36.8867 140.526 36.86C140.553 36.84 140.583 36.83 140.616 36.83C140.896 36.8233 141.116 36.8 141.276 36.76C141.443 36.72 141.573 36.6433 141.666 36.53C141.766 36.4167 141.843 36.25 141.896 36.03C141.903 36.0167 141.903 35.9967 141.896 35.97L140.256 30.99C140.25 30.9767 140.246 30.96 140.246 30.94C140.246 30.88 140.283 30.85 140.356 30.85H141.606C141.68 30.85 141.726 30.8833 141.746 30.95L142.586 34.19C142.593 34.21 142.603 34.22 142.616 34.22C142.63 34.22 142.64 34.21 142.646 34.19L143.486 30.95C143.506 30.8833 143.553 30.85 143.626 30.85H144.846C144.886 30.85 144.913 30.8633 144.926 30.89C144.946 30.91 144.95 30.9433 144.936 30.99L143.206 36.19C143.04 36.6767 142.87 37.04 142.696 37.28C142.523 37.5267 142.28 37.7067 141.966 37.82C141.653 37.9333 141.21 37.99 140.636 37.99H140.566ZM147.412 30.78C147.845 30.78 148.232 30.8567 148.572 31.01C148.912 31.1567 149.175 31.36 149.362 31.62C149.555 31.88 149.652 32.17 149.652 32.49V35.88C149.652 35.9133 149.638 35.9433 149.612 35.97C149.592 35.99 149.565 36 149.532 36H148.362C148.328 36 148.298 35.99 148.272 35.97C148.252 35.9433 148.242 35.9133 148.242 35.88V35.55C148.242 35.53 148.235 35.5167 148.222 35.51C148.208 35.5033 148.195 35.51 148.182 35.53C147.902 35.8967 147.452 36.08 146.832 36.08C146.312 36.08 145.892 35.9533 145.572 35.7C145.252 35.4467 145.092 35.0733 145.092 34.58C145.092 34.0667 145.272 33.67 145.632 33.39C145.992 33.1033 146.505 32.96 147.172 32.96H148.192C148.225 32.96 148.242 32.9433 148.242 32.91V32.69C148.242 32.47 148.175 32.3 148.042 32.18C147.908 32.0533 147.708 31.99 147.442 31.99C147.235 31.99 147.062 32.0267 146.922 32.1C146.788 32.1733 146.702 32.2767 146.662 32.41C146.642 32.4833 146.598 32.5167 146.532 32.51L145.322 32.35C145.242 32.3367 145.205 32.3067 145.212 32.26C145.238 31.98 145.348 31.7267 145.542 31.5C145.742 31.2733 146.002 31.0967 146.322 30.97C146.648 30.8433 147.012 30.78 147.412 30.78ZM147.212 35.03C147.498 35.03 147.742 34.9533 147.942 34.8C148.142 34.6467 148.242 34.45 148.242 34.21V33.85C148.242 33.8167 148.225 33.8 148.192 33.8H147.472C147.172 33.8 146.935 33.8567 146.762 33.97C146.595 34.0833 146.512 34.2433 146.512 34.45C146.512 34.63 146.575 34.7733 146.702 34.88C146.828 34.98 146.998 35.03 147.212 35.03ZM157.197 32.9C157.237 33.1533 157.25 33.4367 157.237 33.75C157.23 33.83 157.187 33.87 157.107 33.87H154.017C153.977 33.87 153.964 33.8867 153.977 33.92C153.997 34.0533 154.034 34.1867 154.087 34.32C154.26 34.6933 154.614 34.88 155.147 34.88C155.574 34.8733 155.91 34.7 156.157 34.36C156.184 34.32 156.214 34.3 156.247 34.3C156.267 34.3 156.29 34.3133 156.317 34.34L157.037 35.05C157.07 35.0833 157.087 35.1133 157.087 35.14C157.087 35.1533 157.074 35.18 157.047 35.22C156.827 35.4933 156.544 35.7067 156.197 35.86C155.85 36.0067 155.47 36.08 155.057 36.08C154.484 36.08 153.997 35.95 153.597 35.69C153.204 35.43 152.92 35.0667 152.747 34.6C152.607 34.2667 152.537 33.83 152.537 33.29C152.537 32.9233 152.587 32.6 152.687 32.32C152.84 31.8467 153.107 31.47 153.487 31.19C153.874 30.91 154.33 30.77 154.857 30.77C155.524 30.77 156.057 30.9633 156.457 31.35C156.864 31.7367 157.11 32.2533 157.197 32.9ZM154.867 31.99C154.447 31.99 154.17 32.1867 154.037 32.58C154.01 32.6667 153.987 32.7733 153.967 32.9C153.967 32.9333 153.984 32.95 154.017 32.95H155.747C155.787 32.95 155.8 32.9333 155.787 32.9C155.754 32.7067 155.737 32.6133 155.737 32.62C155.677 32.42 155.57 32.2667 155.417 32.16C155.27 32.0467 155.087 31.99 154.867 31.99ZM160.786 30.78C161.319 30.78 161.749 30.9433 162.076 31.27C162.403 31.5967 162.566 32.04 162.566 32.6V35.88C162.566 35.9133 162.553 35.9433 162.526 35.97C162.506 35.99 162.479 36 162.446 36H161.276C161.243 36 161.213 35.99 161.186 35.97C161.166 35.9433 161.156 35.9133 161.156 35.88V32.89C161.156 32.6233 161.079 32.4067 160.926 32.24C160.779 32.0733 160.583 31.99 160.336 31.99C160.089 31.99 159.889 32.0733 159.736 32.24C159.589 32.4067 159.516 32.6233 159.516 32.89V35.88C159.516 35.9133 159.503 35.9433 159.476 35.97C159.456 35.99 159.429 36 159.396 36H158.226C158.193 36 158.163 35.99 158.136 35.97C158.116 35.9433 158.106 35.9133 158.106 35.88V30.98C158.106 30.9467 158.116 30.92 158.136 30.9C158.163 30.8733 158.193 30.86 158.226 30.86H159.396C159.429 30.86 159.456 30.8733 159.476 30.9C159.503 30.92 159.516 30.9467 159.516 30.98V31.33C159.516 31.35 159.523 31.3633 159.536 31.37C159.549 31.3767 159.559 31.3733 159.566 31.36C159.839 30.9733 160.246 30.78 160.786 30.78ZM165.625 30.78C166.058 30.78 166.445 30.8567 166.785 31.01C167.125 31.1567 167.388 31.36 167.575 31.62C167.768 31.88 167.865 32.17 167.865 32.49V35.88C167.865 35.9133 167.851 35.9433 167.825 35.97C167.805 35.99 167.778 36 167.745 36H166.575C166.541 36 166.511 35.99 166.485 35.97C166.465 35.9433 166.455 35.9133 166.455 35.88V35.55C166.455 35.53 166.448 35.5167 166.435 35.51C166.421 35.5033 166.408 35.51 166.395 35.53C166.115 35.8967 165.665 36.08 165.045 36.08C164.525 36.08 164.105 35.9533 163.785 35.7C163.465 35.4467 163.305 35.0733 163.305 34.58C163.305 34.0667 163.485 33.67 163.845 33.39C164.205 33.1033 164.718 32.96 165.385 32.96H166.405C166.438 32.96 166.455 32.9433 166.455 32.91V32.69C166.455 32.47 166.388 32.3 166.255 32.18C166.121 32.0533 165.921 31.99 165.655 31.99C165.448 31.99 165.275 32.0267 165.135 32.1C165.001 32.1733 164.915 32.2767 164.875 32.41C164.855 32.4833 164.811 32.5167 164.745 32.51L163.535 32.35C163.455 32.3367 163.418 32.3067 163.425 32.26C163.451 31.98 163.561 31.7267 163.755 31.5C163.955 31.2733 164.215 31.0967 164.535 30.97C164.861 30.8433 165.225 30.78 165.625 30.78ZM165.425 35.03C165.711 35.03 165.955 34.9533 166.155 34.8C166.355 34.6467 166.455 34.45 166.455 34.21V33.85C166.455 33.8167 166.438 33.8 166.405 33.8H165.685C165.385 33.8 165.148 33.8567 164.975 33.97C164.808 34.0833 164.725 34.2433 164.725 34.45C164.725 34.63 164.788 34.7733 164.915 34.88C165.041 34.98 165.211 35.03 165.425 35.03ZM168.978 36C168.945 36 168.915 35.99 168.888 35.97C168.868 35.9433 168.858 35.9133 168.858 35.88V29.12C168.858 29.0867 168.868 29.06 168.888 29.04C168.915 29.0133 168.945 29 168.978 29H170.148C170.181 29 170.208 29.0133 170.228 29.04C170.255 29.06 170.268 29.0867 170.268 29.12V32.49C170.268 32.51 170.275 32.5233 170.288 32.53C170.301 32.53 170.315 32.5233 170.328 32.51L171.688 30.93C171.735 30.8833 171.785 30.86 171.838 30.86H173.168C173.235 30.86 173.268 30.8833 173.268 30.93C173.268 30.95 173.258 30.9767 173.238 31.01L171.968 32.62C171.955 32.6467 171.951 32.67 171.958 32.69L173.448 35.86C173.461 35.8867 173.468 35.9067 173.468 35.92C173.468 35.9733 173.431 36 173.358 36H172.128C172.061 36 172.015 35.97 171.988 35.91L170.998 33.57C170.991 33.5567 170.978 33.55 170.958 33.55C170.945 33.5433 170.935 33.5467 170.928 33.56L170.288 34.36C170.275 34.3867 170.268 34.4067 170.268 34.42V35.88C170.268 35.9133 170.255 35.9433 170.228 35.97C170.208 35.99 170.181 36 170.148 36H168.978ZM180.742 32.17C180.869 32.5167 180.932 32.93 180.932 33.41C180.932 33.87 180.875 34.2733 180.762 34.62C180.609 35.0733 180.362 35.43 180.022 35.69C179.689 35.95 179.292 36.08 178.832 36.08C178.345 36.08 177.962 35.8967 177.682 35.53C177.669 35.5167 177.655 35.5133 177.642 35.52C177.629 35.52 177.622 35.53 177.622 35.55V35.88C177.622 35.9133 177.609 35.9433 177.582 35.97C177.562 35.99 177.535 36 177.502 36H176.332C176.299 36 176.269 35.99 176.242 35.97C176.222 35.9433 176.212 35.9133 176.212 35.88V29.12C176.212 29.0867 176.222 29.06 176.242 29.04C176.269 29.0133 176.299 29 176.332 29H177.502C177.535 29 177.562 29.0133 177.582 29.04C177.609 29.06 177.622 29.0867 177.622 29.12V31.26C177.622 31.28 177.629 31.2933 177.642 31.3C177.655 31.3067 177.669 31.3 177.682 31.28C177.942 30.9467 178.312 30.78 178.792 30.78C179.279 30.78 179.685 30.9067 180.012 31.16C180.345 31.4067 180.589 31.7433 180.742 32.17ZM179.262 34.44C179.402 34.1867 179.472 33.8533 179.472 33.44C179.472 32.98 179.392 32.6267 179.232 32.38C179.072 32.12 178.835 31.99 178.522 31.99C178.229 31.99 178.005 32.12 177.852 32.38C177.705 32.6333 177.632 32.9833 177.632 33.43C177.632 33.8767 177.699 34.2133 177.832 34.44C177.992 34.7267 178.225 34.87 178.532 34.87C178.859 34.87 179.102 34.7267 179.262 34.44ZM183.906 30.78C184.339 30.78 184.726 30.8567 185.066 31.01C185.406 31.1567 185.669 31.36 185.856 31.62C186.049 31.88 186.146 32.17 186.146 32.49V35.88C186.146 35.9133 186.133 35.9433 186.106 35.97C186.086 35.99 186.059 36 186.026 36H184.856C184.823 36 184.793 35.99 184.766 35.97C184.746 35.9433 184.736 35.9133 184.736 35.88V35.55C184.736 35.53 184.729 35.5167 184.716 35.51C184.703 35.5033 184.689 35.51 184.676 35.53C184.396 35.8967 183.946 36.08 183.326 36.08C182.806 36.08 182.386 35.9533 182.066 35.7C181.746 35.4467 181.586 35.0733 181.586 34.58C181.586 34.0667 181.766 33.67 182.126 33.39C182.486 33.1033 182.999 32.96 183.666 32.96H184.686C184.719 32.96 184.736 32.9433 184.736 32.91V32.69C184.736 32.47 184.669 32.3 184.536 32.18C184.403 32.0533 184.203 31.99 183.936 31.99C183.729 31.99 183.556 32.0267 183.416 32.1C183.283 32.1733 183.196 32.2767 183.156 32.41C183.136 32.4833 183.093 32.5167 183.026 32.51L181.816 32.35C181.736 32.3367 181.699 32.3067 181.706 32.26C181.733 31.98 181.843 31.7267 182.036 31.5C182.236 31.2733 182.496 31.0967 182.816 30.97C183.143 30.8433 183.506 30.78 183.906 30.78ZM183.706 35.03C183.993 35.03 184.236 34.9533 184.436 34.8C184.636 34.6467 184.736 34.45 184.736 34.21V33.85C184.736 33.8167 184.719 33.8 184.686 33.8H183.966C183.666 33.8 183.429 33.8567 183.256 33.97C183.089 34.0833 183.006 34.2433 183.006 34.45C183.006 34.63 183.069 34.7733 183.196 34.88C183.323 34.98 183.493 35.03 183.706 35.03ZM189.819 30.78C190.352 30.78 190.782 30.9433 191.109 31.27C191.436 31.5967 191.599 32.04 191.599 32.6V35.88C191.599 35.9133 191.586 35.9433 191.559 35.97C191.539 35.99 191.512 36 191.479 36H190.309C190.276 36 190.246 35.99 190.219 35.97C190.199 35.9433 190.189 35.9133 190.189 35.88V32.89C190.189 32.6233 190.112 32.4067 189.959 32.24C189.812 32.0733 189.616 31.99 189.369 31.99C189.122 31.99 188.922 32.0733 188.769 32.24C188.622 32.4067 188.549 32.6233 188.549 32.89V35.88C188.549 35.9133 188.536 35.9433 188.509 35.97C188.489 35.99 188.462 36 188.429 36H187.259C187.226 36 187.196 35.99 187.169 35.97C187.149 35.9433 187.139 35.9133 187.139 35.88V30.98C187.139 30.9467 187.149 30.92 187.169 30.9C187.196 30.8733 187.226 30.86 187.259 30.86H188.429C188.462 30.86 188.489 30.8733 188.509 30.9C188.536 30.92 188.549 30.9467 188.549 30.98V31.33C188.549 31.35 188.556 31.3633 188.569 31.37C188.582 31.3767 188.592 31.3733 188.599 31.36C188.872 30.9733 189.279 30.78 189.819 30.78ZM195.748 30.98C195.748 30.9467 195.758 30.92 195.778 30.9C195.805 30.8733 195.835 30.86 195.868 30.86H197.038C197.071 30.86 197.098 30.8733 197.118 30.9C197.145 30.92 197.158 30.9467 197.158 30.98V35.54C197.158 36.4133 196.905 37.0367 196.398 37.41C195.898 37.7833 195.251 37.97 194.458 37.97C194.225 37.97 193.965 37.9533 193.678 37.92C193.611 37.9133 193.578 37.87 193.578 37.79L193.618 36.76C193.618 36.6733 193.665 36.6367 193.758 36.65C193.998 36.69 194.218 36.71 194.418 36.71C194.845 36.71 195.171 36.6167 195.398 36.43C195.631 36.2433 195.748 35.9433 195.748 35.53C195.748 35.51 195.741 35.5 195.728 35.5C195.715 35.4933 195.701 35.4967 195.688 35.51C195.435 35.7833 195.065 35.92 194.578 35.92C194.145 35.92 193.745 35.8167 193.378 35.61C193.018 35.3967 192.761 35.0567 192.608 34.59C192.508 34.2833 192.458 33.8867 192.458 33.4C192.458 32.88 192.518 32.4567 192.638 32.13C192.778 31.7233 193.015 31.3967 193.348 31.15C193.681 30.9033 194.068 30.78 194.508 30.78C195.021 30.78 195.415 30.9333 195.688 31.24C195.701 31.2533 195.715 31.26 195.728 31.26C195.741 31.2533 195.748 31.24 195.748 31.22V30.98ZM195.668 34.21C195.721 34.01 195.748 33.7367 195.748 33.39C195.748 33.1833 195.741 33.0233 195.728 32.91C195.715 32.7967 195.691 32.69 195.658 32.59C195.598 32.41 195.498 32.2667 195.358 32.16C195.218 32.0467 195.045 31.99 194.838 31.99C194.638 31.99 194.468 32.0467 194.328 32.16C194.188 32.2667 194.085 32.41 194.018 32.59C193.925 32.79 193.878 33.06 193.878 33.4C193.878 33.7733 193.918 34.04 193.998 34.2C194.058 34.38 194.161 34.5267 194.308 34.64C194.461 34.7467 194.641 34.8 194.848 34.8C195.061 34.8 195.238 34.7467 195.378 34.64C195.518 34.5267 195.615 34.3833 195.668 34.21ZM202.715 32.9C202.755 33.1533 202.768 33.4367 202.755 33.75C202.748 33.83 202.705 33.87 202.625 33.87H199.535C199.495 33.87 199.481 33.8867 199.495 33.92C199.515 34.0533 199.551 34.1867 199.605 34.32C199.778 34.6933 200.131 34.88 200.665 34.88C201.091 34.8733 201.428 34.7 201.675 34.36C201.701 34.32 201.731 34.3 201.765 34.3C201.785 34.3 201.808 34.3133 201.835 34.34L202.555 35.05C202.588 35.0833 202.605 35.1133 202.605 35.14C202.605 35.1533 202.591 35.18 202.565 35.22C202.345 35.4933 202.061 35.7067 201.715 35.86C201.368 36.0067 200.988 36.08 200.575 36.08C200.001 36.08 199.515 35.95 199.115 35.69C198.721 35.43 198.438 35.0667 198.265 34.6C198.125 34.2667 198.055 33.83 198.055 33.29C198.055 32.9233 198.105 32.6 198.205 32.32C198.358 31.8467 198.625 31.47 199.005 31.19C199.391 30.91 199.848 30.77 200.375 30.77C201.041 30.77 201.575 30.9633 201.975 31.35C202.381 31.7367 202.628 32.2533 202.715 32.9ZM200.385 31.99C199.965 31.99 199.688 32.1867 199.555 32.58C199.528 32.6667 199.505 32.7733 199.485 32.9C199.485 32.9333 199.501 32.95 199.535 32.95H201.265C201.305 32.95 201.318 32.9333 201.305 32.9C201.271 32.7067 201.255 32.6133 201.255 32.62C201.195 32.42 201.088 32.2667 200.935 32.16C200.788 32.0467 200.605 31.99 200.385 31.99ZM206.456 31.87C206.456 31.9033 206.443 31.9333 206.416 31.96C206.396 31.98 206.37 31.99 206.336 31.99H205.376C205.343 31.99 205.326 32.0067 205.326 32.04V34.16C205.326 34.38 205.37 34.5433 205.456 34.65C205.55 34.7567 205.696 34.81 205.896 34.81H206.226C206.26 34.81 206.286 34.8233 206.306 34.85C206.333 34.87 206.346 34.8967 206.346 34.93V35.88C206.346 35.9533 206.306 35.9967 206.226 36.01C205.946 36.0233 205.746 36.03 205.626 36.03C205.073 36.03 204.66 35.94 204.386 35.76C204.113 35.5733 203.973 35.2267 203.966 34.72V32.04C203.966 32.0067 203.95 31.99 203.916 31.99H203.346C203.313 31.99 203.283 31.98 203.256 31.96C203.236 31.9333 203.226 31.9033 203.226 31.87V30.98C203.226 30.9467 203.236 30.92 203.256 30.9C203.283 30.8733 203.313 30.86 203.346 30.86H203.916C203.95 30.86 203.966 30.8433 203.966 30.81V29.62C203.966 29.5867 203.976 29.56 203.996 29.54C204.023 29.5133 204.053 29.5 204.086 29.5H205.206C205.24 29.5 205.266 29.5133 205.286 29.54C205.313 29.56 205.326 29.5867 205.326 29.62V30.81C205.326 30.8433 205.343 30.86 205.376 30.86H206.336C206.37 30.86 206.396 30.8733 206.416 30.9C206.443 30.92 206.456 30.9467 206.456 30.98V31.87ZM208.495 29C208.535 29 208.565 29.0133 208.585 29.04C208.605 29.06 208.608 29.0933 208.595 29.14L207.885 31.16C207.865 31.2267 207.822 31.26 207.755 31.26H206.915C206.828 31.26 206.795 31.2167 206.815 31.13L207.255 29.11C207.268 29.0367 207.312 29 207.385 29H208.495ZM210.265 29C210.305 29 210.335 29.0133 210.355 29.04C210.375 29.06 210.378 29.0933 210.365 29.14L209.645 31.16C209.625 31.2267 209.582 31.26 209.515 31.26H208.675C208.582 31.26 208.545 31.2167 208.565 31.13L209.025 29.11C209.045 29.0367 209.088 29 209.155 29H210.265Z" fill="#F3FEB0"/>
<circle cx="21.5" cy="25.5" r="20.5" fill="#705E78" stroke="#F3FEB0" stroke-width="2"/>
<path d="M13.1969 23.2733L12.25 22.3643L18.9464 16L19.8263 16.9096L19.0322 17.6721L26.7277 23.9213L27.8768 22.8188L28.8237 23.7143L25.0355 27.3638L31 33.0891L30.0558 34L24.0886 28.2728L20.2857 31.9094L19.3529 31.0004L20.502 29.8973L13.9904 22.5109L13.1969 23.2733Z" fill="#F3FEB0"/>
</svg>
