<svg width="348" height="72" viewBox="0 0 348 72" fill="none" xmlns="http://www.w3.org/2000/svg">
<rect x="1.5" y="1.5" width="320" height="69" fill="#705E78" stroke="#F3FEB0" stroke-width="3"/>
<path d="M54.837 18.364C54.781 18.364 54.739 18.35 54.711 18.322C54.683 18.2847 54.6783 18.2333 54.697 18.168L55.705 15.34C55.733 15.2467 55.7936 15.2 55.887 15.2H57.063C57.1936 15.2 57.245 15.2607 57.217 15.382L56.573 18.21C56.545 18.3127 56.4843 18.364 56.391 18.364H54.837ZM57.315 18.364C57.259 18.364 57.217 18.35 57.189 18.322C57.161 18.2847 57.1563 18.2333 57.175 18.168L58.169 15.34C58.197 15.2467 58.2576 15.2 58.351 15.2H59.527C59.6483 15.2 59.695 15.2607 59.667 15.382L59.051 18.21C59.0323 18.3127 58.9716 18.364 58.869 18.364H57.315ZM64.6129 15.186C65.2289 15.186 65.7702 15.312 66.2369 15.564C66.7036 15.816 67.0629 16.1753 67.3149 16.642C67.5762 17.0993 67.7069 17.6267 67.7069 18.224C67.7069 18.812 67.5716 19.33 67.3009 19.778C67.0396 20.226 66.6662 20.576 66.1809 20.828C65.7049 21.0707 65.1542 21.192 64.5289 21.192H62.5409C62.4942 21.192 62.4709 21.2153 62.4709 21.262V24.832C62.4709 24.8787 62.4522 24.9207 62.4149 24.958C62.3869 24.986 62.3496 25 62.3029 25H60.6649C60.6182 25 60.5762 24.986 60.5389 24.958C60.5109 24.9207 60.4969 24.8787 60.4969 24.832V15.354C60.4969 15.3073 60.5109 15.27 60.5389 15.242C60.5762 15.2047 60.6182 15.186 60.6649 15.186H64.6129ZM64.3189 19.61C64.7482 19.61 65.0936 19.4887 65.3549 19.246C65.6162 18.994 65.7469 18.6673 65.7469 18.266C65.7469 17.8553 65.6162 17.524 65.3549 17.272C65.0936 17.02 64.7482 16.894 64.3189 16.894H62.5409C62.4942 16.894 62.4709 16.9173 62.4709 16.964V19.54C62.4709 19.5867 62.4942 19.61 62.5409 19.61H64.3189ZM69.8584 16.992C69.5411 16.992 69.2751 16.8893 69.0604 16.684C68.8551 16.4693 68.7524 16.2033 68.7524 15.886C68.7524 15.5593 68.8551 15.2933 69.0604 15.088C69.2657 14.8827 69.5317 14.78 69.8584 14.78C70.1851 14.78 70.4511 14.8827 70.6564 15.088C70.8617 15.2933 70.9644 15.5593 70.9644 15.886C70.9644 16.2033 70.8571 16.4693 70.6424 16.684C70.4371 16.8893 70.1757 16.992 69.8584 16.992ZM69.0184 25C68.9717 25 68.9297 24.986 68.8924 24.958C68.8644 24.9207 68.8504 24.8787 68.8504 24.832V17.958C68.8504 17.9113 68.8644 17.874 68.8924 17.846C68.9297 17.8087 68.9717 17.79 69.0184 17.79H70.6564C70.7031 17.79 70.7404 17.8087 70.7684 17.846C70.8057 17.874 70.8244 17.9113 70.8244 17.958V24.832C70.8244 24.8787 70.8057 24.9207 70.7684 24.958C70.7404 24.986 70.7031 25 70.6564 25H69.0184ZM72.5308 25C72.4841 25 72.4421 24.986 72.4048 24.958C72.3768 24.9207 72.3628 24.8787 72.3628 24.832V15.368C72.3628 15.3213 72.3768 15.284 72.4048 15.256C72.4421 15.2187 72.4841 15.2 72.5308 15.2H74.1688C74.2154 15.2 74.2528 15.2187 74.2808 15.256C74.3181 15.284 74.3368 15.3213 74.3368 15.368V24.832C74.3368 24.8787 74.3181 24.9207 74.2808 24.958C74.2528 24.986 74.2154 25 74.1688 25H72.5308ZM76.8447 16.992C76.5274 16.992 76.2614 16.8893 76.0467 16.684C75.8414 16.4693 75.7387 16.2033 75.7387 15.886C75.7387 15.5593 75.8414 15.2933 76.0467 15.088C76.2521 14.8827 76.5181 14.78 76.8447 14.78C77.1714 14.78 77.4374 14.8827 77.6427 15.088C77.8481 15.2933 77.9507 15.5593 77.9507 15.886C77.9507 16.2033 77.8434 16.4693 77.6287 16.684C77.4234 16.8893 77.1621 16.992 76.8447 16.992ZM76.0047 25C75.9581 25 75.9161 24.986 75.8787 24.958C75.8507 24.9207 75.8367 24.8787 75.8367 24.832V17.958C75.8367 17.9113 75.8507 17.874 75.8787 17.846C75.9161 17.8087 75.9581 17.79 76.0047 17.79H77.6427C77.6894 17.79 77.7267 17.8087 77.7547 17.846C77.7921 17.874 77.8107 17.9113 77.8107 17.958V24.832C77.8107 24.8787 77.7921 24.9207 77.7547 24.958C77.7267 24.986 77.6894 25 77.6427 25H76.0047ZM83.1011 17.692C83.8478 17.692 84.4498 17.9207 84.9071 18.378C85.3644 18.8353 85.5931 19.456 85.5931 20.24V24.832C85.5931 24.8787 85.5744 24.9207 85.5371 24.958C85.5091 24.986 85.4718 25 85.4251 25H83.7871C83.7404 25 83.6984 24.986 83.6611 24.958C83.6331 24.9207 83.6191 24.8787 83.6191 24.832V20.646C83.6191 20.2727 83.5118 19.9693 83.2971 19.736C83.0918 19.5027 82.8164 19.386 82.4711 19.386C82.1258 19.386 81.8458 19.5027 81.6311 19.736C81.4258 19.9693 81.3231 20.2727 81.3231 20.646V24.832C81.3231 24.8787 81.3044 24.9207 81.2671 24.958C81.2391 24.986 81.2018 25 81.1551 25H79.5171C79.4704 25 79.4284 24.986 79.3911 24.958C79.3631 24.9207 79.3491 24.8787 79.3491 24.832V15.368C79.3491 15.3213 79.3631 15.284 79.3911 15.256C79.4284 15.2187 79.4704 15.2 79.5171 15.2H81.1551C81.2018 15.2 81.2391 15.2187 81.2671 15.256C81.3044 15.284 81.3231 15.3213 81.3231 15.368V18.462C81.3231 18.49 81.3324 18.5087 81.3511 18.518C81.3698 18.5273 81.3838 18.5227 81.3931 18.504C81.7758 17.9627 82.3451 17.692 83.1011 17.692ZM89.8753 17.692C90.482 17.692 91.0233 17.7993 91.4993 18.014C91.9753 18.2193 92.344 18.504 92.6053 18.868C92.876 19.232 93.0113 19.638 93.0113 20.086V24.832C93.0113 24.8787 92.9927 24.9207 92.9553 24.958C92.9273 24.986 92.89 25 92.8433 25H91.2053C91.1587 25 91.1167 24.986 91.0793 24.958C91.0513 24.9207 91.0373 24.8787 91.0373 24.832V24.37C91.0373 24.342 91.028 24.3233 91.0093 24.314C90.9907 24.3047 90.972 24.314 90.9533 24.342C90.5613 24.8553 89.9313 25.112 89.0633 25.112C88.3353 25.112 87.7473 24.9347 87.2993 24.58C86.8513 24.2253 86.6273 23.7027 86.6273 23.012C86.6273 22.2933 86.8793 21.738 87.3833 21.346C87.8873 20.9447 88.606 20.744 89.5393 20.744H90.9673C91.014 20.744 91.0373 20.7207 91.0373 20.674V20.366C91.0373 20.058 90.944 19.82 90.7573 19.652C90.5707 19.4747 90.2907 19.386 89.9173 19.386C89.628 19.386 89.3853 19.4373 89.1893 19.54C89.0027 19.6427 88.8813 19.7873 88.8253 19.974C88.7973 20.0767 88.7367 20.1233 88.6433 20.114L86.9493 19.89C86.8373 19.8713 86.786 19.8293 86.7953 19.764C86.8327 19.372 86.9867 19.0173 87.2573 18.7C87.5373 18.3827 87.9013 18.1353 88.3493 17.958C88.8067 17.7807 89.3153 17.692 89.8753 17.692ZM89.5953 23.642C89.9967 23.642 90.3373 23.5347 90.6173 23.32C90.8973 23.1053 91.0373 22.83 91.0373 22.494V21.99C91.0373 21.9433 91.014 21.92 90.9673 21.92H89.9593C89.5393 21.92 89.208 21.9993 88.9653 22.158C88.732 22.3167 88.6153 22.5407 88.6153 22.83C88.6153 23.082 88.704 23.2827 88.8813 23.432C89.0587 23.572 89.2967 23.642 89.5953 23.642ZM98.1538 17.692C98.9005 17.692 99.5025 17.9207 99.9598 18.378C100.417 18.8353 100.646 19.456 100.646 20.24V24.832C100.646 24.8787 100.627 24.9207 100.59 24.958C100.562 24.986 100.524 25 100.478 25H98.8398C98.7932 25 98.7512 24.986 98.7138 24.958C98.6858 24.9207 98.6718 24.8787 98.6718 24.832V20.646C98.6718 20.2727 98.5645 19.9693 98.3498 19.736C98.1445 19.5027 97.8692 19.386 97.5238 19.386C97.1785 19.386 96.8985 19.5027 96.6838 19.736C96.4785 19.9693 96.3758 20.2727 96.3758 20.646V24.832C96.3758 24.8787 96.3572 24.9207 96.3198 24.958C96.2918 24.986 96.2545 25 96.2078 25H94.5698C94.5232 25 94.4812 24.986 94.4438 24.958C94.4158 24.9207 94.4018 24.8787 94.4018 24.832V17.972C94.4018 17.9253 94.4158 17.888 94.4438 17.86C94.4812 17.8227 94.5232 17.804 94.5698 17.804H96.2078C96.2545 17.804 96.2918 17.8227 96.3198 17.86C96.3572 17.888 96.3758 17.9253 96.3758 17.972V18.462C96.3758 18.49 96.3852 18.5087 96.4038 18.518C96.4225 18.5273 96.4365 18.5227 96.4458 18.504C96.8285 17.9627 97.3978 17.692 98.1538 17.692ZM108.445 17.706C108.781 17.706 109.047 17.7713 109.243 17.902C109.317 17.9393 109.345 18.0093 109.327 18.112L109.033 19.708C109.023 19.82 108.958 19.8527 108.837 19.806C108.697 19.7593 108.533 19.736 108.347 19.736C108.272 19.736 108.169 19.7453 108.039 19.764C107.703 19.792 107.418 19.918 107.185 20.142C106.951 20.3567 106.835 20.646 106.835 21.01V24.832C106.835 24.8787 106.816 24.9207 106.779 24.958C106.751 24.986 106.713 25 106.667 25H105.029C104.982 25 104.94 24.986 104.903 24.958C104.875 24.9207 104.861 24.8787 104.861 24.832V17.972C104.861 17.9253 104.875 17.888 104.903 17.86C104.94 17.8227 104.982 17.804 105.029 17.804H106.667C106.713 17.804 106.751 17.8227 106.779 17.86C106.816 17.888 106.835 17.9253 106.835 17.972V18.504C106.835 18.532 106.844 18.5507 106.863 18.56C106.881 18.5693 106.895 18.5647 106.905 18.546C107.287 17.986 107.801 17.706 108.445 17.706ZM113.008 17.692C113.615 17.692 114.156 17.7993 114.632 18.014C115.108 18.2193 115.477 18.504 115.738 18.868C116.009 19.232 116.144 19.638 116.144 20.086V24.832C116.144 24.8787 116.125 24.9207 116.088 24.958C116.06 24.986 116.023 25 115.976 25H114.338C114.291 25 114.249 24.986 114.212 24.958C114.184 24.9207 114.17 24.8787 114.17 24.832V24.37C114.17 24.342 114.161 24.3233 114.142 24.314C114.123 24.3047 114.105 24.314 114.086 24.342C113.694 24.8553 113.064 25.112 112.196 25.112C111.468 25.112 110.88 24.9347 110.432 24.58C109.984 24.2253 109.76 23.7027 109.76 23.012C109.76 22.2933 110.012 21.738 110.516 21.346C111.02 20.9447 111.739 20.744 112.672 20.744H114.1C114.147 20.744 114.17 20.7207 114.17 20.674V20.366C114.17 20.058 114.077 19.82 113.89 19.652C113.703 19.4747 113.423 19.386 113.05 19.386C112.761 19.386 112.518 19.4373 112.322 19.54C112.135 19.6427 112.014 19.7873 111.958 19.974C111.93 20.0767 111.869 20.1233 111.776 20.114L110.082 19.89C109.97 19.8713 109.919 19.8293 109.928 19.764C109.965 19.372 110.119 19.0173 110.39 18.7C110.67 18.3827 111.034 18.1353 111.482 17.958C111.939 17.7807 112.448 17.692 113.008 17.692ZM112.728 23.642C113.129 23.642 113.47 23.5347 113.75 23.32C114.03 23.1053 114.17 22.83 114.17 22.494V21.99C114.17 21.9433 114.147 21.92 114.1 21.92H113.092C112.672 21.92 112.341 21.9993 112.098 22.158C111.865 22.3167 111.748 22.5407 111.748 22.83C111.748 23.082 111.837 23.2827 112.014 23.432C112.191 23.572 112.429 23.642 112.728 23.642ZM120.405 25.098C119.779 25.098 119.233 25.0093 118.767 24.832C118.3 24.6547 117.936 24.4073 117.675 24.09C117.423 23.7727 117.297 23.4133 117.297 23.012V22.872C117.297 22.8253 117.311 22.788 117.339 22.76C117.376 22.7227 117.418 22.704 117.465 22.704H119.019C119.065 22.704 119.103 22.7227 119.131 22.76C119.168 22.788 119.187 22.8253 119.187 22.872V22.886C119.187 23.0913 119.299 23.2687 119.523 23.418C119.756 23.558 120.045 23.628 120.391 23.628C120.708 23.628 120.965 23.5673 121.161 23.446C121.357 23.3153 121.455 23.1567 121.455 22.97C121.455 22.802 121.371 22.676 121.203 22.592C121.035 22.508 120.759 22.4193 120.377 22.326C119.938 22.214 119.593 22.1067 119.341 22.004C118.743 21.7987 118.267 21.5467 117.913 21.248C117.558 20.9493 117.381 20.52 117.381 19.96C117.381 19.2693 117.647 18.7233 118.179 18.322C118.72 17.9113 119.434 17.706 120.321 17.706C120.918 17.706 121.441 17.804 121.889 18C122.337 18.1867 122.682 18.4527 122.925 18.798C123.177 19.1433 123.303 19.5353 123.303 19.974C123.303 20.0207 123.284 20.0627 123.247 20.1C123.219 20.128 123.181 20.142 123.135 20.142H121.637C121.59 20.142 121.548 20.128 121.511 20.1C121.483 20.0627 121.469 20.0207 121.469 19.974C121.469 19.7687 121.361 19.596 121.147 19.456C120.941 19.316 120.666 19.246 120.321 19.246C120.013 19.246 119.761 19.302 119.565 19.414C119.369 19.526 119.271 19.68 119.271 19.876C119.271 20.0627 119.364 20.2027 119.551 20.296C119.747 20.3893 120.069 20.4873 120.517 20.59C120.619 20.618 120.736 20.6507 120.867 20.688C120.997 20.716 121.137 20.7533 121.287 20.8C121.949 20.996 122.472 21.248 122.855 21.556C123.237 21.864 123.429 22.312 123.429 22.9C123.429 23.5907 123.153 24.132 122.603 24.524C122.061 24.9067 121.329 25.098 120.405 25.098ZM127.432 17.692C128.039 17.692 128.58 17.7993 129.056 18.014C129.532 18.2193 129.901 18.504 130.162 18.868C130.433 19.232 130.568 19.638 130.568 20.086V24.832C130.568 24.8787 130.549 24.9207 130.512 24.958C130.484 24.986 130.447 25 130.4 25H128.762C128.715 25 128.673 24.986 128.636 24.958C128.608 24.9207 128.594 24.8787 128.594 24.832V24.37C128.594 24.342 128.585 24.3233 128.566 24.314C128.547 24.3047 128.529 24.314 128.51 24.342C128.118 24.8553 127.488 25.112 126.62 25.112C125.892 25.112 125.304 24.9347 124.856 24.58C124.408 24.2253 124.184 23.7027 124.184 23.012C124.184 22.2933 124.436 21.738 124.94 21.346C125.444 20.9447 126.163 20.744 127.096 20.744H128.524C128.571 20.744 128.594 20.7207 128.594 20.674V20.366C128.594 20.058 128.501 19.82 128.314 19.652C128.127 19.4747 127.847 19.386 127.474 19.386C127.185 19.386 126.942 19.4373 126.746 19.54C126.559 19.6427 126.438 19.7873 126.382 19.974C126.354 20.0767 126.293 20.1233 126.2 20.114L124.506 19.89C124.394 19.8713 124.343 19.8293 124.352 19.764C124.389 19.372 124.543 19.0173 124.814 18.7C125.094 18.3827 125.458 18.1353 125.906 17.958C126.363 17.7807 126.872 17.692 127.432 17.692ZM127.152 23.642C127.553 23.642 127.894 23.5347 128.174 23.32C128.454 23.1053 128.594 22.83 128.594 22.494V21.99C128.594 21.9433 128.571 21.92 128.524 21.92H127.516C127.096 21.92 126.765 21.9993 126.522 22.158C126.289 22.3167 126.172 22.5407 126.172 22.83C126.172 23.082 126.261 23.2827 126.438 23.432C126.615 23.572 126.853 23.642 127.152 23.642ZM135.71 17.692C136.457 17.692 137.059 17.9207 137.516 18.378C137.974 18.8353 138.202 19.456 138.202 20.24V24.832C138.202 24.8787 138.184 24.9207 138.146 24.958C138.118 24.986 138.081 25 138.034 25H136.396C136.35 25 136.308 24.986 136.27 24.958C136.242 24.9207 136.228 24.8787 136.228 24.832V20.646C136.228 20.2727 136.121 19.9693 135.906 19.736C135.701 19.5027 135.426 19.386 135.08 19.386C134.735 19.386 134.455 19.5027 134.24 19.736C134.035 19.9693 133.932 20.2727 133.932 20.646V24.832C133.932 24.8787 133.914 24.9207 133.876 24.958C133.848 24.986 133.811 25 133.764 25H132.126C132.08 25 132.038 24.986 132 24.958C131.972 24.9207 131.958 24.8787 131.958 24.832V17.972C131.958 17.9253 131.972 17.888 132 17.86C132.038 17.8227 132.08 17.804 132.126 17.804H133.764C133.811 17.804 133.848 17.8227 133.876 17.86C133.914 17.888 133.932 17.9253 133.932 17.972V18.462C133.932 18.49 133.942 18.5087 133.96 18.518C133.979 18.5273 133.993 18.5227 134.002 18.504C134.385 17.9627 134.954 17.692 135.71 17.692ZM139.258 27.786C139.23 27.786 139.207 27.7673 139.188 27.73C139.17 27.702 139.16 27.6647 139.16 27.618V26.33C139.16 26.2833 139.174 26.2413 139.202 26.204C139.24 26.176 139.282 26.162 139.328 26.162C139.72 26.1527 140.028 26.12 140.252 26.064C140.486 26.008 140.668 25.9007 140.798 25.742C140.938 25.5833 141.046 25.35 141.12 25.042C141.13 25.0233 141.13 24.9953 141.12 24.958L138.824 17.986C138.815 17.9673 138.81 17.944 138.81 17.916C138.81 17.832 138.862 17.79 138.964 17.79H140.714C140.817 17.79 140.882 17.8367 140.91 17.93L142.086 22.466C142.096 22.494 142.11 22.508 142.128 22.508C142.147 22.508 142.161 22.494 142.17 22.466L143.346 17.93C143.374 17.8367 143.44 17.79 143.542 17.79H145.25C145.306 17.79 145.344 17.8087 145.362 17.846C145.39 17.874 145.395 17.9207 145.376 17.986L142.954 25.266C142.721 25.9473 142.483 26.456 142.24 26.792C141.998 27.1373 141.657 27.3893 141.218 27.548C140.78 27.7067 140.159 27.786 139.356 27.786H139.258ZM148.842 17.692C149.449 17.692 149.99 17.7993 150.466 18.014C150.942 18.2193 151.311 18.504 151.572 18.868C151.843 19.232 151.978 19.638 151.978 20.086V24.832C151.978 24.8787 151.959 24.9207 151.922 24.958C151.894 24.986 151.857 25 151.81 25H150.172C150.125 25 150.083 24.986 150.046 24.958C150.018 24.9207 150.004 24.8787 150.004 24.832V24.37C150.004 24.342 149.995 24.3233 149.976 24.314C149.957 24.3047 149.939 24.314 149.92 24.342C149.528 24.8553 148.898 25.112 148.03 25.112C147.302 25.112 146.714 24.9347 146.266 24.58C145.818 24.2253 145.594 23.7027 145.594 23.012C145.594 22.2933 145.846 21.738 146.35 21.346C146.854 20.9447 147.573 20.744 148.506 20.744H149.934C149.981 20.744 150.004 20.7207 150.004 20.674V20.366C150.004 20.058 149.911 19.82 149.724 19.652C149.537 19.4747 149.257 19.386 148.884 19.386C148.595 19.386 148.352 19.4373 148.156 19.54C147.969 19.6427 147.848 19.7873 147.792 19.974C147.764 20.0767 147.703 20.1233 147.61 20.114L145.916 19.89C145.804 19.8713 145.753 19.8293 145.762 19.764C145.799 19.372 145.953 19.0173 146.224 18.7C146.504 18.3827 146.868 18.1353 147.316 17.958C147.773 17.7807 148.282 17.692 148.842 17.692ZM148.562 23.642C148.963 23.642 149.304 23.5347 149.584 23.32C149.864 23.1053 150.004 22.83 150.004 22.494V21.99C150.004 21.9433 149.981 21.92 149.934 21.92H148.926C148.506 21.92 148.175 21.9993 147.932 22.158C147.699 22.3167 147.582 22.5407 147.582 22.83C147.582 23.082 147.671 23.2827 147.848 23.432C148.025 23.572 148.263 23.642 148.562 23.642ZM162.541 19.638C162.719 20.1233 162.807 20.702 162.807 21.374C162.807 22.018 162.728 22.5827 162.569 23.068C162.355 23.7027 162.009 24.202 161.533 24.566C161.067 24.93 160.511 25.112 159.867 25.112C159.186 25.112 158.649 24.8553 158.257 24.342C158.239 24.3233 158.22 24.3187 158.201 24.328C158.183 24.328 158.173 24.342 158.173 24.37V24.832C158.173 24.8787 158.155 24.9207 158.117 24.958C158.089 24.986 158.052 25 158.005 25H156.367C156.321 25 156.279 24.986 156.241 24.958C156.213 24.9207 156.199 24.8787 156.199 24.832V15.368C156.199 15.3213 156.213 15.284 156.241 15.256C156.279 15.2187 156.321 15.2 156.367 15.2H158.005C158.052 15.2 158.089 15.2187 158.117 15.256C158.155 15.284 158.173 15.3213 158.173 15.368V18.364C158.173 18.392 158.183 18.4107 158.201 18.42C158.22 18.4293 158.239 18.42 158.257 18.392C158.621 17.9253 159.139 17.692 159.811 17.692C160.493 17.692 161.062 17.8693 161.519 18.224C161.986 18.5693 162.327 19.0407 162.541 19.638ZM160.469 22.816C160.665 22.4613 160.763 21.9947 160.763 21.416C160.763 20.772 160.651 20.2773 160.427 19.932C160.203 19.568 159.872 19.386 159.433 19.386C159.023 19.386 158.71 19.568 158.495 19.932C158.29 20.2867 158.187 20.7767 158.187 21.402C158.187 22.0273 158.281 22.4987 158.467 22.816C158.691 23.2173 159.018 23.418 159.447 23.418C159.905 23.418 160.245 23.2173 160.469 22.816ZM166.971 17.692C167.578 17.692 168.119 17.7993 168.595 18.014C169.071 18.2193 169.44 18.504 169.701 18.868C169.972 19.232 170.107 19.638 170.107 20.086V24.832C170.107 24.8787 170.088 24.9207 170.051 24.958C170.023 24.986 169.986 25 169.939 25H168.301C168.254 25 168.212 24.986 168.175 24.958C168.147 24.9207 168.133 24.8787 168.133 24.832V24.37C168.133 24.342 168.124 24.3233 168.105 24.314C168.086 24.3047 168.068 24.314 168.049 24.342C167.657 24.8553 167.027 25.112 166.159 25.112C165.431 25.112 164.843 24.9347 164.395 24.58C163.947 24.2253 163.723 23.7027 163.723 23.012C163.723 22.2933 163.975 21.738 164.479 21.346C164.983 20.9447 165.702 20.744 166.635 20.744H168.063C168.11 20.744 168.133 20.7207 168.133 20.674V20.366C168.133 20.058 168.04 19.82 167.853 19.652C167.666 19.4747 167.386 19.386 167.013 19.386C166.724 19.386 166.481 19.4373 166.285 19.54C166.098 19.6427 165.977 19.7873 165.921 19.974C165.893 20.0767 165.832 20.1233 165.739 20.114L164.045 19.89C163.933 19.8713 163.882 19.8293 163.891 19.764C163.928 19.372 164.082 19.0173 164.353 18.7C164.633 18.3827 164.997 18.1353 165.445 17.958C165.902 17.7807 166.411 17.692 166.971 17.692ZM166.691 23.642C167.092 23.642 167.433 23.5347 167.713 23.32C167.993 23.1053 168.133 22.83 168.133 22.494V21.99C168.133 21.9433 168.11 21.92 168.063 21.92H167.055C166.635 21.92 166.304 21.9993 166.061 22.158C165.828 22.3167 165.711 22.5407 165.711 22.83C165.711 23.082 165.8 23.2827 165.977 23.432C166.154 23.572 166.392 23.642 166.691 23.642ZM175.25 17.692C175.996 17.692 176.598 17.9207 177.056 18.378C177.513 18.8353 177.742 19.456 177.742 20.24V24.832C177.742 24.8787 177.723 24.9207 177.686 24.958C177.658 24.986 177.62 25 177.574 25H175.936C175.889 25 175.847 24.986 175.81 24.958C175.782 24.9207 175.768 24.8787 175.768 24.832V20.646C175.768 20.2727 175.66 19.9693 175.446 19.736C175.24 19.5027 174.965 19.386 174.62 19.386C174.274 19.386 173.994 19.5027 173.78 19.736C173.574 19.9693 173.472 20.2727 173.472 20.646V24.832C173.472 24.8787 173.453 24.9207 173.416 24.958C173.388 24.986 173.35 25 173.304 25H171.666C171.619 25 171.577 24.986 171.54 24.958C171.512 24.9207 171.498 24.8787 171.498 24.832V17.972C171.498 17.9253 171.512 17.888 171.54 17.86C171.577 17.8227 171.619 17.804 171.666 17.804H173.304C173.35 17.804 173.388 17.8227 173.416 17.86C173.453 17.888 173.472 17.9253 173.472 17.972V18.462C173.472 18.49 173.481 18.5087 173.5 18.518C173.518 18.5273 173.532 18.5227 173.542 18.504C173.924 17.9627 174.494 17.692 175.25 17.692ZM178.797 27.786C178.769 27.786 178.746 27.7673 178.727 27.73C178.709 27.702 178.699 27.6647 178.699 27.618V26.33C178.699 26.2833 178.713 26.2413 178.741 26.204C178.779 26.176 178.821 26.162 178.867 26.162C179.259 26.1527 179.567 26.12 179.791 26.064C180.025 26.008 180.207 25.9007 180.337 25.742C180.477 25.5833 180.585 25.35 180.659 25.042C180.669 25.0233 180.669 24.9953 180.659 24.958L178.363 17.986C178.354 17.9673 178.349 17.944 178.349 17.916C178.349 17.832 178.401 17.79 178.503 17.79H180.253C180.356 17.79 180.421 17.8367 180.449 17.93L181.625 22.466C181.635 22.494 181.649 22.508 181.667 22.508C181.686 22.508 181.7 22.494 181.709 22.466L182.885 17.93C182.913 17.8367 182.979 17.79 183.081 17.79H184.789C184.845 17.79 184.883 17.8087 184.901 17.846C184.929 17.874 184.934 17.9207 184.915 17.986L182.493 25.266C182.26 25.9473 182.022 26.456 181.779 26.792C181.537 27.1373 181.196 27.3893 180.757 27.548C180.319 27.7067 179.698 27.786 178.895 27.786H178.797ZM188.381 17.692C188.988 17.692 189.529 17.7993 190.005 18.014C190.481 18.2193 190.85 18.504 191.111 18.868C191.382 19.232 191.517 19.638 191.517 20.086V24.832C191.517 24.8787 191.499 24.9207 191.461 24.958C191.433 24.986 191.396 25 191.349 25H189.711C189.665 25 189.623 24.986 189.585 24.958C189.557 24.9207 189.543 24.8787 189.543 24.832V24.37C189.543 24.342 189.534 24.3233 189.515 24.314C189.497 24.3047 189.478 24.314 189.459 24.342C189.067 24.8553 188.437 25.112 187.569 25.112C186.841 25.112 186.253 24.9347 185.805 24.58C185.357 24.2253 185.133 23.7027 185.133 23.012C185.133 22.2933 185.385 21.738 185.889 21.346C186.393 20.9447 187.112 20.744 188.045 20.744H189.473C189.52 20.744 189.543 20.7207 189.543 20.674V20.366C189.543 20.058 189.45 19.82 189.263 19.652C189.077 19.4747 188.797 19.386 188.423 19.386C188.134 19.386 187.891 19.4373 187.695 19.54C187.509 19.6427 187.387 19.7873 187.331 19.974C187.303 20.0767 187.243 20.1233 187.149 20.114L185.455 19.89C185.343 19.8713 185.292 19.8293 185.301 19.764C185.339 19.372 185.493 19.0173 185.763 18.7C186.043 18.3827 186.407 18.1353 186.855 17.958C187.313 17.7807 187.821 17.692 188.381 17.692ZM188.101 23.642C188.503 23.642 188.843 23.5347 189.123 23.32C189.403 23.1053 189.543 22.83 189.543 22.494V21.99C189.543 21.9433 189.52 21.92 189.473 21.92H188.465C188.045 21.92 187.714 21.9993 187.471 22.158C187.238 22.3167 187.121 22.5407 187.121 22.83C187.121 23.082 187.21 23.2827 187.387 23.432C187.565 23.572 187.803 23.642 188.101 23.642ZM193.076 25C193.029 25 192.987 24.986 192.95 24.958C192.922 24.9207 192.908 24.8787 192.908 24.832V15.368C192.908 15.3213 192.922 15.284 192.95 15.256C192.987 15.2187 193.029 15.2 193.076 15.2H194.714C194.76 15.2 194.798 15.2187 194.826 15.256C194.863 15.284 194.882 15.3213 194.882 15.368V20.086C194.882 20.114 194.891 20.1327 194.91 20.142C194.928 20.142 194.947 20.1327 194.966 20.114L196.87 17.902C196.935 17.8367 197.005 17.804 197.08 17.804H198.942C199.035 17.804 199.082 17.8367 199.082 17.902C199.082 17.93 199.068 17.9673 199.04 18.014L197.262 20.268C197.243 20.3053 197.238 20.338 197.248 20.366L199.334 24.804C199.352 24.8413 199.362 24.8693 199.362 24.888C199.362 24.9627 199.31 25 199.208 25H197.486C197.392 25 197.327 24.958 197.29 24.874L195.904 21.598C195.894 21.5793 195.876 21.57 195.848 21.57C195.829 21.5607 195.815 21.5653 195.806 21.584L194.91 22.704C194.891 22.7413 194.882 22.7693 194.882 22.788V24.832C194.882 24.8787 194.863 24.9207 194.826 24.958C194.798 24.986 194.76 25 194.714 25H193.076ZM209.545 19.638C209.723 20.1233 209.811 20.702 209.811 21.374C209.811 22.018 209.732 22.5827 209.573 23.068C209.359 23.7027 209.013 24.202 208.537 24.566C208.071 24.93 207.515 25.112 206.871 25.112C206.19 25.112 205.653 24.8553 205.261 24.342C205.243 24.3233 205.224 24.3187 205.205 24.328C205.187 24.328 205.177 24.342 205.177 24.37V24.832C205.177 24.8787 205.159 24.9207 205.121 24.958C205.093 24.986 205.056 25 205.009 25H203.371C203.325 25 203.283 24.986 203.245 24.958C203.217 24.9207 203.203 24.8787 203.203 24.832V15.368C203.203 15.3213 203.217 15.284 203.245 15.256C203.283 15.2187 203.325 15.2 203.371 15.2H205.009C205.056 15.2 205.093 15.2187 205.121 15.256C205.159 15.284 205.177 15.3213 205.177 15.368V18.364C205.177 18.392 205.187 18.4107 205.205 18.42C205.224 18.4293 205.243 18.42 205.261 18.392C205.625 17.9253 206.143 17.692 206.815 17.692C207.497 17.692 208.066 17.8693 208.523 18.224C208.99 18.5693 209.331 19.0407 209.545 19.638ZM207.473 22.816C207.669 22.4613 207.767 21.9947 207.767 21.416C207.767 20.772 207.655 20.2773 207.431 19.932C207.207 19.568 206.876 19.386 206.437 19.386C206.027 19.386 205.714 19.568 205.499 19.932C205.294 20.2867 205.191 20.7767 205.191 21.402C205.191 22.0273 205.285 22.4987 205.471 22.816C205.695 23.2173 206.022 23.418 206.451 23.418C206.909 23.418 207.249 23.2173 207.473 22.816ZM213.975 17.692C214.582 17.692 215.123 17.7993 215.599 18.014C216.075 18.2193 216.444 18.504 216.705 18.868C216.976 19.232 217.111 19.638 217.111 20.086V24.832C217.111 24.8787 217.092 24.9207 217.055 24.958C217.027 24.986 216.99 25 216.943 25H215.305C215.258 25 215.216 24.986 215.179 24.958C215.151 24.9207 215.137 24.8787 215.137 24.832V24.37C215.137 24.342 215.128 24.3233 215.109 24.314C215.09 24.3047 215.072 24.314 215.053 24.342C214.661 24.8553 214.031 25.112 213.163 25.112C212.435 25.112 211.847 24.9347 211.399 24.58C210.951 24.2253 210.727 23.7027 210.727 23.012C210.727 22.2933 210.979 21.738 211.483 21.346C211.987 20.9447 212.706 20.744 213.639 20.744H215.067C215.114 20.744 215.137 20.7207 215.137 20.674V20.366C215.137 20.058 215.044 19.82 214.857 19.652C214.67 19.4747 214.39 19.386 214.017 19.386C213.728 19.386 213.485 19.4373 213.289 19.54C213.102 19.6427 212.981 19.7873 212.925 19.974C212.897 20.0767 212.836 20.1233 212.743 20.114L211.049 19.89C210.937 19.8713 210.886 19.8293 210.895 19.764C210.932 19.372 211.086 19.0173 211.357 18.7C211.637 18.3827 212.001 18.1353 212.449 17.958C212.906 17.7807 213.415 17.692 213.975 17.692ZM213.695 23.642C214.096 23.642 214.437 23.5347 214.717 23.32C214.997 23.1053 215.137 22.83 215.137 22.494V21.99C215.137 21.9433 215.114 21.92 215.067 21.92H214.059C213.639 21.92 213.308 21.9993 213.065 22.158C212.832 22.3167 212.715 22.5407 212.715 22.83C212.715 23.082 212.804 23.2827 212.981 23.432C213.158 23.572 213.396 23.642 213.695 23.642ZM222.253 17.692C223 17.692 223.602 17.9207 224.059 18.378C224.517 18.8353 224.745 19.456 224.745 20.24V24.832C224.745 24.8787 224.727 24.9207 224.689 24.958C224.661 24.986 224.624 25 224.577 25H222.939C222.893 25 222.851 24.986 222.813 24.958C222.785 24.9207 222.771 24.8787 222.771 24.832V20.646C222.771 20.2727 222.664 19.9693 222.449 19.736C222.244 19.5027 221.969 19.386 221.623 19.386C221.278 19.386 220.998 19.5027 220.783 19.736C220.578 19.9693 220.475 20.2727 220.475 20.646V24.832C220.475 24.8787 220.457 24.9207 220.419 24.958C220.391 24.986 220.354 25 220.307 25H218.669C218.623 25 218.581 24.986 218.543 24.958C218.515 24.9207 218.501 24.8787 218.501 24.832V17.972C218.501 17.9253 218.515 17.888 218.543 17.86C218.581 17.8227 218.623 17.804 218.669 17.804H220.307C220.354 17.804 220.391 17.8227 220.419 17.86C220.457 17.888 220.475 17.9253 220.475 17.972V18.462C220.475 18.49 220.485 18.5087 220.503 18.518C220.522 18.5273 220.536 18.5227 220.545 18.504C220.928 17.9627 221.497 17.692 222.253 17.692ZM230.554 17.972C230.554 17.9253 230.568 17.888 230.596 17.86C230.633 17.8227 230.675 17.804 230.722 17.804H232.36C232.406 17.804 232.444 17.8227 232.472 17.86C232.509 17.888 232.528 17.9253 232.528 17.972V24.356C232.528 25.5787 232.173 26.4513 231.464 26.974C230.764 27.4967 229.858 27.758 228.748 27.758C228.421 27.758 228.057 27.7347 227.656 27.688C227.562 27.6787 227.516 27.618 227.516 27.506L227.572 26.064C227.572 25.9427 227.637 25.8913 227.768 25.91C228.104 25.966 228.412 25.994 228.692 25.994C229.289 25.994 229.746 25.8633 230.064 25.602C230.39 25.3407 230.554 24.9207 230.554 24.342C230.554 24.314 230.544 24.3 230.526 24.3C230.507 24.2907 230.488 24.2953 230.47 24.314C230.115 24.6967 229.597 24.888 228.916 24.888C228.309 24.888 227.749 24.7433 227.236 24.454C226.732 24.1553 226.372 23.6793 226.158 23.026C226.018 22.5967 225.948 22.0413 225.948 21.36C225.948 20.632 226.032 20.0393 226.2 19.582C226.396 19.0127 226.727 18.5553 227.194 18.21C227.66 17.8647 228.202 17.692 228.818 17.692C229.536 17.692 230.087 17.9067 230.47 18.336C230.488 18.3547 230.507 18.364 230.526 18.364C230.544 18.3547 230.554 18.336 230.554 18.308V17.972ZM230.442 22.494C230.516 22.214 230.554 21.8313 230.554 21.346C230.554 21.0567 230.544 20.8327 230.526 20.674C230.507 20.5153 230.474 20.366 230.428 20.226C230.344 19.974 230.204 19.7733 230.008 19.624C229.812 19.4653 229.569 19.386 229.28 19.386C229 19.386 228.762 19.4653 228.566 19.624C228.37 19.7733 228.225 19.974 228.132 20.226C228.001 20.506 227.936 20.884 227.936 21.36C227.936 21.8827 227.992 22.256 228.104 22.48C228.188 22.732 228.332 22.9373 228.538 23.096C228.752 23.2453 229.004 23.32 229.294 23.32C229.592 23.32 229.84 23.2453 230.036 23.096C230.232 22.9373 230.367 22.7367 230.442 22.494ZM240.307 20.66C240.363 21.0147 240.382 21.4113 240.363 21.85C240.354 21.962 240.293 22.018 240.181 22.018H235.855C235.799 22.018 235.78 22.0413 235.799 22.088C235.827 22.2747 235.878 22.4613 235.953 22.648C236.196 23.1707 236.69 23.432 237.437 23.432C238.034 23.4227 238.506 23.18 238.851 22.704C238.888 22.648 238.93 22.62 238.977 22.62C239.005 22.62 239.038 22.6387 239.075 22.676L240.083 23.67C240.13 23.7167 240.153 23.7587 240.153 23.796C240.153 23.8147 240.134 23.852 240.097 23.908C239.789 24.2907 239.392 24.5893 238.907 24.804C238.422 25.0093 237.89 25.112 237.311 25.112C236.508 25.112 235.827 24.93 235.267 24.566C234.716 24.202 234.32 23.6933 234.077 23.04C233.881 22.5733 233.783 21.962 233.783 21.206C233.783 20.6927 233.853 20.24 233.993 19.848C234.208 19.1853 234.581 18.658 235.113 18.266C235.654 17.874 236.294 17.678 237.031 17.678C237.964 17.678 238.711 17.9487 239.271 18.49C239.84 19.0313 240.186 19.7547 240.307 20.66ZM237.045 19.386C236.457 19.386 236.07 19.6613 235.883 20.212C235.846 20.3333 235.813 20.4827 235.785 20.66C235.785 20.7067 235.808 20.73 235.855 20.73H238.277C238.333 20.73 238.352 20.7067 238.333 20.66C238.286 20.3893 238.263 20.2587 238.263 20.268C238.179 19.988 238.03 19.7733 237.815 19.624C237.61 19.4653 237.353 19.386 237.045 19.386ZM245.546 19.218C245.546 19.2647 245.527 19.3067 245.49 19.344C245.462 19.372 245.424 19.386 245.378 19.386H244.034C243.987 19.386 243.964 19.4093 243.964 19.456V22.424C243.964 22.732 244.024 22.9607 244.146 23.11C244.276 23.2593 244.482 23.334 244.762 23.334H245.224C245.27 23.334 245.308 23.3527 245.336 23.39C245.373 23.418 245.392 23.4553 245.392 23.502V24.832C245.392 24.9347 245.336 24.9953 245.224 25.014C244.832 25.0327 244.552 25.042 244.383 25.042C243.609 25.042 243.03 24.916 242.648 24.664C242.265 24.4027 242.069 23.9173 242.06 23.208V19.456C242.06 19.4093 242.036 19.386 241.99 19.386H241.192C241.145 19.386 241.103 19.372 241.066 19.344C241.038 19.3067 241.024 19.2647 241.024 19.218V17.972C241.024 17.9253 241.038 17.888 241.066 17.86C241.103 17.8227 241.145 17.804 241.192 17.804H241.99C242.036 17.804 242.06 17.7807 242.06 17.734V16.068C242.06 16.0213 242.074 15.984 242.102 15.956C242.139 15.9187 242.181 15.9 242.228 15.9H243.796C243.842 15.9 243.88 15.9187 243.908 15.956C243.945 15.984 243.964 16.0213 243.964 16.068V17.734C243.964 17.7807 243.987 17.804 244.034 17.804H245.378C245.424 17.804 245.462 17.8227 245.49 17.86C245.527 17.888 245.546 17.9253 245.546 17.972V19.218ZM246.734 26.372C246.622 26.372 246.571 26.3113 246.58 26.19L247.042 22.942C247.051 22.8393 247.112 22.788 247.224 22.788H248.652C248.773 22.788 248.82 22.8487 248.792 22.97L247.924 26.232C247.896 26.3253 247.831 26.372 247.728 26.372H246.734ZM259.598 25C259.504 25 259.444 24.9533 259.416 24.86L258.996 23.488C258.977 23.4507 258.954 23.432 258.926 23.432H255.482C255.454 23.432 255.43 23.4507 255.412 23.488L255.006 24.86C254.978 24.9533 254.917 25 254.824 25H253.046C252.99 25 252.948 24.986 252.92 24.958C252.892 24.9207 252.887 24.8693 252.906 24.804L255.93 15.34C255.958 15.2467 256.018 15.2 256.112 15.2H258.31C258.403 15.2 258.464 15.2467 258.492 15.34L261.516 24.804C261.525 24.8227 261.53 24.846 261.53 24.874C261.53 24.958 261.478 25 261.376 25H259.598ZM255.916 21.822C255.906 21.878 255.925 21.906 255.972 21.906H258.436C258.492 21.906 258.51 21.878 258.492 21.822L257.232 17.664C257.222 17.6267 257.208 17.6127 257.19 17.622C257.171 17.622 257.157 17.636 257.148 17.664L255.916 21.822ZM262.802 25C262.756 25 262.714 24.986 262.676 24.958C262.648 24.9207 262.634 24.8787 262.634 24.832V15.368C262.634 15.3213 262.648 15.284 262.676 15.256C262.714 15.2187 262.756 15.2 262.802 15.2H264.44C264.487 15.2 264.524 15.2187 264.552 15.256C264.59 15.284 264.608 15.3213 264.608 15.368V20.086C264.608 20.114 264.618 20.1327 264.636 20.142C264.655 20.142 264.674 20.1327 264.692 20.114L266.596 17.902C266.662 17.8367 266.732 17.804 266.806 17.804H268.668C268.762 17.804 268.808 17.8367 268.808 17.902C268.808 17.93 268.794 17.9673 268.766 18.014L266.988 20.268C266.97 20.3053 266.965 20.338 266.974 20.366L269.06 24.804C269.079 24.8413 269.088 24.8693 269.088 24.888C269.088 24.9627 269.037 25 268.934 25H267.212C267.119 25 267.054 24.958 267.016 24.874L265.63 21.598C265.621 21.5793 265.602 21.57 265.574 21.57C265.556 21.5607 265.542 21.5653 265.532 21.584L264.636 22.704C264.618 22.7413 264.608 22.7693 264.608 22.788V24.832C264.608 24.8787 264.59 24.9207 264.552 24.958C264.524 24.986 264.487 25 264.44 25H262.802ZM274.299 17.972C274.299 17.9253 274.313 17.888 274.341 17.86C274.378 17.8227 274.42 17.804 274.467 17.804H276.105C276.152 17.804 276.189 17.8227 276.217 17.86C276.254 17.888 276.273 17.9253 276.273 17.972V24.832C276.273 24.8787 276.254 24.9207 276.217 24.958C276.189 24.986 276.152 25 276.105 25H274.467C274.42 25 274.378 24.986 274.341 24.958C274.313 24.9207 274.299 24.8787 274.299 24.832V24.356C274.299 24.328 274.29 24.314 274.271 24.314C274.252 24.3047 274.234 24.314 274.215 24.342C273.842 24.846 273.263 25.098 272.479 25.098C271.77 25.098 271.186 24.8833 270.729 24.454C270.272 24.0247 270.043 23.4227 270.043 22.648V17.972C270.043 17.9253 270.057 17.888 270.085 17.86C270.122 17.8227 270.164 17.804 270.211 17.804H271.835C271.882 17.804 271.919 17.8227 271.947 17.86C271.984 17.888 272.003 17.9253 272.003 17.972V22.158C272.003 22.5313 272.101 22.8347 272.297 23.068C272.502 23.3013 272.782 23.418 273.137 23.418C273.454 23.418 273.716 23.3247 273.921 23.138C274.126 22.942 274.252 22.69 274.299 22.382V17.972ZM91.2849 34.736C91.4529 35.212 91.5369 35.772 91.5369 36.416C91.5369 37.06 91.4482 37.6433 91.2709 38.166C91.0562 38.7633 90.7155 39.2393 90.2489 39.594C89.7915 39.9393 89.2222 40.112 88.5409 40.112C87.8689 40.112 87.3462 39.8787 86.9729 39.412C86.9542 39.384 86.9355 39.3747 86.9169 39.384C86.8982 39.3933 86.8889 39.412 86.8889 39.44V42.436C86.8889 42.4827 86.8702 42.52 86.8329 42.548C86.8049 42.5853 86.7675 42.604 86.7209 42.604H85.0829C85.0362 42.604 84.9942 42.5853 84.9569 42.548C84.9289 42.52 84.9149 42.4827 84.9149 42.436V32.972C84.9149 32.9253 84.9289 32.888 84.9569 32.86C84.9942 32.8227 85.0362 32.804 85.0829 32.804H86.7209C86.7675 32.804 86.8049 32.8227 86.8329 32.86C86.8702 32.888 86.8889 32.9253 86.8889 32.972V33.434C86.8889 33.462 86.8982 33.4807 86.9169 33.49C86.9355 33.49 86.9542 33.4807 86.9729 33.462C87.3649 32.9487 87.9062 32.692 88.5969 32.692C89.2409 32.692 89.7962 32.874 90.2629 33.238C90.7389 33.5927 91.0795 34.092 91.2849 34.736ZM89.1429 37.872C89.3762 37.508 89.4929 37.0133 89.4929 36.388C89.4929 35.8 89.3949 35.3333 89.1989 34.988C88.9842 34.5867 88.6389 34.386 88.1629 34.386C87.7335 34.386 87.4115 34.5867 87.1969 34.988C87.0009 35.324 86.9029 35.7953 86.9029 36.402C86.9029 37.0273 87.0055 37.5127 87.2109 37.858C87.4255 38.2313 87.7429 38.418 88.1629 38.418C88.5829 38.418 88.9095 38.236 89.1429 37.872ZM95.6859 32.692C96.2926 32.692 96.8339 32.7993 97.3099 33.014C97.7859 33.2193 98.1546 33.504 98.4159 33.868C98.6866 34.232 98.8219 34.638 98.8219 35.086V39.832C98.8219 39.8787 98.8032 39.9207 98.7659 39.958C98.7379 39.986 98.7006 40 98.6539 40H97.0159C96.9692 40 96.9272 39.986 96.8899 39.958C96.8619 39.9207 96.8479 39.8787 96.8479 39.832V39.37C96.8479 39.342 96.8386 39.3233 96.8199 39.314C96.8012 39.3047 96.7826 39.314 96.7639 39.342C96.3719 39.8553 95.7419 40.112 94.8739 40.112C94.1459 40.112 93.5579 39.9347 93.1099 39.58C92.6619 39.2253 92.4379 38.7027 92.4379 38.012C92.4379 37.2933 92.6899 36.738 93.1939 36.346C93.6979 35.9447 94.4166 35.744 95.3499 35.744H96.7779C96.8246 35.744 96.8479 35.7207 96.8479 35.674V35.366C96.8479 35.058 96.7546 34.82 96.5679 34.652C96.3812 34.4747 96.1012 34.386 95.7279 34.386C95.4386 34.386 95.1959 34.4373 94.9999 34.54C94.8132 34.6427 94.6919 34.7873 94.6359 34.974C94.6079 35.0767 94.5472 35.1233 94.4539 35.114L92.7599 34.89C92.6479 34.8713 92.5966 34.8293 92.6059 34.764C92.6432 34.372 92.7972 34.0173 93.0679 33.7C93.3479 33.3827 93.7119 33.1353 94.1599 32.958C94.6172 32.7807 95.1259 32.692 95.6859 32.692ZM95.4059 38.642C95.8072 38.642 96.1479 38.5347 96.4279 38.32C96.7079 38.1053 96.8479 37.83 96.8479 37.494V36.99C96.8479 36.9433 96.8246 36.92 96.7779 36.92H95.7699C95.3499 36.92 95.0186 36.9993 94.7759 37.158C94.5426 37.3167 94.4259 37.5407 94.4259 37.83C94.4259 38.082 94.5146 38.2827 94.6919 38.432C94.8692 38.572 95.1072 38.642 95.4059 38.642ZM100.38 40C100.334 40 100.292 39.986 100.254 39.958C100.226 39.9207 100.212 39.8787 100.212 39.832V30.368C100.212 30.3213 100.226 30.284 100.254 30.256C100.292 30.2187 100.334 30.2 100.38 30.2H102.018C102.065 30.2 102.102 30.2187 102.13 30.256C102.168 30.284 102.186 30.3213 102.186 30.368V39.832C102.186 39.8787 102.168 39.9207 102.13 39.958C102.102 39.986 102.065 40 102.018 40H100.38ZM104.694 31.992C104.377 31.992 104.111 31.8893 103.896 31.684C103.691 31.4693 103.588 31.2033 103.588 30.886C103.588 30.5593 103.691 30.2933 103.896 30.088C104.102 29.8827 104.368 29.78 104.694 29.78C105.021 29.78 105.287 29.8827 105.492 30.088C105.698 30.2933 105.8 30.5593 105.8 30.886C105.8 31.2033 105.693 31.4693 105.478 31.684C105.273 31.8893 105.012 31.992 104.694 31.992ZM103.854 40C103.808 40 103.766 39.986 103.728 39.958C103.7 39.9207 103.686 39.8787 103.686 39.832V32.958C103.686 32.9113 103.7 32.874 103.728 32.846C103.766 32.8087 103.808 32.79 103.854 32.79H105.492C105.539 32.79 105.576 32.8087 105.604 32.846C105.642 32.874 105.66 32.9113 105.66 32.958V39.832C105.66 39.8787 105.642 39.9207 105.604 39.958C105.576 39.986 105.539 40 105.492 40H103.854ZM110.951 32.692C111.697 32.692 112.299 32.9207 112.757 33.378C113.214 33.8353 113.443 34.456 113.443 35.24V39.832C113.443 39.8787 113.424 39.9207 113.387 39.958C113.359 39.986 113.321 40 113.275 40H111.637C111.59 40 111.548 39.986 111.511 39.958C111.483 39.9207 111.469 39.8787 111.469 39.832V35.646C111.469 35.2727 111.361 34.9693 111.147 34.736C110.941 34.5027 110.666 34.386 110.321 34.386C109.975 34.386 109.695 34.5027 109.481 34.736C109.275 34.9693 109.173 35.2727 109.173 35.646V39.832C109.173 39.8787 109.154 39.9207 109.117 39.958C109.089 39.986 109.051 40 109.005 40H107.367C107.32 40 107.278 39.986 107.241 39.958C107.213 39.9207 107.199 39.8787 107.199 39.832V32.972C107.199 32.9253 107.213 32.888 107.241 32.86C107.278 32.8227 107.32 32.804 107.367 32.804H109.005C109.051 32.804 109.089 32.8227 109.117 32.86C109.154 32.888 109.173 32.9253 109.173 32.972V33.462C109.173 33.49 109.182 33.5087 109.201 33.518C109.219 33.5273 109.233 33.5227 109.243 33.504C109.625 32.9627 110.195 32.692 110.951 32.692ZM119.251 32.972C119.251 32.9253 119.265 32.888 119.293 32.86C119.33 32.8227 119.372 32.804 119.419 32.804H121.057C121.104 32.804 121.141 32.8227 121.169 32.86C121.206 32.888 121.225 32.9253 121.225 32.972V39.356C121.225 40.5787 120.87 41.4513 120.161 41.974C119.461 42.4967 118.556 42.758 117.445 42.758C117.118 42.758 116.754 42.7347 116.353 42.688C116.26 42.6787 116.213 42.618 116.213 42.506L116.269 41.064C116.269 40.9427 116.334 40.8913 116.465 40.91C116.801 40.966 117.109 40.994 117.389 40.994C117.986 40.994 118.444 40.8633 118.761 40.602C119.088 40.3407 119.251 39.9207 119.251 39.342C119.251 39.314 119.242 39.3 119.223 39.3C119.204 39.2907 119.186 39.2953 119.167 39.314C118.812 39.6967 118.294 39.888 117.613 39.888C117.006 39.888 116.446 39.7433 115.933 39.454C115.429 39.1553 115.07 38.6793 114.855 38.026C114.715 37.5967 114.645 37.0413 114.645 36.36C114.645 35.632 114.729 35.0393 114.897 34.582C115.093 34.0127 115.424 33.5553 115.891 33.21C116.358 32.8647 116.899 32.692 117.515 32.692C118.234 32.692 118.784 32.9067 119.167 33.336C119.186 33.3547 119.204 33.364 119.223 33.364C119.242 33.3547 119.251 33.336 119.251 33.308V32.972ZM119.139 37.494C119.214 37.214 119.251 36.8313 119.251 36.346C119.251 36.0567 119.242 35.8327 119.223 35.674C119.204 35.5153 119.172 35.366 119.125 35.226C119.041 34.974 118.901 34.7733 118.705 34.624C118.509 34.4653 118.266 34.386 117.977 34.386C117.697 34.386 117.459 34.4653 117.263 34.624C117.067 34.7733 116.922 34.974 116.829 35.226C116.698 35.506 116.633 35.884 116.633 36.36C116.633 36.8827 116.689 37.256 116.801 37.48C116.885 37.732 117.03 37.9373 117.235 38.096C117.45 38.2453 117.702 38.32 117.991 38.32C118.29 38.32 118.537 38.2453 118.733 38.096C118.929 37.9373 119.064 37.7367 119.139 37.494ZM128.307 40.098C127.682 40.098 127.136 40.0093 126.669 39.832C126.202 39.6547 125.838 39.4073 125.577 39.09C125.325 38.7727 125.199 38.4133 125.199 38.012V37.872C125.199 37.8253 125.213 37.788 125.241 37.76C125.278 37.7227 125.32 37.704 125.367 37.704H126.921C126.968 37.704 127.005 37.7227 127.033 37.76C127.07 37.788 127.089 37.8253 127.089 37.872V37.886C127.089 38.0913 127.201 38.2687 127.425 38.418C127.658 38.558 127.948 38.628 128.293 38.628C128.61 38.628 128.867 38.5673 129.063 38.446C129.259 38.3153 129.357 38.1567 129.357 37.97C129.357 37.802 129.273 37.676 129.105 37.592C128.937 37.508 128.662 37.4193 128.279 37.326C127.84 37.214 127.495 37.1067 127.243 37.004C126.646 36.7987 126.17 36.5467 125.815 36.248C125.46 35.9493 125.283 35.52 125.283 34.96C125.283 34.2693 125.549 33.7233 126.081 33.322C126.622 32.9113 127.336 32.706 128.223 32.706C128.82 32.706 129.343 32.804 129.791 33C130.239 33.1867 130.584 33.4527 130.827 33.798C131.079 34.1433 131.205 34.5353 131.205 34.974C131.205 35.0207 131.186 35.0627 131.149 35.1C131.121 35.128 131.084 35.142 131.037 35.142H129.539C129.492 35.142 129.45 35.128 129.413 35.1C129.385 35.0627 129.371 35.0207 129.371 34.974C129.371 34.7687 129.264 34.596 129.049 34.456C128.844 34.316 128.568 34.246 128.223 34.246C127.915 34.246 127.663 34.302 127.467 34.414C127.271 34.526 127.173 34.68 127.173 34.876C127.173 35.0627 127.266 35.2027 127.453 35.296C127.649 35.3893 127.971 35.4873 128.419 35.59C128.522 35.618 128.638 35.6507 128.769 35.688C128.9 35.716 129.04 35.7533 129.189 35.8C129.852 35.996 130.374 36.248 130.757 36.556C131.14 36.864 131.331 37.312 131.331 37.9C131.331 38.5907 131.056 39.132 130.505 39.524C129.964 39.9067 129.231 40.098 128.307 40.098ZM136.664 32.972C136.664 32.9253 136.678 32.888 136.706 32.86C136.744 32.8227 136.786 32.804 136.832 32.804H138.47C138.517 32.804 138.554 32.8227 138.582 32.86C138.62 32.888 138.638 32.9253 138.638 32.972V39.832C138.638 39.8787 138.62 39.9207 138.582 39.958C138.554 39.986 138.517 40 138.47 40H136.832C136.786 40 136.744 39.986 136.706 39.958C136.678 39.9207 136.664 39.8787 136.664 39.832V39.356C136.664 39.328 136.655 39.314 136.636 39.314C136.618 39.3047 136.599 39.314 136.58 39.342C136.207 39.846 135.628 40.098 134.844 40.098C134.135 40.098 133.552 39.8833 133.094 39.454C132.637 39.0247 132.408 38.4227 132.408 37.648V32.972C132.408 32.9253 132.422 32.888 132.45 32.86C132.488 32.8227 132.53 32.804 132.576 32.804H134.2C134.247 32.804 134.284 32.8227 134.312 32.86C134.35 32.888 134.368 32.9253 134.368 32.972V37.158C134.368 37.5313 134.466 37.8347 134.662 38.068C134.868 38.3013 135.148 38.418 135.502 38.418C135.82 38.418 136.081 38.3247 136.286 38.138C136.492 37.942 136.618 37.69 136.664 37.382V32.972ZM140.261 40C140.215 40 140.173 39.986 140.135 39.958C140.107 39.9207 140.093 39.8787 140.093 39.832V30.368C140.093 30.3213 140.107 30.284 140.135 30.256C140.173 30.2187 140.215 30.2 140.261 30.2H141.899C141.946 30.2 141.983 30.2187 142.011 30.256C142.049 30.284 142.067 30.3213 142.067 30.368V35.086C142.067 35.114 142.077 35.1327 142.095 35.142C142.114 35.142 142.133 35.1327 142.151 35.114L144.055 32.902C144.121 32.8367 144.191 32.804 144.265 32.804H146.127C146.221 32.804 146.267 32.8367 146.267 32.902C146.267 32.93 146.253 32.9673 146.225 33.014L144.447 35.268C144.429 35.3053 144.424 35.338 144.433 35.366L146.519 39.804C146.538 39.8413 146.547 39.8693 146.547 39.888C146.547 39.9627 146.496 40 146.393 40H144.671C144.578 40 144.513 39.958 144.475 39.874L143.089 36.598C143.08 36.5793 143.061 36.57 143.033 36.57C143.015 36.5607 143.001 36.5653 142.991 36.584L142.095 37.704C142.077 37.7413 142.067 37.7693 142.067 37.788V39.832C142.067 39.8787 142.049 39.9207 142.011 39.958C141.983 39.986 141.946 40 141.899 40H140.261ZM150.114 32.692C150.72 32.692 151.262 32.7993 151.738 33.014C152.214 33.2193 152.582 33.504 152.844 33.868C153.114 34.232 153.25 34.638 153.25 35.086V39.832C153.25 39.8787 153.231 39.9207 153.194 39.958C153.166 39.986 153.128 40 153.082 40H151.444C151.397 40 151.355 39.986 151.318 39.958C151.29 39.9207 151.276 39.8787 151.276 39.832V39.37C151.276 39.342 151.266 39.3233 151.248 39.314C151.229 39.3047 151.21 39.314 151.192 39.342C150.8 39.8553 150.17 40.112 149.302 40.112C148.574 40.112 147.986 39.9347 147.538 39.58C147.09 39.2253 146.866 38.7027 146.866 38.012C146.866 37.2933 147.118 36.738 147.622 36.346C148.126 35.9447 148.844 35.744 149.778 35.744H151.206C151.252 35.744 151.276 35.7207 151.276 35.674V35.366C151.276 35.058 151.182 34.82 150.996 34.652C150.809 34.4747 150.529 34.386 150.156 34.386C149.866 34.386 149.624 34.4373 149.428 34.54C149.241 34.6427 149.12 34.7873 149.064 34.974C149.036 35.0767 148.975 35.1233 148.882 35.114L147.188 34.89C147.076 34.8713 147.024 34.8293 147.034 34.764C147.071 34.372 147.225 34.0173 147.496 33.7C147.776 33.3827 148.14 33.1353 148.588 32.958C149.045 32.7807 149.554 32.692 150.114 32.692ZM149.834 38.642C150.235 38.642 150.576 38.5347 150.856 38.32C151.136 38.1053 151.276 37.83 151.276 37.494V36.99C151.276 36.9433 151.252 36.92 151.206 36.92H150.198C149.778 36.92 149.446 36.9993 149.204 37.158C148.97 37.3167 148.854 37.5407 148.854 37.83C148.854 38.082 148.942 38.2827 149.12 38.432C149.297 38.572 149.535 38.642 149.834 38.642ZM165.423 32.692C166.151 32.692 166.72 32.9113 167.131 33.35C167.542 33.7887 167.747 34.4047 167.747 35.198V39.832C167.747 39.8787 167.728 39.9207 167.691 39.958C167.663 39.986 167.626 40 167.579 40H165.941C165.894 40 165.852 39.986 165.815 39.958C165.787 39.9207 165.773 39.8787 165.773 39.832V35.632C165.773 35.2493 165.675 34.946 165.479 34.722C165.283 34.498 165.022 34.386 164.695 34.386C164.368 34.386 164.102 34.498 163.897 34.722C163.692 34.946 163.589 35.2447 163.589 35.618V39.832C163.589 39.8787 163.57 39.9207 163.533 39.958C163.505 39.986 163.468 40 163.421 40H161.797C161.75 40 161.708 39.986 161.671 39.958C161.643 39.9207 161.629 39.8787 161.629 39.832V35.632C161.629 35.2587 161.526 34.96 161.321 34.736C161.116 34.5027 160.85 34.386 160.523 34.386C160.224 34.386 159.972 34.4747 159.767 34.652C159.571 34.8293 159.454 35.0767 159.417 35.394V39.832C159.417 39.8787 159.398 39.9207 159.361 39.958C159.333 39.986 159.296 40 159.249 40H157.611C157.564 40 157.522 39.986 157.485 39.958C157.457 39.9207 157.443 39.8787 157.443 39.832V32.972C157.443 32.9253 157.457 32.888 157.485 32.86C157.522 32.8227 157.564 32.804 157.611 32.804H159.249C159.296 32.804 159.333 32.8227 159.361 32.86C159.398 32.888 159.417 32.9253 159.417 32.972V33.518C159.417 33.546 159.426 33.5647 159.445 33.574C159.464 33.5833 159.482 33.574 159.501 33.546C159.884 32.9767 160.476 32.692 161.279 32.692C161.746 32.692 162.152 32.79 162.497 32.986C162.852 33.182 163.122 33.462 163.309 33.826C163.337 33.882 163.37 33.882 163.407 33.826C163.612 33.4433 163.888 33.1587 164.233 32.972C164.588 32.7853 164.984 32.692 165.423 32.692ZM175.461 35.66C175.517 36.0147 175.536 36.4113 175.517 36.85C175.508 36.962 175.447 37.018 175.335 37.018H171.009C170.953 37.018 170.935 37.0413 170.953 37.088C170.981 37.2747 171.033 37.4613 171.107 37.648C171.35 38.1707 171.845 38.432 172.591 38.432C173.189 38.4227 173.66 38.18 174.005 37.704C174.043 37.648 174.085 37.62 174.131 37.62C174.159 37.62 174.192 37.6387 174.229 37.676L175.237 38.67C175.284 38.7167 175.307 38.7587 175.307 38.796C175.307 38.8147 175.289 38.852 175.251 38.908C174.943 39.2907 174.547 39.5893 174.061 39.804C173.576 40.0093 173.044 40.112 172.465 40.112C171.663 40.112 170.981 39.93 170.421 39.566C169.871 39.202 169.474 38.6933 169.231 38.04C169.035 37.5733 168.937 36.962 168.937 36.206C168.937 35.6927 169.007 35.24 169.147 34.848C169.362 34.1853 169.735 33.658 170.267 33.266C170.809 32.874 171.448 32.678 172.185 32.678C173.119 32.678 173.865 32.9487 174.425 33.49C174.995 34.0313 175.34 34.7547 175.461 35.66ZM172.199 34.386C171.611 34.386 171.224 34.6613 171.037 35.212C171 35.3333 170.967 35.4827 170.939 35.66C170.939 35.7067 170.963 35.73 171.009 35.73H173.431C173.487 35.73 173.506 35.7067 173.487 35.66C173.441 35.3893 173.417 35.2587 173.417 35.268C173.333 34.988 173.184 34.7733 172.969 34.624C172.764 34.4653 172.507 34.386 172.199 34.386ZM180.486 32.692C181.233 32.692 181.835 32.9207 182.292 33.378C182.749 33.8353 182.978 34.456 182.978 35.24V39.832C182.978 39.8787 182.959 39.9207 182.922 39.958C182.894 39.986 182.857 40 182.81 40H181.172C181.125 40 181.083 39.986 181.046 39.958C181.018 39.9207 181.004 39.8787 181.004 39.832V35.646C181.004 35.2727 180.897 34.9693 180.682 34.736C180.477 34.5027 180.201 34.386 179.856 34.386C179.511 34.386 179.231 34.5027 179.016 34.736C178.811 34.9693 178.708 35.2727 178.708 35.646V39.832C178.708 39.8787 178.689 39.9207 178.652 39.958C178.624 39.986 178.587 40 178.54 40H176.902C176.855 40 176.813 39.986 176.776 39.958C176.748 39.9207 176.734 39.8787 176.734 39.832V32.972C176.734 32.9253 176.748 32.888 176.776 32.86C176.813 32.8227 176.855 32.804 176.902 32.804H178.54C178.587 32.804 178.624 32.8227 178.652 32.86C178.689 32.888 178.708 32.9253 178.708 32.972V33.462C178.708 33.49 178.717 33.5087 178.736 33.518C178.755 33.5273 178.769 33.5227 178.778 33.504C179.161 32.9627 179.73 32.692 180.486 32.692ZM188.59 32.972C188.59 32.9253 188.604 32.888 188.632 32.86C188.669 32.8227 188.711 32.804 188.758 32.804H190.396C190.443 32.804 190.48 32.8227 190.508 32.86C190.545 32.888 190.564 32.9253 190.564 32.972V39.832C190.564 39.8787 190.545 39.9207 190.508 39.958C190.48 39.986 190.443 40 190.396 40H188.758C188.711 40 188.669 39.986 188.632 39.958C188.604 39.9207 188.59 39.8787 188.59 39.832V39.356C188.59 39.328 188.581 39.314 188.562 39.314C188.543 39.3047 188.525 39.314 188.506 39.342C188.133 39.846 187.554 40.098 186.77 40.098C186.061 40.098 185.477 39.8833 185.02 39.454C184.563 39.0247 184.334 38.4227 184.334 37.648V32.972C184.334 32.9253 184.348 32.888 184.376 32.86C184.413 32.8227 184.455 32.804 184.502 32.804H186.126C186.173 32.804 186.21 32.8227 186.238 32.86C186.275 32.888 186.294 32.9253 186.294 32.972V37.158C186.294 37.5313 186.392 37.8347 186.588 38.068C186.793 38.3013 187.073 38.418 187.428 38.418C187.745 38.418 188.007 38.3247 188.212 38.138C188.417 37.942 188.543 37.69 188.59 37.382V32.972ZM197.986 40.112C197.239 40.112 196.59 39.9253 196.04 39.552C195.498 39.1787 195.111 38.6653 194.878 38.012C194.719 37.5453 194.64 36.9947 194.64 36.36C194.64 35.7347 194.719 35.1933 194.878 34.736C195.102 34.1013 195.489 33.602 196.04 33.238C196.59 32.874 197.239 32.692 197.986 32.692C198.732 32.692 199.386 32.8787 199.946 33.252C200.515 33.6253 200.893 34.0967 201.08 34.666C201.154 34.89 201.192 35.058 201.192 35.17V35.198C201.192 35.282 201.145 35.3333 201.052 35.352L199.442 35.59H199.414C199.33 35.59 199.274 35.5433 199.246 35.45L199.204 35.226C199.138 34.9833 198.994 34.7827 198.77 34.624C198.546 34.4653 198.28 34.386 197.972 34.386C197.673 34.386 197.421 34.4607 197.216 34.61C197.01 34.7593 196.866 34.9647 196.782 35.226C196.679 35.506 196.628 35.8887 196.628 36.374C196.628 36.8593 196.674 37.242 196.768 37.522C196.852 37.802 196.996 38.0213 197.202 38.18C197.416 38.3387 197.673 38.418 197.972 38.418C198.261 38.418 198.513 38.3433 198.728 38.194C198.952 38.0353 199.106 37.8207 199.19 37.55C199.199 37.5313 199.204 37.5033 199.204 37.466C199.213 37.4567 199.218 37.4427 199.218 37.424C199.227 37.312 199.292 37.2653 199.414 37.284L201.024 37.536C201.117 37.5547 201.164 37.606 201.164 37.69C201.164 37.7647 201.136 37.9047 201.08 38.11C200.884 38.7353 200.501 39.2253 199.932 39.58C199.372 39.9347 198.723 40.112 197.986 40.112ZM206.093 32.692C206.84 32.692 207.442 32.9207 207.899 33.378C208.357 33.8353 208.585 34.456 208.585 35.24V39.832C208.585 39.8787 208.567 39.9207 208.529 39.958C208.501 39.986 208.464 40 208.417 40H206.779C206.733 40 206.691 39.986 206.653 39.958C206.625 39.9207 206.611 39.8787 206.611 39.832V35.646C206.611 35.2727 206.504 34.9693 206.289 34.736C206.084 34.5027 205.809 34.386 205.463 34.386C205.118 34.386 204.838 34.5027 204.623 34.736C204.418 34.9693 204.315 35.2727 204.315 35.646V39.832C204.315 39.8787 204.297 39.9207 204.259 39.958C204.231 39.986 204.194 40 204.147 40H202.509C202.463 40 202.421 39.986 202.383 39.958C202.355 39.9207 202.341 39.8787 202.341 39.832V30.368C202.341 30.3213 202.355 30.284 202.383 30.256C202.421 30.2187 202.463 30.2 202.509 30.2H204.147C204.194 30.2 204.231 30.2187 204.259 30.256C204.297 30.284 204.315 30.3213 204.315 30.368V33.462C204.315 33.49 204.325 33.5087 204.343 33.518C204.362 33.5273 204.376 33.5227 204.385 33.504C204.768 32.9627 205.337 32.692 206.093 32.692ZM213.135 40.112C212.351 40.112 211.679 39.9067 211.119 39.496C210.559 39.0853 210.176 38.5253 209.971 37.816C209.84 37.3773 209.775 36.9013 209.775 36.388C209.775 35.8373 209.84 35.3427 209.971 34.904C210.185 34.2133 210.573 33.672 211.133 33.28C211.693 32.888 212.365 32.692 213.149 32.692C213.914 32.692 214.567 32.888 215.109 33.28C215.65 33.6627 216.033 34.1993 216.257 34.89C216.406 35.3567 216.481 35.8467 216.481 36.36C216.481 36.864 216.415 37.3353 216.285 37.774C216.079 38.502 215.697 39.076 215.137 39.496C214.586 39.9067 213.919 40.112 213.135 40.112ZM213.135 38.418C213.443 38.418 213.704 38.3247 213.919 38.138C214.133 37.9513 214.287 37.6947 214.381 37.368C214.455 37.0693 214.493 36.7427 214.493 36.388C214.493 35.996 214.455 35.6647 214.381 35.394C214.278 35.0767 214.119 34.8293 213.905 34.652C213.69 34.4747 213.429 34.386 213.121 34.386C212.803 34.386 212.537 34.4747 212.323 34.652C212.117 34.8293 211.968 35.0767 211.875 35.394C211.8 35.618 211.763 35.9493 211.763 36.388C211.763 36.808 211.795 37.1347 211.861 37.368C211.954 37.6947 212.108 37.9513 212.323 38.138C212.547 38.3247 212.817 38.418 213.135 38.418ZM220.913 40.112C220.167 40.112 219.518 39.9253 218.967 39.552C218.426 39.1787 218.039 38.6653 217.805 38.012C217.647 37.5453 217.567 36.9947 217.567 36.36C217.567 35.7347 217.647 35.1933 217.805 34.736C218.029 34.1013 218.417 33.602 218.967 33.238C219.518 32.874 220.167 32.692 220.913 32.692C221.66 32.692 222.313 32.8787 222.873 33.252C223.443 33.6253 223.821 34.0967 224.007 34.666C224.082 34.89 224.119 35.058 224.119 35.17V35.198C224.119 35.282 224.073 35.3333 223.979 35.352L222.369 35.59H222.341C222.257 35.59 222.201 35.5433 222.173 35.45L222.131 35.226C222.066 34.9833 221.921 34.7827 221.697 34.624C221.473 34.4653 221.207 34.386 220.899 34.386C220.601 34.386 220.349 34.4607 220.143 34.61C219.938 34.7593 219.793 34.9647 219.709 35.226C219.607 35.506 219.555 35.8887 219.555 36.374C219.555 36.8593 219.602 37.242 219.695 37.522C219.779 37.802 219.924 38.0213 220.129 38.18C220.344 38.3387 220.601 38.418 220.899 38.418C221.189 38.418 221.441 38.3433 221.655 38.194C221.879 38.0353 222.033 37.8207 222.117 37.55C222.127 37.5313 222.131 37.5033 222.131 37.466C222.141 37.4567 222.145 37.4427 222.145 37.424C222.155 37.312 222.22 37.2653 222.341 37.284L223.951 37.536C224.045 37.5547 224.091 37.606 224.091 37.69C224.091 37.7647 224.063 37.9047 224.007 38.11C223.811 38.7353 223.429 39.2253 222.859 39.58C222.299 39.9347 221.651 40.112 220.913 40.112ZM228.365 40.112C227.581 40.112 226.909 39.9067 226.349 39.496C225.789 39.0853 225.406 38.5253 225.201 37.816C225.07 37.3773 225.005 36.9013 225.005 36.388C225.005 35.8373 225.07 35.3427 225.201 34.904C225.416 34.2133 225.803 33.672 226.363 33.28C226.923 32.888 227.595 32.692 228.379 32.692C229.144 32.692 229.798 32.888 230.339 33.28C230.88 33.6627 231.263 34.1993 231.487 34.89C231.636 35.3567 231.711 35.8467 231.711 36.36C231.711 36.864 231.646 37.3353 231.515 37.774C231.31 38.502 230.927 39.076 230.367 39.496C229.816 39.9067 229.149 40.112 228.365 40.112ZM228.365 38.418C228.673 38.418 228.934 38.3247 229.149 38.138C229.364 37.9513 229.518 37.6947 229.611 37.368C229.686 37.0693 229.723 36.7427 229.723 36.388C229.723 35.996 229.686 35.6647 229.611 35.394C229.508 35.0767 229.35 34.8293 229.135 34.652C228.92 34.4747 228.659 34.386 228.351 34.386C228.034 34.386 227.768 34.4747 227.553 34.652C227.348 34.8293 227.198 35.0767 227.105 35.394C227.03 35.618 226.993 35.9493 226.993 36.388C226.993 36.808 227.026 37.1347 227.091 37.368C227.184 37.6947 227.338 37.9513 227.553 38.138C227.777 38.3247 228.048 38.418 228.365 38.418ZM238.653 40.098C238.027 40.098 237.481 40.0093 237.015 39.832C236.548 39.6547 236.184 39.4073 235.923 39.09C235.671 38.7727 235.545 38.4133 235.545 38.012V37.872C235.545 37.8253 235.559 37.788 235.587 37.76C235.624 37.7227 235.666 37.704 235.713 37.704H237.267C237.313 37.704 237.351 37.7227 237.379 37.76C237.416 37.788 237.435 37.8253 237.435 37.872V37.886C237.435 38.0913 237.547 38.2687 237.771 38.418C238.004 38.558 238.293 38.628 238.639 38.628C238.956 38.628 239.213 38.5673 239.409 38.446C239.605 38.3153 239.703 38.1567 239.703 37.97C239.703 37.802 239.619 37.676 239.451 37.592C239.283 37.508 239.007 37.4193 238.625 37.326C238.186 37.214 237.841 37.1067 237.589 37.004C236.991 36.7987 236.515 36.5467 236.161 36.248C235.806 35.9493 235.629 35.52 235.629 34.96C235.629 34.2693 235.895 33.7233 236.427 33.322C236.968 32.9113 237.682 32.706 238.569 32.706C239.166 32.706 239.689 32.804 240.137 33C240.585 33.1867 240.93 33.4527 241.173 33.798C241.425 34.1433 241.551 34.5353 241.551 34.974C241.551 35.0207 241.532 35.0627 241.495 35.1C241.467 35.128 241.429 35.142 241.383 35.142H239.885C239.838 35.142 239.796 35.128 239.759 35.1C239.731 35.0627 239.717 35.0207 239.717 34.974C239.717 34.7687 239.609 34.596 239.395 34.456C239.189 34.316 238.914 34.246 238.569 34.246C238.261 34.246 238.009 34.302 237.813 34.414C237.617 34.526 237.519 34.68 237.519 34.876C237.519 35.0627 237.612 35.2027 237.799 35.296C237.995 35.3893 238.317 35.4873 238.765 35.59C238.867 35.618 238.984 35.6507 239.115 35.688C239.245 35.716 239.385 35.7533 239.535 35.8C240.197 35.996 240.72 36.248 241.103 36.556C241.485 36.864 241.677 37.312 241.677 37.9C241.677 38.5907 241.401 39.132 240.851 39.524C240.309 39.9067 239.577 40.098 238.653 40.098ZM249.18 35.66C249.236 36.0147 249.255 36.4113 249.236 36.85C249.227 36.962 249.166 37.018 249.054 37.018H244.728C244.672 37.018 244.653 37.0413 244.672 37.088C244.7 37.2747 244.751 37.4613 244.826 37.648C245.069 38.1707 245.563 38.432 246.31 38.432C246.907 38.4227 247.379 38.18 247.724 37.704C247.761 37.648 247.803 37.62 247.85 37.62C247.878 37.62 247.911 37.6387 247.948 37.676L248.956 38.67C249.003 38.7167 249.026 38.7587 249.026 38.796C249.026 38.8147 249.007 38.852 248.97 38.908C248.662 39.2907 248.265 39.5893 247.78 39.804C247.295 40.0093 246.763 40.112 246.184 40.112C245.381 40.112 244.7 39.93 244.14 39.566C243.589 39.202 243.193 38.6933 242.95 38.04C242.754 37.5733 242.656 36.962 242.656 36.206C242.656 35.6927 242.726 35.24 242.866 34.848C243.081 34.1853 243.454 33.658 243.986 33.266C244.527 32.874 245.167 32.678 245.904 32.678C246.837 32.678 247.584 32.9487 248.144 33.49C248.713 34.0313 249.059 34.7547 249.18 35.66ZM245.918 34.386C245.33 34.386 244.943 34.6613 244.756 35.212C244.719 35.3333 244.686 35.4827 244.658 35.66C244.658 35.7067 244.681 35.73 244.728 35.73H247.15C247.206 35.73 247.225 35.7067 247.206 35.66C247.159 35.3893 247.136 35.2587 247.136 35.268C247.052 34.988 246.903 34.7733 246.688 34.624C246.483 34.4653 246.226 34.386 245.918 34.386ZM254.037 32.706C254.373 32.706 254.639 32.7713 254.835 32.902C254.909 32.9393 254.937 33.0093 254.919 33.112L254.625 34.708C254.615 34.82 254.55 34.8527 254.429 34.806C254.289 34.7593 254.125 34.736 253.939 34.736C253.864 34.736 253.761 34.7453 253.631 34.764C253.295 34.792 253.01 34.918 252.777 35.142C252.543 35.3567 252.427 35.646 252.427 36.01V39.832C252.427 39.8787 252.408 39.9207 252.371 39.958C252.343 39.986 252.305 40 252.259 40H250.621C250.574 40 250.532 39.986 250.495 39.958C250.467 39.9207 250.453 39.8787 250.453 39.832V32.972C250.453 32.9253 250.467 32.888 250.495 32.86C250.532 32.8227 250.574 32.804 250.621 32.804H252.259C252.305 32.804 252.343 32.8227 252.371 32.86C252.408 32.888 252.427 32.9253 252.427 32.972V33.504C252.427 33.532 252.436 33.5507 252.455 33.56C252.473 33.5693 252.487 33.5647 252.497 33.546C252.879 32.986 253.393 32.706 254.037 32.706ZM256.876 31.992C256.559 31.992 256.293 31.8893 256.078 31.684C255.873 31.4693 255.77 31.2033 255.77 30.886C255.77 30.5593 255.873 30.2933 256.078 30.088C256.283 29.8827 256.549 29.78 256.876 29.78C257.203 29.78 257.469 29.8827 257.674 30.088C257.879 30.2933 257.982 30.5593 257.982 30.886C257.982 31.2033 257.875 31.4693 257.66 31.684C257.455 31.8893 257.193 31.992 256.876 31.992ZM256.036 40C255.989 40 255.947 39.986 255.91 39.958C255.882 39.9207 255.868 39.8787 255.868 39.832V32.958C255.868 32.9113 255.882 32.874 255.91 32.846C255.947 32.8087 255.989 32.79 256.036 32.79H257.674C257.721 32.79 257.758 32.8087 257.786 32.846C257.823 32.874 257.842 32.9113 257.842 32.958V39.832C257.842 39.8787 257.823 39.9207 257.786 39.958C257.758 39.986 257.721 40 257.674 40H256.036ZM265.75 35.66C265.806 36.0147 265.825 36.4113 265.806 36.85C265.797 36.962 265.736 37.018 265.624 37.018H261.298C261.242 37.018 261.224 37.0413 261.242 37.088C261.27 37.2747 261.322 37.4613 261.396 37.648C261.639 38.1707 262.134 38.432 262.88 38.432C263.478 38.4227 263.949 38.18 264.294 37.704C264.332 37.648 264.374 37.62 264.42 37.62C264.448 37.62 264.481 37.6387 264.518 37.676L265.526 38.67C265.573 38.7167 265.596 38.7587 265.596 38.796C265.596 38.8147 265.578 38.852 265.54 38.908C265.232 39.2907 264.836 39.5893 264.35 39.804C263.865 40.0093 263.333 40.112 262.754 40.112C261.952 40.112 261.27 39.93 260.71 39.566C260.16 39.202 259.763 38.6933 259.52 38.04C259.324 37.5733 259.226 36.962 259.226 36.206C259.226 35.6927 259.296 35.24 259.436 34.848C259.651 34.1853 260.024 33.658 260.556 33.266C261.098 32.874 261.737 32.678 262.474 32.678C263.408 32.678 264.154 32.9487 264.714 33.49C265.284 34.0313 265.629 34.7547 265.75 35.66ZM262.488 34.386C261.9 34.386 261.513 34.6613 261.326 35.212C261.289 35.3333 261.256 35.4827 261.228 35.66C261.228 35.7067 261.252 35.73 261.298 35.73H263.72C263.776 35.73 263.795 35.7067 263.776 35.66C263.73 35.3893 263.706 35.2587 263.706 35.268C263.622 34.988 263.473 34.7733 263.258 34.624C263.053 34.4653 262.796 34.386 262.488 34.386ZM269.797 40.098C269.172 40.098 268.626 40.0093 268.159 39.832C267.693 39.6547 267.329 39.4073 267.067 39.09C266.815 38.7727 266.689 38.4133 266.689 38.012V37.872C266.689 37.8253 266.703 37.788 266.731 37.76C266.769 37.7227 266.811 37.704 266.857 37.704H268.411C268.458 37.704 268.495 37.7227 268.523 37.76C268.561 37.788 268.579 37.8253 268.579 37.872V37.886C268.579 38.0913 268.691 38.2687 268.915 38.418C269.149 38.558 269.438 38.628 269.783 38.628C270.101 38.628 270.357 38.5673 270.553 38.446C270.749 38.3153 270.847 38.1567 270.847 37.97C270.847 37.802 270.763 37.676 270.595 37.592C270.427 37.508 270.152 37.4193 269.769 37.326C269.331 37.214 268.985 37.1067 268.733 37.004C268.136 36.7987 267.66 36.5467 267.305 36.248C266.951 35.9493 266.773 35.52 266.773 34.96C266.773 34.2693 267.039 33.7233 267.571 33.322C268.113 32.9113 268.827 32.706 269.713 32.706C270.311 32.706 270.833 32.804 271.281 33C271.729 33.1867 272.075 33.4527 272.317 33.798C272.569 34.1433 272.695 34.5353 272.695 34.974C272.695 35.0207 272.677 35.0627 272.639 35.1C272.611 35.128 272.574 35.142 272.527 35.142H271.029C270.983 35.142 270.941 35.128 270.903 35.1C270.875 35.0627 270.861 35.0207 270.861 34.974C270.861 34.7687 270.754 34.596 270.539 34.456C270.334 34.316 270.059 34.246 269.713 34.246C269.405 34.246 269.153 34.302 268.957 34.414C268.761 34.526 268.663 34.68 268.663 34.876C268.663 35.0627 268.757 35.2027 268.943 35.296C269.139 35.3893 269.461 35.4873 269.909 35.59C270.012 35.618 270.129 35.6507 270.259 35.688C270.39 35.716 270.53 35.7533 270.679 35.8C271.342 35.996 271.865 36.248 272.247 36.556C272.63 36.864 272.821 37.312 272.821 37.9C272.821 38.5907 272.546 39.132 271.995 39.524C271.454 39.9067 270.721 40.098 269.797 40.098ZM275.047 40.056C274.729 40.056 274.463 39.9533 274.249 39.748C274.043 39.5333 273.941 39.2673 273.941 38.95C273.941 38.6233 274.043 38.3573 274.249 38.152C274.454 37.9467 274.72 37.844 275.047 37.844C275.373 37.844 275.639 37.9467 275.845 38.152C276.05 38.3573 276.153 38.6233 276.153 38.95C276.153 39.2673 276.045 39.5333 275.831 39.748C275.625 39.9533 275.364 40.056 275.047 40.056ZM113.193 55C113.1 55 113.034 54.958 112.997 54.874L111.247 50.996C111.228 50.9587 111.2 50.94 111.163 50.94H109.861C109.814 50.94 109.791 50.9633 109.791 51.01V54.832C109.791 54.8787 109.772 54.9207 109.735 54.958C109.707 54.986 109.67 55 109.623 55H107.985C107.938 55 107.896 54.986 107.859 54.958C107.831 54.9207 107.817 54.8787 107.817 54.832V45.368C107.817 45.3213 107.831 45.284 107.859 45.256C107.896 45.2187 107.938 45.2 107.985 45.2H111.989C112.586 45.2 113.109 45.3213 113.557 45.564C114.014 45.8067 114.364 46.152 114.607 46.6C114.859 47.048 114.985 47.566 114.985 48.154C114.985 48.7887 114.826 49.3347 114.509 49.792C114.192 50.24 113.748 50.5573 113.179 50.744C113.132 50.7627 113.118 50.7953 113.137 50.842L115.041 54.804C115.06 54.8413 115.069 54.8693 115.069 54.888C115.069 54.9627 115.018 55 114.915 55H113.193ZM109.861 46.894C109.814 46.894 109.791 46.9173 109.791 46.964V49.358C109.791 49.4047 109.814 49.428 109.861 49.428H111.695C112.087 49.428 112.404 49.3113 112.647 49.078C112.899 48.8447 113.025 48.5413 113.025 48.168C113.025 47.7947 112.899 47.4913 112.647 47.258C112.404 47.0153 112.087 46.894 111.695 46.894H109.861ZM122.565 50.66C122.621 51.0147 122.639 51.4113 122.621 51.85C122.611 51.962 122.551 52.018 122.439 52.018H118.113C118.057 52.018 118.038 52.0413 118.057 52.088C118.085 52.2747 118.136 52.4613 118.211 52.648C118.453 53.1707 118.948 53.432 119.695 53.432C120.292 53.4227 120.763 53.18 121.109 52.704C121.146 52.648 121.188 52.62 121.235 52.62C121.263 52.62 121.295 52.6387 121.333 52.676L122.341 53.67C122.387 53.7167 122.411 53.7587 122.411 53.796C122.411 53.8147 122.392 53.852 122.355 53.908C122.047 54.2907 121.65 54.5893 121.165 54.804C120.679 55.0093 120.147 55.112 119.569 55.112C118.766 55.112 118.085 54.93 117.525 54.566C116.974 54.202 116.577 53.6933 116.335 53.04C116.139 52.5733 116.041 51.962 116.041 51.206C116.041 50.6927 116.111 50.24 116.251 49.848C116.465 49.1853 116.839 48.658 117.371 48.266C117.912 47.874 118.551 47.678 119.289 47.678C120.222 47.678 120.969 47.9487 121.529 48.49C122.098 49.0313 122.443 49.7547 122.565 50.66ZM119.303 49.386C118.715 49.386 118.327 49.6613 118.141 50.212C118.103 50.3333 118.071 50.4827 118.043 50.66C118.043 50.7067 118.066 50.73 118.113 50.73H120.535C120.591 50.73 120.609 50.7067 120.591 50.66C120.544 50.3893 120.521 50.2587 120.521 50.268C120.437 49.988 120.287 49.7733 120.073 49.624C119.867 49.4653 119.611 49.386 119.303 49.386ZM127.001 55.112C126.255 55.112 125.606 54.9253 125.055 54.552C124.514 54.1787 124.127 53.6653 123.893 53.012C123.735 52.5453 123.655 51.9947 123.655 51.36C123.655 50.7347 123.735 50.1933 123.893 49.736C124.117 49.1013 124.505 48.602 125.055 48.238C125.606 47.874 126.255 47.692 127.001 47.692C127.748 47.692 128.401 47.8787 128.961 48.252C129.531 48.6253 129.909 49.0967 130.095 49.666C130.17 49.89 130.207 50.058 130.207 50.17V50.198C130.207 50.282 130.161 50.3333 130.067 50.352L128.457 50.59H128.429C128.345 50.59 128.289 50.5433 128.261 50.45L128.219 50.226C128.154 49.9833 128.009 49.7827 127.785 49.624C127.561 49.4653 127.295 49.386 126.987 49.386C126.689 49.386 126.437 49.4607 126.231 49.61C126.026 49.7593 125.881 49.9647 125.797 50.226C125.695 50.506 125.643 50.8887 125.643 51.374C125.643 51.8593 125.69 52.242 125.783 52.522C125.867 52.802 126.012 53.0213 126.217 53.18C126.432 53.3387 126.689 53.418 126.987 53.418C127.277 53.418 127.529 53.3433 127.743 53.194C127.967 53.0353 128.121 52.8207 128.205 52.55C128.215 52.5313 128.219 52.5033 128.219 52.466C128.229 52.4567 128.233 52.4427 128.233 52.424C128.243 52.312 128.308 52.2653 128.429 52.284L130.039 52.536C130.133 52.5547 130.179 52.606 130.179 52.69C130.179 52.7647 130.151 52.9047 130.095 53.11C129.899 53.7353 129.517 54.2253 128.947 54.58C128.387 54.9347 127.739 55.112 127.001 55.112ZM134.453 55.112C133.669 55.112 132.997 54.9067 132.437 54.496C131.877 54.0853 131.494 53.5253 131.289 52.816C131.158 52.3773 131.093 51.9013 131.093 51.388C131.093 50.8373 131.158 50.3427 131.289 49.904C131.504 49.2133 131.891 48.672 132.451 48.28C133.011 47.888 133.683 47.692 134.467 47.692C135.232 47.692 135.886 47.888 136.427 48.28C136.968 48.6627 137.351 49.1993 137.575 49.89C137.724 50.3567 137.799 50.8467 137.799 51.36C137.799 51.864 137.734 52.3353 137.603 52.774C137.398 53.502 137.015 54.076 136.455 54.496C135.904 54.9067 135.237 55.112 134.453 55.112ZM134.453 53.418C134.761 53.418 135.022 53.3247 135.237 53.138C135.452 52.9513 135.606 52.6947 135.699 52.368C135.774 52.0693 135.811 51.7427 135.811 51.388C135.811 50.996 135.774 50.6647 135.699 50.394C135.596 50.0767 135.438 49.8293 135.223 49.652C135.008 49.4747 134.747 49.386 134.439 49.386C134.122 49.386 133.856 49.4747 133.641 49.652C133.436 49.8293 133.286 50.0767 133.193 50.394C133.118 50.618 133.081 50.9493 133.081 51.388C133.081 51.808 133.114 52.1347 133.179 52.368C133.272 52.6947 133.426 52.9513 133.641 53.138C133.865 53.3247 134.136 53.418 134.453 53.418ZM147.048 47.692C147.776 47.692 148.345 47.9113 148.756 48.35C149.167 48.7887 149.372 49.4047 149.372 50.198V54.832C149.372 54.8787 149.353 54.9207 149.316 54.958C149.288 54.986 149.251 55 149.204 55H147.566C147.519 55 147.477 54.986 147.44 54.958C147.412 54.9207 147.398 54.8787 147.398 54.832V50.632C147.398 50.2493 147.3 49.946 147.104 49.722C146.908 49.498 146.647 49.386 146.32 49.386C145.993 49.386 145.727 49.498 145.522 49.722C145.317 49.946 145.214 50.2447 145.214 50.618V54.832C145.214 54.8787 145.195 54.9207 145.158 54.958C145.13 54.986 145.093 55 145.046 55H143.422C143.375 55 143.333 54.986 143.296 54.958C143.268 54.9207 143.254 54.8787 143.254 54.832V50.632C143.254 50.2587 143.151 49.96 142.946 49.736C142.741 49.5027 142.475 49.386 142.148 49.386C141.849 49.386 141.597 49.4747 141.392 49.652C141.196 49.8293 141.079 50.0767 141.042 50.394V54.832C141.042 54.8787 141.023 54.9207 140.986 54.958C140.958 54.986 140.921 55 140.874 55H139.236C139.189 55 139.147 54.986 139.11 54.958C139.082 54.9207 139.068 54.8787 139.068 54.832V47.972C139.068 47.9253 139.082 47.888 139.11 47.86C139.147 47.8227 139.189 47.804 139.236 47.804H140.874C140.921 47.804 140.958 47.8227 140.986 47.86C141.023 47.888 141.042 47.9253 141.042 47.972V48.518C141.042 48.546 141.051 48.5647 141.07 48.574C141.089 48.5833 141.107 48.574 141.126 48.546C141.509 47.9767 142.101 47.692 142.904 47.692C143.371 47.692 143.777 47.79 144.122 47.986C144.477 48.182 144.747 48.462 144.934 48.826C144.962 48.882 144.995 48.882 145.032 48.826C145.237 48.4433 145.513 48.1587 145.858 47.972C146.213 47.7853 146.609 47.692 147.048 47.692ZM158.737 47.692C159.465 47.692 160.035 47.9113 160.445 48.35C160.856 48.7887 161.061 49.4047 161.061 50.198V54.832C161.061 54.8787 161.043 54.9207 161.005 54.958C160.977 54.986 160.94 55 160.893 55H159.255C159.209 55 159.167 54.986 159.129 54.958C159.101 54.9207 159.087 54.8787 159.087 54.832V50.632C159.087 50.2493 158.989 49.946 158.793 49.722C158.597 49.498 158.336 49.386 158.009 49.386C157.683 49.386 157.417 49.498 157.211 49.722C157.006 49.946 156.903 50.2447 156.903 50.618V54.832C156.903 54.8787 156.885 54.9207 156.847 54.958C156.819 54.986 156.782 55 156.735 55H155.111C155.065 55 155.023 54.986 154.985 54.958C154.957 54.9207 154.943 54.8787 154.943 54.832V50.632C154.943 50.2587 154.841 49.96 154.635 49.736C154.43 49.5027 154.164 49.386 153.837 49.386C153.539 49.386 153.287 49.4747 153.081 49.652C152.885 49.8293 152.769 50.0767 152.731 50.394V54.832C152.731 54.8787 152.713 54.9207 152.675 54.958C152.647 54.986 152.61 55 152.563 55H150.925C150.879 55 150.837 54.986 150.799 54.958C150.771 54.9207 150.757 54.8787 150.757 54.832V47.972C150.757 47.9253 150.771 47.888 150.799 47.86C150.837 47.8227 150.879 47.804 150.925 47.804H152.563C152.61 47.804 152.647 47.8227 152.675 47.86C152.713 47.888 152.731 47.9253 152.731 47.972V48.518C152.731 48.546 152.741 48.5647 152.759 48.574C152.778 48.5833 152.797 48.574 152.815 48.546C153.198 47.9767 153.791 47.692 154.593 47.692C155.06 47.692 155.466 47.79 155.811 47.986C156.166 48.182 156.437 48.462 156.623 48.826C156.651 48.882 156.684 48.882 156.721 48.826C156.927 48.4433 157.202 48.1587 157.547 47.972C157.902 47.7853 158.299 47.692 158.737 47.692ZM168.776 50.66C168.832 51.0147 168.85 51.4113 168.832 51.85C168.822 51.962 168.762 52.018 168.65 52.018H164.324C164.268 52.018 164.249 52.0413 164.268 52.088C164.296 52.2747 164.347 52.4613 164.422 52.648C164.664 53.1707 165.159 53.432 165.906 53.432C166.503 53.4227 166.974 53.18 167.32 52.704C167.357 52.648 167.399 52.62 167.446 52.62C167.474 52.62 167.506 52.6387 167.544 52.676L168.552 53.67C168.598 53.7167 168.622 53.7587 168.622 53.796C168.622 53.8147 168.603 53.852 168.566 53.908C168.258 54.2907 167.861 54.5893 167.376 54.804C166.89 55.0093 166.358 55.112 165.78 55.112C164.977 55.112 164.296 54.93 163.736 54.566C163.185 54.202 162.788 53.6933 162.546 53.04C162.35 52.5733 162.252 51.962 162.252 51.206C162.252 50.6927 162.322 50.24 162.462 49.848C162.676 49.1853 163.05 48.658 163.582 48.266C164.123 47.874 164.762 47.678 165.5 47.678C166.433 47.678 167.18 47.9487 167.74 48.49C168.309 49.0313 168.654 49.7547 168.776 50.66ZM165.514 49.386C164.926 49.386 164.538 49.6613 164.352 50.212C164.314 50.3333 164.282 50.4827 164.254 50.66C164.254 50.7067 164.277 50.73 164.324 50.73H166.746C166.802 50.73 166.82 50.7067 166.802 50.66C166.755 50.3893 166.732 50.2587 166.732 50.268C166.648 49.988 166.498 49.7733 166.284 49.624C166.078 49.4653 165.822 49.386 165.514 49.386ZM173.8 47.692C174.547 47.692 175.149 47.9207 175.606 48.378C176.064 48.8353 176.292 49.456 176.292 50.24V54.832C176.292 54.8787 176.274 54.9207 176.236 54.958C176.208 54.986 176.171 55 176.124 55H174.486C174.44 55 174.398 54.986 174.36 54.958C174.332 54.9207 174.318 54.8787 174.318 54.832V50.646C174.318 50.2727 174.211 49.9693 173.996 49.736C173.791 49.5027 173.516 49.386 173.17 49.386C172.825 49.386 172.545 49.5027 172.33 49.736C172.125 49.9693 172.022 50.2727 172.022 50.646V54.832C172.022 54.8787 172.004 54.9207 171.966 54.958C171.938 54.986 171.901 55 171.854 55H170.216C170.17 55 170.128 54.986 170.09 54.958C170.062 54.9207 170.048 54.8787 170.048 54.832V47.972C170.048 47.9253 170.062 47.888 170.09 47.86C170.128 47.8227 170.17 47.804 170.216 47.804H171.854C171.901 47.804 171.938 47.8227 171.966 47.86C172.004 47.888 172.022 47.9253 172.022 47.972V48.462C172.022 48.49 172.032 48.5087 172.05 48.518C172.069 48.5273 172.083 48.5227 172.092 48.504C172.475 47.9627 173.044 47.692 173.8 47.692ZM182.13 45.368C182.13 45.3213 182.144 45.284 182.172 45.256C182.209 45.2187 182.251 45.2 182.298 45.2H183.936C183.982 45.2 184.02 45.2187 184.048 45.256C184.085 45.284 184.104 45.3213 184.104 45.368V54.832C184.104 54.8787 184.085 54.9207 184.048 54.958C184.02 54.986 183.982 55 183.936 55H182.298C182.251 55 182.209 54.986 182.172 54.958C182.144 54.9207 182.13 54.8787 182.13 54.832V54.37C182.13 54.342 182.12 54.328 182.102 54.328C182.083 54.3187 182.064 54.3233 182.046 54.342C181.654 54.8553 181.117 55.112 180.436 55.112C179.782 55.112 179.218 54.93 178.742 54.566C178.275 54.202 177.939 53.7027 177.734 53.068C177.575 52.5827 177.496 52.018 177.496 51.374C177.496 50.7113 177.58 50.1327 177.748 49.638C177.962 49.0407 178.298 48.5693 178.756 48.224C179.222 47.8693 179.796 47.692 180.478 47.692C181.15 47.692 181.672 47.9253 182.046 48.392C182.064 48.42 182.083 48.4293 182.102 48.42C182.12 48.4107 182.13 48.392 182.13 48.364V45.368ZM181.836 52.816C182.022 52.4707 182.116 51.9993 182.116 51.402C182.116 50.7767 182.013 50.2867 181.808 49.932C181.593 49.568 181.28 49.386 180.87 49.386C180.431 49.386 180.1 49.568 179.876 49.932C179.642 50.296 179.526 50.7907 179.526 51.416C179.526 51.976 179.624 52.4427 179.82 52.816C180.053 53.2173 180.398 53.418 180.856 53.418C181.276 53.418 181.602 53.2173 181.836 52.816ZM188.564 55C188.517 55 188.475 54.986 188.438 54.958C188.41 54.9207 188.396 54.8787 188.396 54.832V45.368C188.396 45.3213 188.41 45.284 188.438 45.256C188.475 45.2187 188.517 45.2 188.564 45.2H190.202C190.249 45.2 190.286 45.2187 190.314 45.256C190.351 45.284 190.37 45.3213 190.37 45.368V54.832C190.37 54.8787 190.351 54.9207 190.314 54.958C190.286 54.986 190.249 55 190.202 55H188.564ZM194.684 47.692C195.291 47.692 195.832 47.7993 196.308 48.014C196.784 48.2193 197.153 48.504 197.414 48.868C197.685 49.232 197.82 49.638 197.82 50.086V54.832C197.82 54.8787 197.801 54.9207 197.764 54.958C197.736 54.986 197.699 55 197.652 55H196.014C195.967 55 195.925 54.986 195.888 54.958C195.86 54.9207 195.846 54.8787 195.846 54.832V54.37C195.846 54.342 195.837 54.3233 195.818 54.314C195.799 54.3047 195.781 54.314 195.762 54.342C195.37 54.8553 194.74 55.112 193.872 55.112C193.144 55.112 192.556 54.9347 192.108 54.58C191.66 54.2253 191.436 53.7027 191.436 53.012C191.436 52.2933 191.688 51.738 192.192 51.346C192.696 50.9447 193.415 50.744 194.348 50.744H195.776C195.823 50.744 195.846 50.7207 195.846 50.674V50.366C195.846 50.058 195.753 49.82 195.566 49.652C195.379 49.4747 195.099 49.386 194.726 49.386C194.437 49.386 194.194 49.4373 193.998 49.54C193.811 49.6427 193.69 49.7873 193.634 49.974C193.606 50.0767 193.545 50.1233 193.452 50.114L191.758 49.89C191.646 49.8713 191.595 49.8293 191.604 49.764C191.641 49.372 191.795 49.0173 192.066 48.7C192.346 48.3827 192.71 48.1353 193.158 47.958C193.615 47.7807 194.124 47.692 194.684 47.692ZM194.404 53.642C194.805 53.642 195.146 53.5347 195.426 53.32C195.706 53.1053 195.846 52.83 195.846 52.494V51.99C195.846 51.9433 195.823 51.92 195.776 51.92H194.768C194.348 51.92 194.017 51.9993 193.774 52.158C193.541 52.3167 193.424 52.5407 193.424 52.83C193.424 53.082 193.513 53.2827 193.69 53.432C193.867 53.572 194.105 53.642 194.404 53.642ZM202.962 47.692C203.709 47.692 204.311 47.9207 204.768 48.378C205.226 48.8353 205.454 49.456 205.454 50.24V54.832C205.454 54.8787 205.436 54.9207 205.398 54.958C205.37 54.986 205.333 55 205.286 55H203.648C203.602 55 203.56 54.986 203.522 54.958C203.494 54.9207 203.48 54.8787 203.48 54.832V50.646C203.48 50.2727 203.373 49.9693 203.158 49.736C202.953 49.5027 202.678 49.386 202.332 49.386C201.987 49.386 201.707 49.5027 201.492 49.736C201.287 49.9693 201.184 50.2727 201.184 50.646V54.832C201.184 54.8787 201.166 54.9207 201.128 54.958C201.1 54.986 201.063 55 201.016 55H199.378C199.332 55 199.29 54.986 199.252 54.958C199.224 54.9207 199.21 54.8787 199.21 54.832V45.368C199.21 45.3213 199.224 45.284 199.252 45.256C199.29 45.2187 199.332 45.2 199.378 45.2H201.016C201.063 45.2 201.1 45.2187 201.128 45.256C201.166 45.284 201.184 45.3213 201.184 45.368V48.462C201.184 48.49 201.194 48.5087 201.212 48.518C201.231 48.5273 201.245 48.5227 201.254 48.504C201.637 47.9627 202.206 47.692 202.962 47.692ZM216.095 49.736C216.263 50.212 216.347 50.772 216.347 51.416C216.347 52.06 216.259 52.6433 216.081 53.166C215.867 53.7633 215.526 54.2393 215.059 54.594C214.602 54.9393 214.033 55.112 213.351 55.112C212.679 55.112 212.157 54.8787 211.783 54.412C211.765 54.384 211.746 54.3747 211.727 54.384C211.709 54.3933 211.699 54.412 211.699 54.44V57.436C211.699 57.4827 211.681 57.52 211.643 57.548C211.615 57.5853 211.578 57.604 211.531 57.604H209.893C209.847 57.604 209.805 57.5853 209.767 57.548C209.739 57.52 209.725 57.4827 209.725 57.436V47.972C209.725 47.9253 209.739 47.888 209.767 47.86C209.805 47.8227 209.847 47.804 209.893 47.804H211.531C211.578 47.804 211.615 47.8227 211.643 47.86C211.681 47.888 211.699 47.9253 211.699 47.972V48.434C211.699 48.462 211.709 48.4807 211.727 48.49C211.746 48.49 211.765 48.4807 211.783 48.462C212.175 47.9487 212.717 47.692 213.407 47.692C214.051 47.692 214.607 47.874 215.073 48.238C215.549 48.5927 215.89 49.092 216.095 49.736ZM213.953 52.872C214.187 52.508 214.303 52.0133 214.303 51.388C214.303 50.8 214.205 50.3333 214.009 49.988C213.795 49.5867 213.449 49.386 212.973 49.386C212.544 49.386 212.222 49.5867 212.007 49.988C211.811 50.324 211.713 50.7953 211.713 51.402C211.713 52.0273 211.816 52.5127 212.021 52.858C212.236 53.2313 212.553 53.418 212.973 53.418C213.393 53.418 213.72 53.236 213.953 52.872ZM220.763 55.112C219.979 55.112 219.307 54.9067 218.747 54.496C218.187 54.0853 217.805 53.5253 217.599 52.816C217.469 52.3773 217.403 51.9013 217.403 51.388C217.403 50.8373 217.469 50.3427 217.599 49.904C217.814 49.2133 218.201 48.672 218.761 48.28C219.321 47.888 219.993 47.692 220.777 47.692C221.543 47.692 222.196 47.888 222.737 48.28C223.279 48.6627 223.661 49.1993 223.885 49.89C224.035 50.3567 224.109 50.8467 224.109 51.36C224.109 51.864 224.044 52.3353 223.913 52.774C223.708 53.502 223.325 54.076 222.765 54.496C222.215 54.9067 221.547 55.112 220.763 55.112ZM220.763 53.418C221.071 53.418 221.333 53.3247 221.547 53.138C221.762 52.9513 221.916 52.6947 222.009 52.368C222.084 52.0693 222.121 51.7427 222.121 51.388C222.121 50.996 222.084 50.6647 222.009 50.394C221.907 50.0767 221.748 49.8293 221.533 49.652C221.319 49.4747 221.057 49.386 220.749 49.386C220.432 49.386 220.166 49.4747 219.951 49.652C219.746 49.8293 219.597 50.0767 219.503 50.394C219.429 50.618 219.391 50.9493 219.391 51.388C219.391 51.808 219.424 52.1347 219.489 52.368C219.583 52.6947 219.737 52.9513 219.951 53.138C220.175 53.3247 220.446 53.418 220.763 53.418ZM225.546 55C225.5 55 225.458 54.986 225.42 54.958C225.392 54.9207 225.378 54.8787 225.378 54.832V45.368C225.378 45.3213 225.392 45.284 225.42 45.256C225.458 45.2187 225.5 45.2 225.546 45.2H227.184C227.231 45.2 227.268 45.2187 227.296 45.256C227.334 45.284 227.352 45.3213 227.352 45.368V50.086C227.352 50.114 227.362 50.1327 227.38 50.142C227.399 50.142 227.418 50.1327 227.436 50.114L229.34 47.902C229.406 47.8367 229.476 47.804 229.55 47.804H231.412C231.506 47.804 231.552 47.8367 231.552 47.902C231.552 47.93 231.538 47.9673 231.51 48.014L229.732 50.268C229.714 50.3053 229.709 50.338 229.718 50.366L231.804 54.804C231.823 54.8413 231.832 54.8693 231.832 54.888C231.832 54.9627 231.781 55 231.678 55H229.956C229.863 55 229.798 54.958 229.76 54.874L228.374 51.598C228.365 51.5793 228.346 51.57 228.318 51.57C228.3 51.5607 228.286 51.5653 228.276 51.584L227.38 52.704C227.362 52.7413 227.352 52.7693 227.352 52.788V54.832C227.352 54.8787 227.334 54.9207 227.296 54.958C227.268 54.986 227.231 55 227.184 55H225.546ZM235.379 55.112C234.595 55.112 233.923 54.9067 233.363 54.496C232.803 54.0853 232.42 53.5253 232.215 52.816C232.084 52.3773 232.019 51.9013 232.019 51.388C232.019 50.8373 232.084 50.3427 232.215 49.904C232.429 49.2133 232.817 48.672 233.377 48.28C233.937 47.888 234.609 47.692 235.393 47.692C236.158 47.692 236.811 47.888 237.353 48.28C237.894 48.6627 238.277 49.1993 238.501 49.89C238.65 50.3567 238.725 50.8467 238.725 51.36C238.725 51.864 238.659 52.3353 238.529 52.774C238.323 53.502 237.941 54.076 237.381 54.496C236.83 54.9067 236.163 55.112 235.379 55.112ZM235.379 53.418C235.687 53.418 235.948 53.3247 236.163 53.138C236.377 52.9513 236.531 52.6947 236.625 52.368C236.699 52.0693 236.737 51.7427 236.737 51.388C236.737 50.996 236.699 50.6647 236.625 50.394C236.522 50.0767 236.363 49.8293 236.149 49.652C235.934 49.4747 235.673 49.386 235.365 49.386C235.047 49.386 234.781 49.4747 234.567 49.652C234.361 49.8293 234.212 50.0767 234.119 50.394C234.044 50.618 234.007 50.9493 234.007 51.388C234.007 51.808 234.039 52.1347 234.105 52.368C234.198 52.6947 234.352 52.9513 234.567 53.138C234.791 53.3247 235.061 53.418 235.379 53.418ZM240.162 55C240.115 55 240.073 54.986 240.036 54.958C240.008 54.9207 239.994 54.8787 239.994 54.832V45.368C239.994 45.3213 240.008 45.284 240.036 45.256C240.073 45.2187 240.115 45.2 240.162 45.2H241.8C241.846 45.2 241.884 45.2187 241.912 45.256C241.949 45.284 241.968 45.3213 241.968 45.368V50.086C241.968 50.114 241.977 50.1327 241.996 50.142C242.014 50.142 242.033 50.1327 242.052 50.114L243.956 47.902C244.021 47.8367 244.091 47.804 244.166 47.804H246.028C246.121 47.804 246.168 47.8367 246.168 47.902C246.168 47.93 246.154 47.9673 246.126 48.014L244.348 50.268C244.329 50.3053 244.324 50.338 244.334 50.366L246.42 54.804C246.438 54.8413 246.448 54.8693 246.448 54.888C246.448 54.9627 246.396 55 246.294 55H244.572C244.478 55 244.413 54.958 244.376 54.874L242.99 51.598C242.98 51.5793 242.962 51.57 242.934 51.57C242.915 51.5607 242.901 51.5653 242.892 51.584L241.996 52.704C241.977 52.7413 241.968 52.7693 241.968 52.788V54.832C241.968 54.8787 241.949 54.9207 241.912 54.958C241.884 54.986 241.846 55 241.8 55H240.162ZM251.21 47.692C251.957 47.692 252.559 47.9207 253.016 48.378C253.474 48.8353 253.702 49.456 253.702 50.24V54.832C253.702 54.8787 253.684 54.9207 253.646 54.958C253.618 54.986 253.581 55 253.534 55H251.896C251.85 55 251.808 54.986 251.77 54.958C251.742 54.9207 251.728 54.8787 251.728 54.832V50.646C251.728 50.2727 251.621 49.9693 251.406 49.736C251.201 49.5027 250.926 49.386 250.58 49.386C250.235 49.386 249.955 49.5027 249.74 49.736C249.535 49.9693 249.432 50.2727 249.432 50.646V54.832C249.432 54.8787 249.414 54.9207 249.376 54.958C249.348 54.986 249.311 55 249.264 55H247.626C247.58 55 247.538 54.986 247.5 54.958C247.472 54.9207 247.458 54.8787 247.458 54.832V47.972C247.458 47.9253 247.472 47.888 247.5 47.86C247.538 47.8227 247.58 47.804 247.626 47.804H249.264C249.311 47.804 249.348 47.8227 249.376 47.86C249.414 47.888 249.432 47.9253 249.432 47.972V48.462C249.432 48.49 249.442 48.5087 249.46 48.518C249.479 48.5273 249.493 48.5227 249.502 48.504C249.885 47.9627 250.454 47.692 251.21 47.692ZM254.758 57.786C254.73 57.786 254.707 57.7673 254.688 57.73C254.67 57.702 254.66 57.6647 254.66 57.618V56.33C254.66 56.2833 254.674 56.2413 254.702 56.204C254.74 56.176 254.782 56.162 254.828 56.162C255.22 56.1527 255.528 56.12 255.752 56.064C255.986 56.008 256.168 55.9007 256.298 55.742C256.438 55.5833 256.546 55.35 256.62 55.042C256.63 55.0233 256.63 54.9953 256.62 54.958L254.324 47.986C254.315 47.9673 254.31 47.944 254.31 47.916C254.31 47.832 254.362 47.79 254.464 47.79H256.214C256.317 47.79 256.382 47.8367 256.41 47.93L257.586 52.466C257.596 52.494 257.61 52.508 257.628 52.508C257.647 52.508 257.661 52.494 257.67 52.466L258.846 47.93C258.874 47.8367 258.94 47.79 259.042 47.79H260.75C260.806 47.79 260.844 47.8087 260.862 47.846C260.89 47.874 260.895 47.9207 260.876 47.986L258.454 55.266C258.221 55.9473 257.983 56.456 257.74 56.792C257.498 57.1373 257.157 57.3893 256.718 57.548C256.28 57.7067 255.659 57.786 254.856 57.786H254.758ZM264.342 47.692C264.949 47.692 265.49 47.7993 265.966 48.014C266.442 48.2193 266.811 48.504 267.072 48.868C267.343 49.232 267.478 49.638 267.478 50.086V54.832C267.478 54.8787 267.459 54.9207 267.422 54.958C267.394 54.986 267.357 55 267.31 55H265.672C265.625 55 265.583 54.986 265.546 54.958C265.518 54.9207 265.504 54.8787 265.504 54.832V54.37C265.504 54.342 265.495 54.3233 265.476 54.314C265.457 54.3047 265.439 54.314 265.42 54.342C265.028 54.8553 264.398 55.112 263.53 55.112C262.802 55.112 262.214 54.9347 261.766 54.58C261.318 54.2253 261.094 53.7027 261.094 53.012C261.094 52.2933 261.346 51.738 261.85 51.346C262.354 50.9447 263.073 50.744 264.006 50.744H265.434C265.481 50.744 265.504 50.7207 265.504 50.674V50.366C265.504 50.058 265.411 49.82 265.224 49.652C265.037 49.4747 264.757 49.386 264.384 49.386C264.095 49.386 263.852 49.4373 263.656 49.54C263.469 49.6427 263.348 49.7873 263.292 49.974C263.264 50.0767 263.203 50.1233 263.11 50.114L261.416 49.89C261.304 49.8713 261.253 49.8293 261.262 49.764C261.299 49.372 261.453 49.0173 261.724 48.7C262.004 48.3827 262.368 48.1353 262.816 47.958C263.273 47.7807 263.782 47.692 264.342 47.692ZM264.062 53.642C264.463 53.642 264.804 53.5347 265.084 53.32C265.364 53.1053 265.504 52.83 265.504 52.494V51.99C265.504 51.9433 265.481 51.92 265.434 51.92H264.426C264.006 51.92 263.675 51.9993 263.432 52.158C263.199 52.3167 263.082 52.5407 263.082 52.83C263.082 53.082 263.171 53.2827 263.348 53.432C263.525 53.572 263.763 53.642 264.062 53.642ZM269.961 55.056C269.643 55.056 269.377 54.9533 269.163 54.748C268.957 54.5333 268.855 54.2673 268.855 53.95C268.855 53.6233 268.957 53.3573 269.163 53.152C269.368 52.9467 269.634 52.844 269.961 52.844C270.287 52.844 270.553 52.9467 270.759 53.152C270.964 53.3573 271.067 53.6233 271.067 53.95C271.067 54.2673 270.959 54.5333 270.745 54.748C270.539 54.9533 270.278 55.056 269.961 55.056ZM274.308 45.2C274.364 45.2 274.406 45.2187 274.434 45.256C274.462 45.284 274.467 45.3307 274.448 45.396L273.454 48.224C273.426 48.3173 273.365 48.364 273.272 48.364H272.096C271.975 48.364 271.928 48.3033 271.956 48.182L272.572 45.354C272.591 45.2513 272.651 45.2 272.754 45.2H274.308ZM276.786 45.2C276.842 45.2 276.884 45.2187 276.912 45.256C276.94 45.284 276.945 45.3307 276.926 45.396L275.918 48.224C275.89 48.3173 275.829 48.364 275.736 48.364H274.56C274.429 48.364 274.378 48.3033 274.406 48.182L275.05 45.354C275.078 45.2513 275.139 45.2 275.232 45.2H276.786Z" fill="#F3FEB0"/>
<circle r="24" transform="matrix(-1 0 0 1 322.5 38.5)" fill="#705E78" stroke="#F3FEB0" stroke-width="3"/>
<path d="M333.788 36.6977L335 35.4857L326.429 27L325.302 28.2129L326.319 29.2294L316.469 37.5617L314.998 36.0917L313.786 37.2857L318.635 42.1517L311 49.7854L312.209 51L319.847 43.3637L324.714 48.2126L325.908 47.0006L324.437 45.5297L332.772 35.6811L333.788 36.6977Z" fill="#F3FEB0"/>
</svg>
