<svg width="24" height="24" viewBox="0 0 24 24" fill="none" xmlns="http://www.w3.org/2000/svg">
<path d="M20.5025 3.4921C19.3968 2.3808 18.0798 1.49968 16.6283 0.900139C15.1768 0.300595 13.6198 -0.00537618 12.0482 7.14841e-05C5.46332 7.14841e-05 0.0964826 5.34011 0.0964826 11.8922C0.0964826 13.9922 0.651256 16.0322 1.68844 17.8322L0 24.0002L6.33166 22.3442C8.0804 23.2922 10.0462 23.7962 12.0482 23.7962C18.6332 23.7962 24 18.4562 24 11.9042C24 8.72413 22.7578 5.73611 20.5025 3.4921ZM12.0482 21.7802C10.2633 21.7802 8.51457 21.3002 6.98291 20.4002L6.6211 20.1842L2.85829 21.1682L3.8593 17.5202L3.61809 17.1482C2.62643 15.5725 2.09987 13.7513 2.09849 11.8922C2.09849 6.44412 6.5608 2.00409 12.0362 2.00409C14.6894 2.00409 17.1859 3.03609 19.0553 4.90811C19.9809 5.82487 20.7144 6.91532 21.2133 8.11624C21.7123 9.31716 21.9667 10.6047 21.9618 11.9042C21.9859 17.3522 17.5236 21.7802 12.0482 21.7802ZM17.4995 14.3882C17.198 14.2442 15.7266 13.5242 15.4613 13.4162C15.1839 13.3202 14.991 13.2722 14.7859 13.5602C14.5809 13.8602 14.0141 14.5322 13.8452 14.7242C13.6764 14.9282 13.4955 14.9522 13.194 14.7962C12.8925 14.6522 11.9276 14.3282 10.794 13.3202C9.90151 12.5282 9.31055 11.5562 9.12965 11.2562C8.9608 10.9561 9.10553 10.8001 9.26231 10.6441C9.39497 10.5121 9.56382 10.2961 9.70854 10.1281C9.85327 9.96014 9.91357 9.82814 10.01 9.63614C10.1065 9.43214 10.0583 9.26414 9.98593 9.12014C9.91357 8.97614 9.31055 7.51213 9.06935 6.91212C8.82814 6.33612 8.57487 6.40812 8.39397 6.39612H7.81507C7.61005 6.39612 7.29648 6.46812 7.01909 6.76812C6.75377 7.06812 5.98191 7.78813 5.98191 9.25214C5.98191 10.7161 7.05528 12.1322 7.2 12.3242C7.34472 12.5282 9.31055 15.5282 12.3015 16.8122C13.0131 17.1242 13.5678 17.3042 14.002 17.4362C14.7136 17.6642 15.3648 17.6282 15.8834 17.5562C16.4623 17.4722 17.6563 16.8362 17.8975 16.1402C18.1508 15.4442 18.1508 14.8562 18.0663 14.7242C17.9819 14.5922 17.801 14.5322 17.4995 14.3882Z" fill="#705E78"/>
</svg>
